<svg width="71" height="16" viewBox="0 0 71 16" fill="none" xmlns="http://www.w3.org/2000/svg">
<path d="M35.5361 16H33.7773L33.7637 1.79297V1.78613L30.6797 2.81055L30.2988 1.33203L34.0693 0.151367H35.5361V16ZM16.1104 10.918C16.579 12.2543 16.8173 12.9397 17.1025 13.8418H17.1504C17.4085 12.9872 17.6662 12.2203 18.1416 10.918L22.0205 0.144531H23.7793L25.8984 15.9932H24.0381L22.6924 5.62012C22.5498 4.48055 22.4821 3.88307 22.4346 3.4082H22.3867C22.2237 3.95766 22.0338 4.58889 21.6807 5.59277L17.958 15.9932H16.1992L12.3887 5.59277C12.0152 4.57532 11.8249 3.95088 11.6348 3.4082H11.5869C11.5394 3.97798 11.4718 4.58856 11.3496 5.66699L10.0996 15.9932H8.36719L10.5068 0.144531H12.2256L16.1104 10.918ZM70.2305 1.71875H64.0146V6.80664H69.4766V8.38086H64.0146V14.4189H70.4004V15.9932H62.1807V0.144531H70.2305V1.71875ZM2.70996 15.9863H0.638672V5.7959H2.70996V15.9863ZM55.043 15.9795H53.3447L45.5947 4.67676C45.1261 4.01192 44.6574 3.12998 44.3721 2.62793H44.3242C44.3446 2.94001 44.4199 3.60464 44.4199 4.36426V15.9727H42.7148V0.144531H44.5283L51.9258 10.8643C52.6522 11.9357 53.0937 12.7156 53.3926 13.1973H53.4404C53.42 12.8985 53.3447 12.22 53.3447 11.0537V0.130859H55.043V15.9795ZM1.68457 0.00195312C1.90871 -0.0116083 2.13319 0.0289446 2.34375 0.110352C2.55426 0.191766 2.7442 0.321589 2.90039 0.484375C3.19226 0.803136 3.35529 1.23008 3.3418 1.66406C3.34859 2.11183 3.1855 2.54642 2.87305 2.87207C2.71687 3.0348 2.52683 3.16373 2.30957 3.24512C2.099 3.32653 1.8745 3.36708 1.64355 3.35352C1.42627 3.35349 1.20179 3.31277 1.00488 3.22461C0.801278 3.13642 0.624923 3.00744 0.475586 2.84473C0.326154 2.68869 0.203579 2.50528 0.12207 2.30176C0.040657 2.09833 0 1.88103 0 1.66406C3.26908e-05 1.44706 0.0337633 1.22296 0.115234 1.01953C0.196718 0.816151 0.319484 0.633492 0.475586 0.477539C0.631798 0.321516 0.821685 0.191765 1.03223 0.110352C1.236 0.0357241 1.46042 0.00195312 1.68457 0.00195312Z" fill="white"/>
</svg>
