<svg width="106" height="24" viewBox="0 0 106 24" fill="none" xmlns="http://www.w3.org/2000/svg">
<path d="M53.5046 23.9999H50.865L50.8455 2.69036V2.6806L46.2195 4.21673L45.6492 1.99798L51.3035 0.227473H53.5046V23.9999ZM24.366 16.3779C25.0689 18.3824 25.4254 19.4103 25.8533 20.7636H25.9246C26.3117 19.4814 26.6996 18.3317 27.4128 16.3779L33.2302 0.217707H35.8689L39.0486 23.9902H36.2566L34.239 8.42962C34.0251 6.72018 33.9236 5.82455 33.8523 5.11224H33.78C33.5355 5.93653 33.2503 6.88346 32.7205 8.38958L27.1375 23.9902H24.4988L18.783 8.38958C18.2226 6.86311 17.9374 5.92636 17.6521 5.11224H17.5808C17.5095 5.96702 17.4068 6.883 17.2234 8.50091L15.3494 23.9902H12.7507L15.9607 0.217707H18.5378L24.366 16.3779ZM105.546 2.57806H96.2224V10.2109H104.414V12.5722H96.2224V21.6288H105.8V23.9902H93.4714V0.217707H105.546V2.57806ZM4.26538 23.9794H1.15796V8.69427H4.26538V23.9794ZM82.7644 23.9697H80.2175L68.5925 7.01556C67.8896 6.01839 67.1865 4.69542 66.7585 3.94232H66.6873C66.7178 4.41046 66.8298 5.40743 66.8298 6.54681V23.9589H64.2722V0.217707H66.9929L78.0886 16.2968C79.1785 17.9042 79.8406 19.0743 80.2888 19.7968H80.3601C80.3295 19.3489 80.2175 18.331 80.2175 16.581V0.197199H82.7644V23.9697ZM2.72632 0.00383991C3.06244 -0.0165062 3.39884 0.0448897 3.7146 0.166926C4.03045 0.289043 4.31619 0.482261 4.55054 0.726496C4.9886 1.20478 5.23302 1.84575 5.21265 2.497C5.22284 3.16865 4.97821 3.82006 4.50952 4.30853C4.27521 4.55267 3.98977 4.74601 3.66382 4.8681C3.34809 4.99013 3.01204 5.05151 2.66577 5.03118C2.33973 5.03118 2.00324 4.97012 1.70776 4.83782C1.40211 4.70553 1.13699 4.51174 0.912842 4.26751C0.688914 4.03362 0.505762 3.75904 0.383545 3.45404C0.261279 3.14874 0.199951 2.82265 0.199951 2.497C0.199953 2.17139 0.250562 1.83547 0.372803 1.53021C0.495068 1.22491 0.6785 0.949813 0.912842 0.715754C1.14718 0.48171 1.43294 0.289038 1.74878 0.166926C2.0543 0.055039 2.39024 0.00388555 2.72632 0.00383991Z" fill="#CF035B"/>
</svg>
