<svg width="20" height="15" viewBox="0 0 20 15" fill="none" xmlns="http://www.w3.org/2000/svg">
<path fill-rule="evenodd" clip-rule="evenodd" d="M0 0V15H20V0H0Z" fill="#F2F2F2"/>
<mask id="mask0_2231_336" style="mask-type:luminance" maskUnits="userSpaceOnUse" x="0" y="0" width="20" height="15">
<path fill-rule="evenodd" clip-rule="evenodd" d="M0 0V15H20V0H0Z" fill="white"/>
</mask>
<g mask="url(#mask0_2231_336)">
<path fill-rule="evenodd" clip-rule="evenodd" d="M10 11.3866C12.0017 11.3866 13.6244 9.66335 13.6244 7.53756C13.6244 5.41177 12.0017 3.68848 10 3.68848C7.99831 3.68848 6.37561 5.41177 6.37561 7.53756C6.37561 9.66335 7.99831 11.3866 10 11.3866Z" fill="#3D58DB"/>
<mask id="mask1_2231_336" style="mask-type:luminance" maskUnits="userSpaceOnUse" x="6" y="3" width="8" height="9">
<path fill-rule="evenodd" clip-rule="evenodd" d="M10 11.3866C12.0017 11.3866 13.6244 9.66335 13.6244 7.53756C13.6244 5.41177 12.0017 3.68848 10 3.68848C7.99831 3.68848 6.37561 5.41177 6.37561 7.53756C6.37561 9.66335 7.99831 11.3866 10 11.3866Z" fill="white"/>
</mask>
<g mask="url(#mask1_2231_336)">
<path fill-rule="evenodd" clip-rule="evenodd" d="M13.7512 7.83196C13.7512 7.83196 13.5478 6.01699 12.0411 5.91847C10.5344 5.81994 10.1282 7.24946 10.0412 7.62819C9.95429 8.00692 9.73424 9.01724 8.14789 9.01724C6.56155 9.01724 6.41846 6.44822 6.41846 6.44822V3.41895H13.7512V7.83196Z" fill="#E31D1C"/>
</g>
<path d="M7.0155 3.4834L4.45398 6.55664L3.88171 6.04004L6.44421 2.9668L7.0155 3.4834ZM6.07703 2.63672L3.52234 5.68652L2.95007 5.16895L5.50574 2.11914L6.07703 2.63672ZM5.13367 1.7998L2.48425 4.89453L1.91199 4.37695L4.56238 1.28223L5.13367 1.7998Z" fill="#272727"/>
<path d="M15.1559 5.39941L16.1481 6.56348L16.7203 6.04883L15.7281 4.88379L15.1559 5.39941ZM14.3727 2.39453L17.1334 5.75684L17.7057 5.24219L14.944 1.87891L14.3727 2.39453ZM17.0436 3.72266L18.0358 4.88672L18.608 4.37109L17.6158 3.20703L17.0436 3.72266ZM13.3922 3.25781L14.3844 4.42188L14.9567 3.90625L13.9645 2.74219L13.3922 3.25781ZM15.2809 1.58105L16.2721 2.74512L16.8444 2.22949L15.8522 1.06543L15.2809 1.58105Z" fill="#272727"/>
<path d="M16.5065 12.6426L15.5055 13.8115L14.9283 13.2939L15.9293 12.125L16.5065 12.6426ZM15.5563 11.7539L14.5114 13.002L13.9352 12.4844L14.9791 11.2363L15.5563 11.7539ZM14.6022 10.959L13.6022 12.1279L13.025 11.6104L14.025 10.4414L14.6022 10.959ZM18.1061 10.5381L17.1051 11.707L16.5289 11.1895L17.5289 10.0205L18.1061 10.5381ZM17.2692 9.67383L16.2252 10.9219L15.6481 10.4053L16.693 9.15625L17.2692 9.67383ZM16.2848 8.90234L15.2838 10.0713L14.7067 9.55371L15.7076 8.38477L16.2848 8.90234Z" fill="#272727"/>
<path d="M2.12122 10.9473L4.68762 13.9121L5.25989 13.3965L2.69348 10.4316L2.12122 10.9473ZM4.59973 11.8643L5.67786 13.0488L6.25012 12.5332L5.172 11.3486L4.59973 11.8643ZM4.00403 9.30566L6.55676 12.2314L7.12903 11.7148L4.57629 8.79004L4.00403 9.30566ZM3.10071 10.0947L4.03528 11.1914L4.60754 10.6748L3.672 9.5791L3.10071 10.0947Z" fill="#272727"/>
</g>
</svg>
