<svg width="20" height="20" viewBox="0 0 20 20" fill="none" xmlns="http://www.w3.org/2000/svg">
<path d="M13.8889 13.8889H15.4444C16.3036 13.8889 17 13.1924 17 12.3333V9.22222C17 8.36311 16.3036 7.66667 15.4444 7.66667H4.55556C3.69645 7.66667 3 8.36311 3 9.22222V12.3333C3 13.1924 3.69645 13.8889 4.55556 13.8889H6.11111M7.66667 17H12.3333C13.1924 17 13.8889 16.3036 13.8889 15.4444V12.3333C13.8889 11.4742 13.1924 10.7778 12.3333 10.7778H7.66667C6.80756 10.7778 6.11111 11.4742 6.11111 12.3333V15.4444C6.11111 16.3036 6.80756 17 7.66667 17ZM13.8889 7.66667V4.55556C13.8889 3.69645 13.1924 3 12.3333 3H7.66667C6.80756 3 6.11111 3.69645 6.11111 4.55556V7.66667H13.8889Z" stroke="black" stroke-width="1.6" stroke-linecap="round" stroke-linejoin="round"/>
</svg>
