<svg width="80" height="80" viewBox="0 0 80 80" fill="none" xmlns="http://www.w3.org/2000/svg">
<rect width="80" height="80" rx="16" fill="white"/>
<path d="M60.0124 52.6504C59.761 52.3997 59.439 52.2316 59.0896 52.1686C58.7401 52.1055 58.3797 52.1505 58.0565 52.2976C58.0303 52.2661 58.0195 52.2275 57.99 52.198L55.4087 49.6167C62.3961 41.2824 56.2352 28.086 45.2498 28.1881C41.7692 28.1894 38.4316 29.5726 35.9705 32.0337C33.5094 34.4948 32.1262 37.8324 32.125 41.313C32.0245 52.2983 45.2193 58.4597 53.5538 51.4717L56.135 54.053C56.1642 54.0821 56.2035 54.0932 56.2347 54.1191C56.0876 54.4423 56.0425 54.8028 56.1056 55.1523C56.1686 55.5018 56.3367 55.8238 56.5874 56.0753L61.4375 60.9254C61.6 61.0879 61.7929 61.2168 62.0052 61.3047C62.2176 61.3927 62.4451 61.4379 62.6749 61.4379C62.9048 61.4379 63.1323 61.3927 63.3446 61.3047C63.557 61.2168 63.7499 61.0879 63.9124 60.9254L64.8624 59.9753C65.0249 59.8128 65.1538 59.6199 65.2418 59.4076C65.3297 59.1953 65.375 58.9677 65.375 58.7379C65.375 58.5081 65.3297 58.2805 65.2418 58.0682C65.1538 57.8559 65.0249 57.663 64.8624 57.5005L60.0124 52.6504ZM45.25 50.938C43.9858 50.9387 42.7339 50.6902 41.5658 50.2068C40.3977 49.7233 39.3364 49.0144 38.4425 48.1205C37.5486 47.2266 36.8397 46.1652 36.3562 44.9971C35.8728 43.8291 35.6243 42.5771 35.625 41.313C36.1257 28.5451 54.3757 28.5474 54.875 41.3131C54.8749 43.8657 53.8608 46.3138 52.0558 48.1188C50.2508 49.9238 47.8027 50.9379 45.25 50.938ZM29.5 29.063H19C18.7709 29.0674 18.5527 29.1616 18.3922 29.3252C18.2318 29.4888 18.1419 29.7089 18.1419 29.938C18.1419 30.1672 18.2318 30.3872 18.3923 30.5508C18.5527 30.7144 18.7709 30.8085 19.0001 30.813H29.5C29.7291 30.8085 29.9473 30.7144 30.1078 30.5508C30.2682 30.3871 30.3581 30.1671 30.3581 29.938C30.3581 29.7088 30.2682 29.4888 30.1078 29.3252C29.9473 29.1616 29.7291 29.0674 29.5 29.063ZM29.5 32.563H19C18.7709 32.5674 18.5527 32.6616 18.3922 32.8252C18.2318 32.9888 18.1419 33.2089 18.1419 33.438C18.1419 33.6672 18.2318 33.8872 18.3923 34.0508C18.5527 34.2144 18.7709 34.3085 19.0001 34.313H29.5C29.7291 34.3085 29.9473 34.2144 30.1078 34.0508C30.2682 33.8871 30.3581 33.6671 30.3581 33.438C30.3581 33.2088 30.2682 32.9888 30.1078 32.8252C29.9473 32.6616 29.7291 32.5674 29.5 32.563ZM30.375 36.938C30.3751 36.823 30.3525 36.7092 30.3085 36.603C30.2646 36.4969 30.2001 36.4004 30.1189 36.3191C30.0376 36.2378 29.9411 36.1734 29.8349 36.1294C29.7287 36.0855 29.6149 36.0629 29.5 36.063H19C18.7679 36.063 18.5454 36.1552 18.3813 36.3193C18.2172 36.4833 18.125 36.7059 18.125 36.938C18.125 37.17 18.2172 37.3926 18.3813 37.5567C18.5454 37.7208 18.7679 37.813 19 37.813H29.5C29.6149 37.813 29.7287 37.7905 29.8349 37.7465C29.9411 37.7026 30.0376 37.6381 30.1189 37.5568C30.2001 37.4756 30.2646 37.3791 30.3085 37.2729C30.3525 37.1667 30.3751 37.0529 30.375 36.938ZM19 39.563C18.7709 39.5674 18.5527 39.6616 18.3922 39.8252C18.2318 39.9888 18.1419 40.2088 18.1419 40.438C18.1419 40.6672 18.2318 40.8872 18.3923 41.0508C18.5527 41.2144 18.7709 41.3085 19.0001 41.313H24.25C24.4791 41.3085 24.6973 41.2143 24.8578 41.0507C25.0182 40.8871 25.1081 40.6671 25.1081 40.4379C25.1081 40.2088 25.0182 39.9888 24.8577 39.8252C24.6973 39.6616 24.4791 39.5674 24.2499 39.563H19Z" fill="#5D013B"/>
<path d="M16.0736 47C15.9116 46.989 15.7605 46.9146 15.6532 46.7928C15.5458 46.671 15.4909 46.5118 15.5003 46.3497V24.25H55.7503V32.0834C56.4207 32.8402 57.0074 33.6671 57.5003 34.5499V19.6503C57.5096 19.0241 57.2702 18.4199 56.8347 17.9699C56.3992 17.52 55.803 17.2611 55.1769 17.25H16.0736C15.4475 17.261 14.8513 17.5199 14.4158 17.9698C13.9802 18.4198 13.7409 19.0241 13.7503 19.6503V46.3497C13.7409 46.9759 13.9802 47.5802 14.4158 48.0302C14.8513 48.4801 15.4475 48.739 16.0736 48.75H33.4107C33.0558 48.1898 32.7413 47.6049 32.4696 47H16.0736ZM53.1244 19.875C53.3542 19.8784 53.5735 19.9721 53.7348 20.1358C53.8961 20.2995 53.9865 20.5202 53.9865 20.75C53.9865 20.9798 53.8961 21.2005 53.7348 21.3642C53.5735 21.5279 53.3542 21.6216 53.1244 21.625C52.8946 21.6216 52.6753 21.5279 52.514 21.3642C52.3527 21.2005 52.2623 20.9798 52.2623 20.75C52.2623 20.5202 52.3527 20.2995 52.514 20.1358C52.6753 19.9721 52.8946 19.8784 53.1244 19.875ZM49.6244 19.875C49.8542 19.8784 50.0735 19.9721 50.2348 20.1358C50.3961 20.2995 50.4865 20.5202 50.4865 20.75C50.4865 20.9798 50.3961 21.2005 50.2348 21.3642C50.0735 21.5279 49.8542 21.6216 49.6244 21.625C49.3946 21.6216 49.1753 21.5279 49.014 21.3642C48.8527 21.2005 48.7623 20.9798 48.7623 20.75C48.7623 20.5202 48.8527 20.2995 49.014 20.1358C49.1753 19.9721 49.3946 19.8784 49.6244 19.875ZM46.1244 19.875C46.3542 19.8784 46.5735 19.9721 46.7348 20.1358C46.8961 20.2995 46.9865 20.5202 46.9865 20.75C46.9865 20.9798 46.8961 21.2005 46.7348 21.3642C46.5735 21.5279 46.3542 21.6216 46.1244 21.625C45.8946 21.6216 45.6753 21.5279 45.514 21.3642C45.3527 21.2005 45.2623 20.9798 45.2623 20.75C45.2623 20.5202 45.3527 20.2995 45.514 20.1358C45.6753 19.9721 45.8946 19.8784 46.1244 19.875Z" fill="#5D013B"/>
</svg>
