<svg width="80" height="80" viewBox="0 0 80 80" fill="none" xmlns="http://www.w3.org/2000/svg">
<rect width="80" height="80" rx="16" fill="white"/>
<path d="M59.5 31.75H49.75V23.5C49.7481 23.3996 49.7278 23.3005 49.69 23.2075C49.6534 23.1181 49.6 23.0366 49.5325 22.9675L44.2825 17.7175C44.2121 17.648 44.1277 17.5944 44.035 17.56C43.9448 17.5216 43.848 17.5012 43.75 17.5H23.5C23.3011 17.5 23.1103 17.579 22.9697 17.7197C22.829 17.8603 22.75 18.0511 22.75 18.25V35.5H20.5C20.3011 35.5 20.1103 35.579 19.9697 35.7197C19.829 35.8603 19.75 36.0511 19.75 36.25V58C19.75 59.1935 20.2241 60.3381 21.068 61.182C21.9119 62.0259 23.0565 62.5 24.25 62.5H55.75C56.9435 62.5 58.0881 62.0259 58.932 61.182C59.7759 60.3381 60.25 59.1935 60.25 58V32.5C60.25 32.3011 60.171 32.1103 60.0303 31.9697C59.8897 31.829 59.6989 31.75 59.5 31.75ZM24.25 19H43V23.5C43 23.6989 43.079 23.8897 43.2197 24.0303C43.3603 24.171 43.5511 24.25 43.75 24.25H48.25V40H37.3075L33.0325 35.7175C32.9624 35.648 32.8793 35.593 32.7879 35.5557C32.6966 35.5183 32.5987 35.4994 32.5 35.5H24.25V19ZM24.25 61C23.4544 61 22.6913 60.6839 22.1287 60.1213C21.5661 59.5587 21.25 58.7957 21.25 58V37H32.1925L36.4675 41.2825C36.5376 41.352 36.6207 41.407 36.7121 41.4443C36.8034 41.4817 36.9013 41.5006 37 41.5H51.25V58C51.2525 59.1081 51.6638 60.1763 52.405 61H24.25Z" fill="#5D013B"/>
<path d="M24.25 19H43V23.5C43 23.6989 43.079 23.8897 43.2197 24.0303C43.3603 24.171 43.5511 24.25 43.75 24.25H48.25V40H37.3075L33.0325 35.7175C32.9624 35.648 32.8793 35.593 32.7879 35.5557C32.6966 35.5183 32.5987 35.4994 32.5 35.5H24.25V19ZM24.25 61C23.4544 61 22.6913 60.6839 22.1287 60.1213C21.5661 59.5587 21.25 58.7957 21.25 58V37H32.1925L36.4675 41.2825C36.5376 41.352 36.6207 41.407 36.7121 41.4443C36.8034 41.4817 36.9013 41.5006 37 41.5H51.25V58C51.2525 59.1081 51.6638 60.1763 52.405 61H24.25Z" fill="white"/>
<path d="M28 23.5H36.25C36.4489 23.5 36.6397 23.421 36.7803 23.2803C36.921 23.1397 37 22.9489 37 22.75C37 22.5511 36.921 22.3603 36.7803 22.2197C36.6397 22.079 36.4489 22 36.25 22H28C27.8011 22 27.6103 22.079 27.4697 22.2197C27.329 22.3603 27.25 22.5511 27.25 22.75C27.25 22.9489 27.329 23.1397 27.4697 23.2803C27.6103 23.421 27.8011 23.5 28 23.5ZM28 28H44.5C44.6989 28 44.8897 27.921 45.0303 27.7803C45.171 27.6397 45.25 27.4489 45.25 27.25C45.25 27.0511 45.171 26.8603 45.0303 26.7197C44.8897 26.579 44.6989 26.5 44.5 26.5H28C27.8011 26.5 27.6103 26.579 27.4697 26.7197C27.329 26.8603 27.25 27.0511 27.25 27.25C27.25 27.4489 27.329 27.6397 27.4697 27.7803C27.6103 27.921 27.8011 28 28 28ZM45.25 31.75C45.25 31.5511 45.171 31.3603 45.0303 31.2197C44.8897 31.079 44.6989 31 44.5 31H28C27.8011 31 27.6103 31.079 27.4697 31.2197C27.329 31.3603 27.25 31.5511 27.25 31.75C27.25 31.9489 27.329 32.1397 27.4697 32.2803C27.6103 32.421 27.8011 32.5 28 32.5H44.5C44.6989 32.5 44.8897 32.421 45.0303 32.2803C45.171 32.1397 45.25 31.9489 45.25 31.75Z" fill="#5D013B"/>
</svg>
