<svg width="80" height="80" viewBox="0 0 80 80" fill="none" xmlns="http://www.w3.org/2000/svg">
<rect width="80" height="80" rx="16" fill="white"/>
<path d="M23.4336 33.6799C22.8836 33.6799 22.4336 34.1299 22.4336 34.6799V39.1699H52.1236L49.7036 41.1699H24.8436L37.2036 52.2799V62.4999C37.2036 63.2799 38.0636 63.7599 38.7236 63.3499L42.3036 61.1199C42.5936 60.9399 42.7736 60.6199 42.7736 60.2699V52.2699L57.1936 39.4599C57.4236 39.2699 57.5536 38.9899 57.5536 38.6899V34.6699C57.5536 34.1199 57.1036 33.6699 56.5536 33.6699H23.4336V33.6799Z" fill="#5D013B"/>
<path d="M59.4841 16.5H20.5041C18.2841 16.5 16.4941 18.29 16.4941 20.51V50.09C16.4941 52.3 18.2841 54.1 20.5041 54.1H35.2141V53.17L32.9041 51.1H20.6641C20.0141 51.1 19.4941 50.58 19.4941 49.93V26.61C19.4941 25.96 20.0141 25.44 20.6641 25.44H59.3241C59.9741 25.44 60.4941 25.96 60.4941 26.61V49.92C60.4941 50.57 59.9741 51.09 59.3241 51.09H47.1241L44.7841 53.17V54.09H59.4941C61.7041 54.09 63.5041 52.3 63.5041 50.08V20.51C63.4941 18.29 61.7041 16.5 59.4841 16.5ZM23.0541 21.85C22.9441 21.96 22.8041 22.05 22.6441 22.11C22.4941 22.17 22.3341 22.21 22.1741 22.21C22.0141 22.21 21.8441 22.17 21.6941 22.11C21.5441 22.05 21.4041 21.96 21.2941 21.85C21.1641 21.72 21.0741 21.6 21.0141 21.44C20.9541 21.29 20.9141 21.13 20.9141 20.97C20.9141 20.81 20.9541 20.64 21.0141 20.5C21.0741 20.32 21.1641 20.2 21.2941 20.07C21.7541 19.61 22.5841 19.61 23.0541 20.07C23.2941 20.31 23.4141 20.64 23.4141 20.96C23.4141 21.29 23.2941 21.61 23.0541 21.85ZM27.5141 21.86C27.4641 21.91 27.4041 21.97 27.3241 22.01C27.2641 22.06 27.1841 22.1 27.1141 22.12C27.0341 22.16 26.9541 22.18 26.8741 22.19C26.8041 22.2 26.7141 22.22 26.6241 22.22C26.4641 22.22 26.3041 22.18 26.1541 22.12C26.0041 22.06 25.8641 21.97 25.7541 21.86C25.6241 21.74 25.5341 21.61 25.4741 21.44C25.4141 21.29 25.3741 21.13 25.3741 20.97C25.3741 20.64 25.5141 20.32 25.7541 20.08C25.8641 19.97 26.0041 19.88 26.1541 19.82C26.3841 19.72 26.6241 19.7 26.8741 19.74C26.9541 19.75 27.0341 19.78 27.1141 19.82C27.1841 19.84 27.2641 19.88 27.3241 19.93C27.3941 19.98 27.4641 20.03 27.5141 20.08C27.7541 20.32 27.8941 20.64 27.8941 20.97C27.8841 21.29 27.7441 21.62 27.5141 21.86ZM31.9741 21.86C31.9241 21.91 31.8641 21.97 31.7841 22.01C31.7241 22.06 31.6441 22.1 31.5741 22.12C31.4941 22.16 31.4241 22.18 31.3341 22.2C31.2641 22.21 31.1741 22.22 31.0941 22.22C31.0041 22.22 30.9341 22.21 30.8441 22.2C30.7641 22.19 30.6841 22.16 30.6041 22.12C30.5341 22.1 30.4641 22.06 30.3941 22.01C30.3341 21.97 30.2741 21.91 30.2041 21.86C29.9641 21.62 29.8241 21.3 29.8241 20.97C29.8241 20.65 29.9641 20.32 30.2041 20.08C30.2641 20.03 30.3241 19.98 30.3941 19.93C30.4741 19.88 30.5341 19.84 30.6041 19.82C30.6841 19.78 30.7641 19.76 30.8441 19.75C31.0041 19.71 31.1641 19.71 31.3341 19.75C31.4241 19.76 31.4941 19.79 31.5741 19.82C31.6441 19.85 31.7241 19.88 31.7841 19.93C31.8541 19.98 31.9241 20.03 31.9741 20.08C32.2141 20.32 32.3541 20.64 32.3541 20.97C32.3441 21.3 32.2041 21.62 31.9741 21.86Z" fill="#5D013B"/>
</svg>
