<svg width="80" height="80" viewBox="0 0 80 80" fill="none" xmlns="http://www.w3.org/2000/svg">
<rect width="80" height="80" rx="16" fill="white"/>
<path d="M63.625 50.5H62.75V21.625C62.75 20.9288 62.4734 20.2611 61.9812 19.7688C61.4889 19.2766 60.8212 19 60.125 19H19.875C19.1788 19 18.5111 19.2766 18.0188 19.7688C17.5266 20.2611 17.25 20.9288 17.25 21.625V50.5H16.375C15.6788 50.5 15.0111 50.7766 14.5188 51.2688C14.0266 51.7611 13.75 52.4288 13.75 53.125V54.875C13.75 56.4995 14.3953 58.0574 15.544 59.206C16.6926 60.3547 18.2505 61 19.875 61H60.125C61.7495 61 63.3074 60.3547 64.456 59.206C65.6047 58.0574 66.25 56.4995 66.25 54.875V53.125C66.25 52.4288 65.9734 51.7611 65.4812 51.2688C64.9889 50.7766 64.3212 50.5 63.625 50.5ZM19 21.625C19 21.3929 19.0922 21.1704 19.2563 21.0063C19.4204 20.8422 19.6429 20.75 19.875 20.75H60.125C60.3571 20.75 60.5796 20.8422 60.7437 21.0063C60.9078 21.1704 61 21.3929 61 21.625V50.5H19V21.625ZM42.9837 53.335C42.9358 53.5291 42.8229 53.701 42.6637 53.822C42.5045 53.943 42.3086 54.0058 42.1087 54H37.865C37.6651 54.0058 37.4693 53.943 37.3101 53.822C37.1509 53.701 37.0379 53.5291 36.99 53.335L36.745 52.25H43.255L42.9837 53.335Z" fill="#5D013B"/>
<path d="M19 21.625C19 21.3929 19.0922 21.1704 19.2563 21.0063C19.4204 20.8422 19.6429 20.75 19.875 20.75H60.125C60.3571 20.75 60.5796 20.8422 60.7437 21.0063C60.9078 21.1704 61 21.3929 61 21.625V50.5H19V21.625ZM42.9837 53.335C42.9358 53.5291 42.8229 53.701 42.6637 53.822C42.5045 53.943 42.3086 54.0058 42.1087 54H37.865C37.6651 54.0058 37.4693 53.943 37.3101 53.822C37.1509 53.701 37.0379 53.5291 36.99 53.335L36.745 52.25H43.255L42.9837 53.335Z" fill="white"/>
<path d="M31.4425 35.4413C32.1289 34.8634 32.6211 34.0885 32.8523 33.2216C33.0835 32.3546 33.0425 31.4376 32.735 30.5947C32.4274 29.7518 31.8682 29.0238 31.133 28.5095C30.3978 27.9951 29.5222 27.7193 28.625 27.7193C27.7278 27.7193 26.8522 27.9951 26.117 28.5095C25.3818 29.0238 24.8226 29.7518 24.515 30.5947C24.2075 31.4376 24.1665 32.3546 24.3977 33.2216C24.6289 34.0885 25.1211 34.8634 25.8075 35.4413C24.8115 35.9573 23.9763 36.7369 23.393 37.6951C22.8098 38.6533 22.5009 39.7532 22.5 40.875V44.375C22.5 45.0712 22.7766 45.7389 23.2688 46.2312C23.7611 46.7234 24.4288 47 25.125 47H32.125C32.8212 47 33.4889 46.7234 33.9812 46.2312C34.4734 45.7389 34.75 45.0712 34.75 44.375V40.875C34.7491 39.7532 34.4402 38.6533 33.857 37.6951C33.2737 36.7369 32.4385 35.9573 31.4425 35.4413ZM26 32.125C26 31.6058 26.154 31.0983 26.4424 30.6666C26.7308 30.2349 27.1408 29.8985 27.6205 29.6998C28.1001 29.5011 28.6279 29.4492 29.1371 29.5504C29.6463 29.6517 30.114 29.9017 30.4812 30.2688C30.8483 30.636 31.0983 31.1037 31.1996 31.6129C31.3008 32.1221 31.2489 32.6499 31.0502 33.1295C30.8515 33.6092 30.515 34.0192 30.0834 34.3076C29.6517 34.596 29.1442 34.75 28.625 34.75C27.9288 34.75 27.2611 34.4734 26.7688 33.9812C26.2766 33.4889 26 32.8212 26 32.125ZM33 44.375C33 44.6071 32.9078 44.8296 32.7437 44.9937C32.5796 45.1578 32.3571 45.25 32.125 45.25H25.125C24.8929 45.25 24.6704 45.1578 24.5063 44.9937C24.3422 44.8296 24.25 44.6071 24.25 44.375V40.875C24.25 39.7147 24.7109 38.6019 25.5314 37.7814C26.3519 36.9609 27.4647 36.5 28.625 36.5C29.7853 36.5 30.8981 36.9609 31.7186 37.7814C32.5391 38.6019 33 39.7147 33 40.875V44.375ZM54.875 24.25H40.875C40.1788 24.25 39.5111 24.5266 39.0188 25.0188C38.5266 25.5111 38.25 26.1788 38.25 26.875V40.875C38.25 41.5712 38.5266 42.2389 39.0188 42.7312C39.5111 43.2234 40.1788 43.5 40.875 43.5H54.875C55.5712 43.5 56.2389 43.2234 56.7312 42.7312C57.2234 42.2389 57.5 41.5712 57.5 40.875V26.875C57.5 26.1788 57.2234 25.5111 56.7312 25.0188C56.2389 24.5266 55.5712 24.25 54.875 24.25ZM43.5 28.625H47C47.2321 28.625 47.4546 28.7172 47.6187 28.8813C47.7828 29.0454 47.875 29.2679 47.875 29.5C47.875 29.7321 47.7828 29.9546 47.6187 30.1187C47.4546 30.2828 47.2321 30.375 47 30.375H43.5C43.2679 30.375 43.0454 30.2828 42.8813 30.1187C42.7172 29.9546 42.625 29.7321 42.625 29.5C42.625 29.2679 42.7172 29.0454 42.8813 28.8813C43.0454 28.7172 43.2679 28.625 43.5 28.625ZM52.25 39.125H43.5C43.2679 39.125 43.0454 39.0328 42.8813 38.8687C42.7172 38.7046 42.625 38.4821 42.625 38.25C42.625 38.0179 42.7172 37.7954 42.8813 37.6313C43.0454 37.4672 43.2679 37.375 43.5 37.375H52.25C52.4821 37.375 52.7046 37.4672 52.8687 37.6313C53.0328 37.7954 53.125 38.0179 53.125 38.25C53.125 38.4821 53.0328 38.7046 52.8687 38.8687C52.7046 39.0328 52.4821 39.125 52.25 39.125ZM52.25 34.75H43.5C43.2679 34.75 43.0454 34.6578 42.8813 34.4937C42.7172 34.3296 42.625 34.1071 42.625 33.875C42.625 33.6429 42.7172 33.4204 42.8813 33.2563C43.0454 33.0922 43.2679 33 43.5 33H52.25C52.4821 33 52.7046 33.0922 52.8687 33.2563C53.0328 33.4204 53.125 33.6429 53.125 33.875C53.125 34.1071 53.0328 34.3296 52.8687 34.4937C52.7046 34.6578 52.4821 34.75 52.25 34.75Z" fill="#5D013B"/>
</svg>
