<svg width="48" height="48" viewBox="0 0 48 48" fill="none" xmlns="http://www.w3.org/2000/svg">
<g clip-path="url(#clip0_2579_3511)">
<path d="M37.3333 27.0133V13.3333C37.3333 12.6261 37.0524 11.9478 36.5523 11.4477C36.0522 10.9476 35.3739 10.6667 34.6667 10.6667H31.3333C31.1565 10.6667 30.987 10.7369 30.8619 10.8619C30.7369 10.987 30.6667 11.1565 30.6667 11.3333V14.6667C30.6676 14.9115 30.6012 15.1519 30.4745 15.3615C30.3479 15.5711 30.166 15.7418 29.9488 15.8548C29.7315 15.9678 29.4874 16.0188 29.2431 16.0022C28.9988 15.9857 28.7638 15.9021 28.5638 15.7608C28.3638 15.6195 28.2066 15.4258 28.1095 15.201C28.0123 14.9763 27.9789 14.7291 28.013 14.4866C28.047 14.2441 28.1472 14.0157 28.3025 13.8264C28.4578 13.637 28.6622 13.4941 28.8933 13.4133C29.0222 13.3668 29.1335 13.2816 29.2123 13.1695C29.291 13.0573 29.3333 12.9237 29.3333 12.7867V8.66667C29.3333 8.48986 29.2631 8.32029 29.1381 8.19526C29.013 8.07024 28.8435 8 28.6667 8C28.4899 8 28.3203 8.07024 28.1953 8.19526C28.0702 8.32029 28 8.48986 28 8.66667V10.6667H18C17.8232 10.6667 17.6536 10.7369 17.5286 10.8619C17.4036 10.987 17.3333 11.1565 17.3333 11.3333V14.6667C17.3343 14.9115 17.2678 15.1519 17.1412 15.3615C17.0146 15.5711 16.8327 15.7418 16.6154 15.8548C16.3982 15.9678 16.1541 16.0188 15.9098 16.0022C15.6654 15.9857 15.4304 15.9021 15.2305 15.7608C15.0305 15.6195 14.8733 15.4258 14.7761 15.201C14.679 14.9763 14.6456 14.7291 14.6796 14.4866C14.7137 14.2441 14.8138 14.0157 14.9691 13.8264C15.1244 13.637 15.3289 13.4941 15.56 13.4133C15.6888 13.3668 15.8002 13.2816 15.8789 13.1695C15.9577 13.0573 15.9999 12.9237 16 12.7867V8.66667C16 8.48986 15.9298 8.32029 15.8047 8.19526C15.6797 8.07024 15.5101 8 15.3333 8C15.1565 8 14.987 8.07024 14.8619 8.19526C14.7369 8.32029 14.6667 8.48986 14.6667 8.66667V10.6667H10.6667C9.95942 10.6667 9.28115 10.9476 8.78105 11.4477C8.28095 11.9478 8 12.6261 8 13.3333V34.6667C8 35.3739 8.28095 36.0522 8.78105 36.5523C9.28115 37.0524 9.95942 37.3333 10.6667 37.3333H27.0133C27.6623 38.1257 28.4701 38.7733 29.3847 39.2344C30.2992 39.6956 31.3002 39.96 32.3232 40.0108C33.3461 40.0615 34.3684 39.8974 35.3241 39.529C36.2798 39.1606 37.1477 38.5961 37.8719 37.8719C38.5961 37.1477 39.1606 36.2798 39.529 35.3241C39.8974 34.3684 40.0615 33.3461 40.0108 32.3232C39.96 31.3002 39.6956 30.2992 39.2344 29.3847C38.7733 28.4701 38.1257 27.6623 37.3333 27.0133ZM25.3333 32.6667C25.3335 33.3431 25.4277 34.0162 25.6133 34.6667H10.6667V18.6667H34.6667V25.6133C33.5759 25.3013 32.4275 25.247 31.3122 25.4549C30.1969 25.6628 29.1451 26.127 28.24 26.8111C27.3349 27.4951 26.6011 28.3801 26.0967 29.3964C25.5922 30.4126 25.3309 31.5321 25.3333 32.6667ZM35.1333 35.1333C35.0714 35.1958 34.9976 35.2454 34.9164 35.2793C34.8351 35.3131 34.748 35.3305 34.66 35.3305C34.572 35.3305 34.4849 35.3131 34.4036 35.2793C34.3224 35.2454 34.2486 35.1958 34.1867 35.1333L32.1867 33.1333C32.0659 33.0081 31.999 32.8406 32 32.6667V28.6667C32 28.4899 32.0702 28.3203 32.1953 28.1953C32.3203 28.0702 32.4899 28 32.6667 28C32.8435 28 33.013 28.0702 33.1381 28.1953C33.2631 28.3203 33.3333 28.4899 33.3333 28.6667V32.3867L35.1333 34.1867C35.1958 34.2486 35.2454 34.3224 35.2793 34.4036C35.3131 34.4849 35.3305 34.572 35.3305 34.66C35.3305 34.748 35.3131 34.8351 35.2793 34.9164C35.2454 34.9976 35.1958 35.0714 35.1333 35.1333Z" fill="#5D013B"/>
</g>
<defs>
<clipPath id="clip0_2579_3511">
<rect width="32" height="32" fill="white" transform="translate(8 8)"/>
</clipPath>
</defs>
</svg>
