<svg width="48" height="49" viewBox="0 0 48 49" fill="none" xmlns="http://www.w3.org/2000/svg">
<path d="M33.2386 21.3807C36.2047 20.4068 42.9936 17.6634 41.9733 13.2351C41.2871 10.258 39.1272 9.31543 36.3431 10.3526C36.3707 10.1362 36.4205 9.74625 36.4529 9.4868C36.595 7.99484 35.4173 6.79492 34.0313 6.79492H13.7934C12.3629 6.79492 11.2134 8.06104 11.3718 9.4868C11.479 10.4791 11.5412 10.7776 11.5578 10.8954C8.71975 9.91377 6.62218 10.9598 6.00832 13.9034C5.0819 18.3512 11.9273 20.951 14.913 21.8621C15.8183 22.1387 16.513 22.7769 16.7885 23.6247C16.8759 23.9196 16.645 24.2728 16.3303 24.2534C16.1487 24.2349 15.9349 24.1626 15.6963 24.0375C15.301 23.8321 14.8095 23.9841 14.6021 24.3811C14.3951 24.7781 14.5488 25.2679 14.9457 25.4754C15.3699 25.6967 15.8876 25.8766 16.3652 25.8766C17.0966 25.8766 17.8238 25.4648 18.1971 24.7114C18.4988 24.9805 18.8218 25.2391 19.1556 25.476C20.3232 26.3192 21.0907 27.5085 21.2746 28.7301C21.48 30.1679 20.8961 31.2166 19.4908 31.9409C18.4962 32.4382 17.8691 33.5193 17.8691 34.6868V35.4112H17.6854C15.4475 35.4112 13.6313 37.2274 13.6313 39.4652V40.7841H10.3664C9.92321 40.7841 9.55562 41.1517 9.55562 41.5949C9.55562 42.049 9.92321 42.4057 10.3664 42.4057C19.3996 42.4057 28.4352 42.4057 37.4583 42.4057C37.9015 42.4057 38.2691 42.049 38.2691 41.5949C38.2691 41.1517 37.9015 40.7841 37.4583 40.7841H34.1934V39.4652C34.1934 37.2274 32.3772 35.4112 30.1394 35.4112H29.9556V34.6868C29.9556 33.5193 29.3178 32.4382 28.334 31.9409C26.998 31.2552 26.3059 30.1974 26.5502 28.7301C26.734 27.5085 27.5015 26.3192 28.6583 25.476C29.4832 24.8895 29.9007 24.4563 30.0386 24.3334C30.4458 25.0687 31.1453 25.4252 31.8313 25.4252C32.3231 25.4252 32.8483 25.2324 33.2829 24.9934C33.6757 24.7781 33.8192 24.285 33.6033 23.8928C33.3874 23.5001 32.8928 23.356 32.5027 23.5724C32.2694 23.7001 32.0519 23.7793 31.873 23.801C31.6223 23.8425 31.3012 23.5503 31.4174 23.1274C31.6592 22.3287 32.3396 21.6763 33.2386 21.3807ZM39.1175 11.6958C39.7298 11.9434 40.159 12.5837 40.3928 13.5993C40.9408 15.9763 37.3735 18.1715 33.5794 19.5469C34.875 17.0407 35.6096 14.3946 36.031 12.2664C36.6087 11.9503 38.0538 11.2675 39.1175 11.6958ZM7.59616 14.2338C7.80836 13.215 8.22274 12.5663 8.82768 12.3055C9.78913 11.893 11.1767 12.4187 11.9009 12.7917L11.9015 12.7949C11.9015 12.8057 11.9015 12.8057 11.9015 12.8057C12.366 14.9769 13.1546 17.5798 14.4933 20.0213C10.6861 18.7251 7.10062 16.613 7.59616 14.2338ZM27.7178 24.1679C26.1718 25.2706 25.1881 26.8166 24.9502 28.4922C24.6367 30.6112 25.5772 32.3517 27.5989 33.3787C28.0421 33.6165 28.334 34.1247 28.334 34.6868V35.4112H19.4908V34.6868C19.4908 34.1247 19.7718 33.6165 20.2259 33.3787C22.2475 32.3517 23.188 30.6112 22.8745 28.4922C22.6259 26.8166 21.6421 25.2706 20.107 24.1679C19.0572 23.4146 17.9905 22.3279 17.5124 21.6598C17.4908 21.649 17.48 21.6274 17.4691 21.6166C14.2926 17.6274 13.451 12.1891 13.3826 11.9841C13.3826 11.9733 13.3826 11.9733 13.3826 11.9733C13.1772 10.9247 13.0583 10.0058 12.9826 9.31386C12.9397 8.86206 13.2822 8.41654 13.7934 8.41654H34.0313C34.5042 8.41654 34.8992 8.83784 34.8313 9.31386C34.2465 14.7642 32.1712 20.9685 27.7178 24.1679Z" fill="#5D013B"/>
<path d="M28.5843 14.2649L26.1263 13.9077C25.906 13.8757 25.7157 13.7374 25.6172 13.5378L24.5179 11.3105C24.2699 10.808 23.5532 10.808 23.3052 11.3105L22.206 13.5378C22.1075 13.7374 21.9171 13.8757 21.6969 13.9077L19.2389 14.2649C18.6843 14.3455 18.4628 15.027 18.8641 15.4182L20.6428 17.1519C20.8021 17.3072 20.8748 17.5311 20.8372 17.7505L20.4174 20.1985C20.3226 20.7509 20.9023 21.1721 21.3984 20.9113L23.5969 19.7554C23.7939 19.6519 24.0293 19.6519 24.2262 19.7554L26.4247 20.9113C26.9208 21.1721 27.5005 20.7509 27.4058 20.1985L26.9859 17.7505C26.9483 17.5311 27.021 17.3072 27.1804 17.1519L28.959 15.4182C29.3603 15.027 29.1389 14.3455 28.5843 14.2649Z" fill="#5D013B"/>
</svg>
