<svg width="48" height="49" viewBox="0 0 48 49" fill="none" xmlns="http://www.w3.org/2000/svg">
<path d="M39.9839 19.1014L32.6002 12.896V9.17706C32.6002 7.70681 31.4109 6.51758 29.9515 6.51758H18.038C16.5785 6.51758 15.3893 7.70681 15.3893 9.17706V12.9068L8.00558 19.1014C6.61837 20.2718 5.89746 21.9451 5.89746 23.6203V38.6041C5.89746 40.8408 7.73434 42.6689 9.95151 42.6689L38.0488 42.6798C40.19 42.6798 42.1029 40.8985 42.1029 38.6149V23.6203C42.1029 21.943 41.3499 20.2325 39.9839 19.1014ZM38.9461 20.3338C39.3136 20.6473 39.6164 21.0041 39.8542 21.4041L32.6002 27.4798V15.0041L38.9461 20.3338ZM9.04338 20.3446L15.3893 15.0149V24.6257C15.3893 25.0797 15.7569 25.4365 16.2001 25.4365C16.6434 25.4365 17.0109 25.0797 17.0109 24.6257V9.17706C17.0109 8.60406 17.4758 8.1392 18.038 8.1392H29.9515C30.5245 8.1392 30.9786 8.60406 30.9786 9.17706V28.8419L29.6164 29.9879C29.6164 29.9879 29.6056 29.977 29.6056 29.9879C28.2074 28.9392 26.1882 28.1932 23.9947 28.1932H23.9839C23.5804 28.251 20.867 27.8135 18.3299 29.9446C18.3191 29.9338 18.3191 29.9446 18.3191 29.9446V29.9338C4.37793 18.2298 9.18625 22.2665 8.14606 21.3933C8.38393 21.0041 8.6866 20.6473 9.04338 20.3446ZM38.0488 41.0473L9.95151 41.0365C9.72203 41.0365 9.19431 40.9677 8.98934 40.8311L18.492 31.977H18.5028C18.602 31.8778 18.6263 31.8523 18.8488 31.6744C18.8488 31.6744 18.8488 31.6635 18.8596 31.6635C20.2975 30.4635 22.1029 29.8149 23.9839 29.8149H23.9947C26.9485 29.8149 28.8152 31.4316 28.9245 31.4906C28.9677 31.5338 29.0218 31.5662 29.065 31.6095L29.0758 31.6203C29.0974 31.6311 29.1191 31.6419 29.1299 31.6744C29.1407 31.6852 29.1515 31.6852 29.1623 31.6959C29.3345 31.8055 28.759 31.2848 39.011 40.8419C38.9677 40.8635 38.9353 40.8744 38.9028 40.8959C38.803 40.9626 38.2882 41.0473 38.0488 41.0473Z" fill="#5D013B"/>
<path d="M23.9969 14.5533C24.4446 14.5533 24.8077 14.1901 24.8077 13.7425V12.3362C24.8077 11.8886 24.4446 11.5254 23.9969 11.5254C23.5493 11.5254 23.1861 11.8886 23.1861 12.3362V13.7425C23.1861 14.1901 23.5493 14.5533 23.9969 14.5533ZM23.9973 25.8318C26.0767 25.8318 27.7623 24.1462 27.7623 22.0669C27.7623 19.9876 26.0767 18.302 23.9973 18.302C21.918 18.302 20.2324 19.9876 20.2324 22.0669C20.2324 24.1462 21.918 25.8318 23.9973 25.8318Z" fill="#5D013B"/>
</svg>
