<svg width="48" height="48" viewBox="0 0 48 48" fill="none" xmlns="http://www.w3.org/2000/svg">
<path d="M40.6176 38.1163H39.3177V25.1104C39.3648 25.1222 39.4118 25.134 39.453 25.1458C40.2707 25.3987 41.1059 24.7869 41.1059 23.9222V22.8693C41.1059 20.8752 39.4824 19.2516 37.4883 19.2516H33.0942V13.0105C33.0942 12.4928 32.6765 12.0752 32.1589 12.0752H30.8471V11.4163C31.8824 11.2105 32.6706 10.2928 32.6706 9.19279C32.6706 8.08105 31.0647 6.11633 30.7412 5.734C30.5765 5.53398 30.2354 5.53398 30.0647 5.734C29.7471 6.11633 28.1412 8.08105 28.1412 9.19279C28.1412 10.2928 28.9236 11.2105 29.9648 11.4163V12.0752H28.653C28.1353 12.0752 27.7177 12.4928 27.7177 13.0105V19.2516H20.2824V13.0105C20.2824 12.4928 19.8648 12.0752 19.3471 12.0752H18.0354V11.4163C19.0765 11.2105 19.8589 10.2928 19.8589 9.19279C19.8589 8.08105 18.253 6.11633 17.9353 5.734C17.7648 5.53398 17.4236 5.53398 17.2588 5.734C16.9353 6.11633 15.3294 8.08105 15.3294 9.19279C15.3294 10.2928 16.1177 11.2105 17.153 11.4163V12.0752H15.8413C15.3235 12.0752 14.9059 12.4928 14.9059 13.0105V19.2516H10.5118C8.51768 19.2516 6.89422 20.8752 6.89422 22.8693V23.9163C6.89422 24.7869 7.74124 25.3928 8.54712 25.1399C8.59415 25.1222 8.64126 25.1163 8.6824 25.1046V38.1163H7.38235C6.19999 38.1163 5.23535 39.0752 5.23535 40.2693C5.23535 41.4516 6.19999 42.4163 7.38235 42.4163H40.6176C41.8 42.4163 42.7648 41.4516 42.7648 40.2693C42.7648 39.081 41.8 38.1163 40.6176 38.1163ZM9.56475 24.934C12.8647 24.5693 14.7 26.8516 14.6412 26.8163C16.0001 28.1751 18.2765 28.2222 19.7059 26.7399C22.0177 24.2928 25.9235 24.2222 28.3295 26.7693C28.3413 26.7869 28.3589 26.7987 28.3706 26.8163C29.7824 28.2104 32.0589 28.181 33.4294 26.7399C34.7059 25.3928 36.5 24.734 38.3413 24.9222C38.3765 24.9281 38.4059 24.934 38.4353 24.9399V32.0516H9.56475V24.934ZM29.0236 9.19279C29.0236 8.69869 29.7471 7.56929 30.406 6.72223C31.0588 7.56929 31.7882 8.69869 31.7882 9.19279C31.7882 9.95752 31.1647 10.5752 30.406 10.5752C29.6412 10.5752 29.0236 9.95752 29.0236 9.19279ZM28.6 13.0105C28.6 12.981 28.6236 12.9575 28.653 12.9575H32.1589C32.1883 12.9575 32.2118 12.981 32.2118 13.0105V19.2516H28.6V13.0105ZM16.2118 9.19279C16.2118 8.69869 16.9412 7.56929 17.5942 6.72223C18.253 7.56929 18.9765 8.69869 18.9765 9.19279C18.9765 9.95752 18.3589 10.5752 17.5942 10.5752C16.8353 10.5752 16.2118 9.95752 16.2118 9.19279ZM15.7883 13.0105C15.7883 12.981 15.8118 12.9575 15.8413 12.9575H19.3471C19.3766 12.9575 19.4 12.981 19.4 13.0105V19.2516H15.7883V13.0105ZM40.6176 41.534H7.38235C6.68239 41.534 6.1177 40.9693 6.1177 40.2693C6.1177 39.5575 6.68828 38.9987 7.38235 38.9987H40.6176C41.3177 38.9987 41.8824 39.5693 41.8824 40.2693C41.8824 40.9693 41.3177 41.534 40.6176 41.534Z" fill="#5D013B"/>
<path d="M18.9767 9.19322C18.9767 9.95795 18.3591 10.5756 17.5943 10.5756C16.8355 10.5756 16.2119 9.95795 16.2119 9.19322C16.2119 8.69912 16.9413 7.56972 17.5943 6.72266C18.2531 7.56972 18.9767 8.69912 18.9767 9.19322ZM31.7884 9.19322C31.7884 9.95795 31.1649 10.5756 30.4061 10.5756C29.6414 10.5756 29.0237 9.95795 29.0237 9.19322C29.0237 8.69912 29.7472 7.56972 30.4061 6.72266C31.059 7.56972 31.7884 8.69912 31.7884 9.19322Z" fill="#5D013B"/>
</svg>
