<svg width="48" height="49" viewBox="0 0 48 49" fill="none" xmlns="http://www.w3.org/2000/svg">
<g clip-path="url(#clip0_2579_3539)">
<path d="M31.3096 7.40039L31.4355 7.40527C31.7278 7.42619 32.0115 7.51703 32.2617 7.67188C32.5477 7.84894 32.7791 8.10255 32.9297 8.40332C33.0802 8.70405 33.1448 9.04096 33.1152 9.37598C33.0858 9.70971 32.9642 10.0288 32.7646 10.2979L30.1865 13.7334L29.7754 14.2822L30.1387 14.8633L36.8398 25.5918V25.5928C37.3529 26.4161 37.625 27.3649 37.625 28.3379C37.625 29.4672 37.2586 30.5563 36.5967 31.4297L36.46 31.6016C36.4503 31.6131 36.4384 31.6233 36.4248 31.6309L36.3789 31.6465L16.3887 34.2607H16.3848C16.3797 34.2614 16.3742 34.2617 16.3691 34.2617C16.3535 34.2615 16.3377 34.2589 16.3232 34.2529C16.3083 34.2467 16.2946 34.237 16.2832 34.2256C16.2718 34.2141 16.263 34.2005 16.2568 34.1855C16.2507 34.1706 16.2471 34.1548 16.2471 34.1387V26.7969C16.2471 26.7838 16.2483 26.7725 16.252 26.7607L16.2529 26.7598C16.3731 26.368 16.5508 25.9754 16.7842 25.5938L16.7832 25.5928L23.4854 14.8633L23.8486 14.2822L23.4375 13.7334L20.8604 10.2988C20.6605 10.0297 20.5393 9.7099 20.5098 9.37598C20.4802 9.04101 20.5439 8.70405 20.6943 8.40332C20.8449 8.10259 21.0764 7.84997 21.3623 7.67285C21.6125 7.51786 21.8961 7.42626 22.1885 7.40527L22.3145 7.40039H31.3096Z" fill="#5D013B" stroke="#5D013B" stroke-width="2"/>
<path d="M11.6006 25.4023C11.6193 25.3986 11.6388 25.3994 11.6572 25.4043L24.3232 28.8135V28.8145C25.0079 29.0001 25.5963 29.44 25.9668 30.0449C26.3373 30.6499 26.4621 31.3741 26.3164 32.0684L26.002 33.5645L27.499 33.2529L37.9727 31.0674H37.9766C38.3412 30.99 38.7188 30.995 39.0811 31.083C39.4432 31.1711 39.781 31.34 40.0693 31.5762L40.0732 31.5791C40.4094 31.8514 40.6694 32.206 40.8281 32.6084C40.9868 33.011 41.0394 33.4484 40.9795 33.877C40.9196 34.3055 40.7493 34.7111 40.4863 35.0547C40.2233 35.3983 39.8756 35.6681 39.4775 35.8379L39.4766 35.8389L27.7959 40.8438C26.9403 41.2096 26.0194 41.398 25.0889 41.3975H25.0869C24.1796 41.3982 23.2812 41.2193 22.4434 40.8711H22.4443L11.5771 36.3447V36.3438C11.5544 36.3343 11.5352 36.3184 11.5215 36.2979C11.5078 36.2773 11.5 36.2532 11.5 36.2285V25.5254C11.5 25.5062 11.5042 25.4869 11.5127 25.4697C11.5212 25.4526 11.5337 25.4374 11.5488 25.4258C11.564 25.4142 11.5818 25.4061 11.6006 25.4023Z" fill="white" stroke="#5D013B" stroke-width="2"/>
<path d="M7.125 40.1504C6.97718 40.1507 6.83076 40.1218 6.69413 40.0654C6.55751 40.0089 6.43337 39.9261 6.32885 39.8215C6.22432 39.717 6.14147 39.5929 6.08503 39.4563C6.0286 39.3196 5.99971 39.1732 6 39.0254V22.1504C5.99961 21.9794 6.0383 21.8105 6.11311 21.6567C6.18792 21.5029 6.29688 21.3682 6.43167 21.263C6.56647 21.1577 6.72353 21.0846 6.89087 21.0493C7.05821 21.014 7.23141 21.0173 7.39725 21.0591L10.1929 21.7578C10.9233 21.9402 11.5718 22.3617 12.0351 22.9551C12.4985 23.5485 12.7501 24.2798 12.75 25.0326V36.1443C12.7508 36.8968 12.4996 37.628 12.0366 38.2213C11.5736 38.8146 10.9253 39.2359 10.1951 39.418H10.194L7.39725 40.1166C7.30822 40.139 7.21679 40.1503 7.125 40.1504ZM27.303 32.2709C27.0544 32.569 26.322 32.8525 25.6943 32.6534L20.1255 30.9209C19.9852 30.8747 19.8371 30.857 19.6899 30.8688C19.5426 30.8807 19.3993 30.922 19.2682 30.9901C19.1372 31.0582 19.0211 31.1519 18.9268 31.2656C18.8325 31.3793 18.762 31.5107 18.7193 31.6521C18.528 32.2484 18.8543 32.8784 19.4505 33.0584L25.0193 34.8021C25.3905 34.9146 25.773 34.9821 26.1555 34.9821C26.943 34.9821 27.7193 34.7234 28.3718 34.2396C29.1368 33.6771 29.6543 32.8784 29.8343 31.9671C29.8568 31.8884 29.868 31.8096 29.868 31.7309L27.303 32.2709ZM33 15.4004H20.625C20.3266 15.4004 20.0405 15.2819 19.8295 15.0709C19.6185 14.8599 19.5 14.5738 19.5 14.2754C19.5 13.977 19.6185 13.6909 19.8295 13.4799C20.0405 13.2689 20.3266 13.1504 20.625 13.1504H33C33.2984 13.1504 33.5845 13.2689 33.7955 13.4799C34.0065 13.6909 34.125 13.977 34.125 14.2754C34.125 14.5738 34.0065 14.8599 33.7955 15.0709C33.5845 15.2819 33.2984 15.4004 33 15.4004Z" fill="#5D013B"/>
</g>
<defs>
<clipPath id="clip0_2579_3539">
<rect width="36" height="36" fill="white" transform="translate(6 6.40039)"/>
</clipPath>
</defs>
</svg>
