<svg width="48" height="49" viewBox="0 0 48 49" fill="none" xmlns="http://www.w3.org/2000/svg">
<path d="M14 26.0508H27.75C28.0938 26.0508 28.375 25.7695 28.375 25.4258C28.375 25.082 28.0938 24.8008 27.75 24.8008H14C13.6562 24.8008 13.375 25.082 13.375 25.4258C13.375 25.7695 13.6562 26.0508 14 26.0508ZM23.375 28.5508H14C13.6562 28.5508 13.375 28.832 13.375 29.1758C13.375 29.5195 13.6562 29.8008 14 29.8008H23.375C23.7188 29.8008 24 29.5195 24 29.1758C24 28.832 23.7188 28.5508 23.375 28.5508ZM23.375 32.3008H14C13.6562 32.3008 13.375 32.582 13.375 32.9258C13.375 33.2695 13.6562 33.5508 14 33.5508H23.375C23.7188 33.5508 24 33.2695 24 32.9258C24 32.582 23.7188 32.3008 23.375 32.3008ZM23.375 36.0508H14C13.6562 36.0508 13.375 36.332 13.375 36.6758C13.375 37.0195 13.6562 37.3008 14 37.3008H23.375C23.7188 37.3008 24 37.0195 24 36.6758C24 36.332 23.7188 36.0508 23.375 36.0508Z" fill="#5D013B"/>
<path d="M40.1438 29.1695C37.4313 28.3258 35.4938 27.0945 34.5813 26.4383C34.4 26.307 34.2063 26.2133 34 26.1508V10.4258C34 9.39453 33.1562 8.55078 32.125 8.55078H31.5V7.92578C31.5 6.89453 30.6562 6.05078 29.625 6.05078H8.375C7.34375 6.05078 6.5 6.89453 6.5 7.92578V36.6758C6.5 37.707 7.34375 38.5508 8.375 38.5508H9V39.1758C9 40.207 9.84375 41.0508 10.875 41.0508H29.3187C30.4375 42.0633 31.55 42.8008 32.3063 43.257C32.6313 43.4508 33 43.5508 33.375 43.5508C33.75 43.5508 34.1188 43.4508 34.45 43.257C36.5688 41.982 41.5 38.4445 41.5 33.1508V30.9445C41.5 30.132 40.9563 29.4195 40.1438 29.1695ZM36.9437 33.3695L33.1937 37.1195C33.0687 37.2383 32.9125 37.3008 32.75 37.3008C32.5875 37.3008 32.4313 37.2383 32.3063 37.1195L30.7438 35.557C30.5 35.3133 30.5 34.9133 30.7438 34.6695C30.9875 34.4258 31.3875 34.4258 31.6312 34.6695L32.75 35.7945L36.0563 32.482C36.3 32.2383 36.7 32.2383 36.9437 32.482C37.1875 32.7258 37.1875 33.1258 36.9437 33.3695ZM10.875 39.8008C10.5312 39.8008 10.25 39.5195 10.25 39.1758V10.4258C10.25 10.082 10.5312 9.80078 10.875 9.80078H32.125C32.4688 9.80078 32.75 10.082 32.75 10.4258V26.1508C32.5437 26.2133 32.35 26.307 32.1687 26.4383C31.2562 27.0945 29.3187 28.3258 26.6062 29.1695C25.7937 29.4195 25.25 30.132 25.25 30.9445V33.1508C25.25 35.8445 26.525 38.082 28.0625 39.8008H10.875Z" fill="#5D013B"/>
<path d="M17.125 19.1758H19.625V21.6758C19.625 22.3633 20.1875 22.9258 20.875 22.9258H22.125C22.8125 22.9258 23.375 22.3633 23.375 21.6758V19.1758H25.875C26.5625 19.1758 27.125 18.6133 27.125 17.9258V16.6758C27.125 15.9883 26.5625 15.4258 25.875 15.4258H23.375V12.9258C23.375 12.2383 22.8125 11.6758 22.125 11.6758H20.875C20.1875 11.6758 19.625 12.2383 19.625 12.9258V15.4258H17.125C16.4375 15.4258 15.875 15.9883 15.875 16.6758V17.9258C15.875 18.6133 16.4375 19.1758 17.125 19.1758Z" fill="#5D013B"/>
</svg>
