<svg width="48" height="49" viewBox="0 0 48 49" fill="none" xmlns="http://www.w3.org/2000/svg">
<path d="M28.0769 43.0621H39.5231C40.2923 43.0621 41 42.7237 41.4616 42.1237C41.9385 41.5391 42.1231 40.7698 41.9539 40.0468C41.5284 38.1774 40.475 36.5104 38.9693 35.3237C38.4186 36.1919 37.6573 36.9067 36.7562 37.4016C35.8551 37.8966 34.8435 38.1555 33.8154 38.1544C32.7834 38.1539 31.768 37.8945 30.8623 37.3999C29.9565 36.9054 29.1892 36.1915 28.6308 35.3237C27.1692 36.4621 26.1077 38.1083 25.6616 40.0314C25.4923 40.7698 25.6616 41.5391 26.1385 42.1237C26.6154 42.7237 27.3231 43.0621 28.0769 43.0621ZM9.03079 35.3237C7.56925 36.4775 6.49233 38.1083 6.04617 40.0468C5.87694 40.7698 6.06156 41.5391 6.5231 42.1237C7.00002 42.7237 7.70771 43.0621 8.47694 43.0621H19.9231C20.6769 43.0621 21.3846 42.7237 21.8616 42.1237C22.3385 41.5391 22.5077 40.7698 22.3385 40.0468C21.9185 38.1832 20.8701 36.5209 19.3692 35.3391C18.8139 36.2016 18.0512 36.9113 17.1509 37.4031C16.2505 37.8949 15.2413 38.1532 14.2154 38.1544C13.1834 38.1539 12.168 37.8945 11.2623 37.3999C10.3565 36.9054 9.58925 36.1915 9.03079 35.3237ZM38.7385 21.1237V10.4314C38.7385 8.29291 37 6.53906 34.8462 6.53906H13.1539C11 6.53906 9.26156 8.29291 9.26156 10.4314V21.1237C9.26156 23.2775 11 25.016 13.1539 25.016H34.8462C37 25.016 38.7385 23.2775 38.7385 21.1237ZM28.3077 17.3083H19.7077C18.8616 17.3083 18.1692 16.616 18.1692 15.7698C18.1692 14.9237 18.8616 14.2314 19.7077 14.2314H28.3077C29.1539 14.2314 29.8462 14.9237 29.8462 15.7698C29.8462 16.616 29.1539 17.3083 28.3077 17.3083Z" fill="#5D013B"/>
<path d="M33.8003 35.8466C35.9244 35.8466 37.6464 34.1246 37.6464 32.0005C37.6464 29.8763 35.9244 28.1543 33.8003 28.1543C31.6761 28.1543 29.9541 29.8763 29.9541 32.0005C29.9541 34.1246 31.6761 35.8466 33.8003 35.8466Z" fill="#5D013B"/>
<path d="M14.1997 35.8466C16.3238 35.8466 18.0458 34.1246 18.0458 32.0005C18.0458 29.8763 16.3238 28.1543 14.1997 28.1543C12.0755 28.1543 10.3535 29.8763 10.3535 32.0005C10.3535 34.1246 12.0755 35.8466 14.1997 35.8466Z" fill="#5D013B"/>
</svg>
