<svg width="48" height="49" viewBox="0 0 48 49" fill="none" xmlns="http://www.w3.org/2000/svg">
<g clip-path="url(#clip0_2579_3528)">
<path d="M17.25 33.1992C16.7719 33.1992 16.4062 33.5648 16.4062 34.043V35.4492C16.4062 35.9273 16.7719 36.293 17.25 36.293C17.7281 36.293 18.0938 35.9273 18.0938 35.4492V34.043C18.0938 33.5648 17.7281 33.1992 17.25 33.1992ZM30.75 36.293C31.2281 36.293 31.5938 35.9273 31.5938 35.4492V34.043C31.5938 33.5648 31.2281 33.1992 30.75 33.1992C30.2719 33.1992 29.9062 33.5648 29.9062 34.043V35.4492C29.9062 35.9273 30.2719 36.293 30.75 36.293ZM17.25 27.8555C16.7719 27.8555 16.4062 28.2211 16.4062 28.6992V30.1055C16.4062 30.5836 16.7719 30.9492 17.25 30.9492C17.7281 30.9492 18.0938 30.5836 18.0938 30.1055V28.6992C18.0938 28.2211 17.7281 27.8555 17.25 27.8555ZM21.75 30.9492C22.2281 30.9492 22.5938 30.5836 22.5938 30.1055V28.6992C22.5938 28.2211 22.2281 27.8555 21.75 27.8555C21.2719 27.8555 20.9062 28.2211 20.9062 28.6992V30.1055C20.9062 30.5836 21.2719 30.9492 21.75 30.9492ZM26.25 30.9492C26.7281 30.9492 27.0938 30.5836 27.0938 30.1055V28.6992C27.0938 28.2211 26.7281 27.8555 26.25 27.8555C25.7719 27.8555 25.4062 28.2211 25.4062 28.6992V30.1055C25.4062 30.5836 25.7719 30.9492 26.25 30.9492ZM30.75 30.9492C31.2281 30.9492 31.5938 30.5836 31.5938 30.1055V28.6992C31.5938 28.2211 31.2281 27.8555 30.75 27.8555C30.2719 27.8555 29.9062 28.2211 29.9062 28.6992V30.1055C29.9062 30.5836 30.2719 30.9492 30.75 30.9492ZM17.25 22.5117C16.7719 22.5117 16.4062 22.8773 16.4062 23.3555V24.7617C16.4062 25.2398 16.7719 25.6055 17.25 25.6055C17.7281 25.6055 18.0938 25.2398 18.0938 24.7617V23.3555C18.0938 22.8773 17.7281 22.5117 17.25 22.5117ZM21.75 25.6055C22.2281 25.6055 22.5938 25.2398 22.5938 24.7617V23.3555C22.5938 22.8773 22.2281 22.5117 21.75 22.5117C21.2719 22.5117 20.9062 22.8773 20.9062 23.3555V24.7617C20.9062 25.2398 21.2719 25.6055 21.75 25.6055ZM26.25 25.6055C26.7281 25.6055 27.0938 25.2398 27.0938 24.7617V23.3555C27.0938 22.8773 26.7281 22.5117 26.25 22.5117C25.7719 22.5117 25.4062 22.8773 25.4062 23.3555V24.7617C25.4062 25.2398 25.7719 25.6055 26.25 25.6055ZM30.75 25.6055C31.2281 25.6055 31.5938 25.2398 31.5938 24.7617V23.3555C31.5938 22.8773 31.2281 22.5117 30.75 22.5117C30.2719 22.5117 29.9062 22.8773 29.9062 23.3555V24.7617C29.9062 25.2398 30.2719 25.6055 30.75 25.6055ZM17.25 17.168C16.7719 17.168 16.4062 17.5336 16.4062 18.0117V19.418C16.4062 19.8961 16.7719 20.2617 17.25 20.2617C17.7281 20.2617 18.0938 19.8961 18.0938 19.418V18.0117C18.0938 17.5336 17.7281 17.168 17.25 17.168ZM21.75 20.2617C22.2281 20.2617 22.5938 19.8961 22.5938 19.418V18.0117C22.5938 17.5336 22.2281 17.168 21.75 17.168C21.2719 17.168 20.9062 17.5336 20.9062 18.0117V19.418C20.9062 19.8961 21.2719 20.2617 21.75 20.2617ZM26.25 20.2617C26.7281 20.2617 27.0938 19.8961 27.0938 19.418V18.0117C27.0938 17.5336 26.7281 17.168 26.25 17.168C25.7719 17.168 25.4062 17.5336 25.4062 18.0117V19.418C25.4062 19.8961 25.7719 20.2617 26.25 20.2617ZM30.75 20.2617C31.2281 20.2617 31.5938 19.8961 31.5938 19.418V18.0117C31.5938 17.5336 31.2281 17.168 30.75 17.168C30.2719 17.168 29.9062 17.5336 29.9062 18.0117V19.418C29.9062 19.8961 30.2719 20.2617 30.75 20.2617Z" fill="#5D013B"/>
<path d="M7.125 41.918H21.75C22.2281 41.918 22.5938 41.5523 22.5938 41.0742V34.8867H25.4062V41.0742C25.4062 41.5523 25.7719 41.918 26.25 41.918H40.875C41.3531 41.918 41.7188 41.5523 41.7188 41.0742C41.7188 40.5961 41.3531 40.2305 40.875 40.2305H39.75V15.1992C39.75 14.7211 39.3844 14.3555 38.9062 14.3555H35.8125V11.2617C35.8125 10.7836 35.4469 10.418 34.9688 10.418H31.5938V7.32422C31.5938 6.84609 31.2281 6.48047 30.75 6.48047H17.25C16.7719 6.48047 16.4062 6.84609 16.4062 7.32422V10.418H13.0312C12.5531 10.418 12.1875 10.7836 12.1875 11.2617V14.3555H9.09375C8.61562 14.3555 8.25 14.7211 8.25 15.1992V40.2305H7.125C6.64687 40.2305 6.28125 40.5961 6.28125 41.0742C6.28125 41.5523 6.64687 41.918 7.125 41.918ZM13.875 12.1055H34.125V40.2305H27.0938V34.043C27.0938 33.5648 26.7281 33.1992 26.25 33.1992H21.75C21.2719 33.1992 20.9062 33.5648 20.9062 34.043V40.2305H13.875V12.1055Z" fill="#5D013B"/>
</g>
<defs>
<clipPath id="clip0_2579_3528">
<rect width="36" height="36" fill="white" transform="translate(6 6.19922)"/>
</clipPath>
</defs>
</svg>
