<svg width="48" height="49" viewBox="0 0 48 49" fill="none" xmlns="http://www.w3.org/2000/svg">
<path fill-rule="evenodd" clip-rule="evenodd" d="M7.56513 40.2767C8.18847 40.5701 39.8118 40.5701 40.4351 40.2767C41.0601 39.9817 41.3268 39.2367 41.0335 38.6117C38.7468 33.7667 32.0185 30.1184 24.0001 30.1184C15.9818 30.1184 9.25347 33.7667 6.9668 38.6117C6.67347 39.2367 6.94013 39.9817 7.56513 40.2767ZM32.3418 8.39173C33.7618 8.7734 34.9151 10.1017 35.4918 12.2101C36.1851 14.7434 36.1018 18.5017 35.0351 22.4867L34.7001 23.6917L39.9435 25.0967C40.6101 25.2751 41.2951 24.8784 41.4751 24.2117C43.3201 17.3267 39.2268 10.2384 32.3418 8.39173ZM24.9751 21.0851L32.2851 23.0434L32.6218 21.8351C33.5518 18.3567 33.6851 15.0801 33.0801 12.8701C32.7901 11.8101 32.4068 10.9984 31.6935 10.8067C30.9801 10.6167 30.2418 11.1284 29.4618 11.9001C27.8318 13.5134 26.3085 16.4201 25.3751 19.8984C25.3685 19.9251 25.3601 19.9517 25.3518 19.9767L24.9751 21.0851ZM22.5551 20.4367C22.7968 19.7301 22.9701 19.2184 22.9685 19.2217C24.0368 15.2501 25.8418 11.9651 27.7035 10.1234C29.2585 8.58506 30.9201 8.01173 32.3418 8.39173C25.4568 6.54673 18.3668 10.6401 16.5218 17.5251C16.3435 18.1934 16.7385 18.8784 17.4051 19.0567L22.5551 20.4367ZM12.0701 31.3567C15.3468 29.5584 19.4751 28.4517 24.0001 28.4517C24.0768 28.4517 24.1518 28.4517 24.2285 28.4517C23.5468 25.7401 21.0901 23.7284 18.1668 23.7284C14.7168 23.7284 11.9168 26.5301 11.9168 29.9784C11.9168 30.4517 11.9701 30.9134 12.0701 31.3567Z" fill="#5D013B"/>
<path fill-rule="evenodd" clip-rule="evenodd" d="M25.6582 28.5C26.5149 28.5517 27.3549 28.6417 28.1732 28.77L30.2049 21.19C30.3832 20.525 29.9882 19.8383 29.3215 19.66C28.6549 19.4817 27.9682 19.8767 27.7899 20.5433L25.6582 28.5Z" fill="#5D013B"/>
</svg>
