<svg width="48" height="49" viewBox="0 0 48 49" fill="none" xmlns="http://www.w3.org/2000/svg">
<path d="M39.1804 11.8008H35.8004V8.40078C35.8004 8.06878 35.5324 7.80078 35.2004 7.80078H26.4244C25.4324 7.80078 24.5524 8.28478 24.0004 9.02478C23.4484 8.28478 22.5684 7.80078 21.5764 7.80078H12.8004C12.4684 7.80078 12.2004 8.06878 12.2004 8.40078V11.8008H8.82039C8.03639 11.8008 7.40039 12.4368 7.40039 13.2208V30.0008V33.9808C7.40039 34.7648 8.03639 35.4008 8.82039 35.4008H20.2004V39.8008H17.6004C17.2684 39.8008 17.0004 40.0688 17.0004 40.4008C17.0004 40.7328 17.2684 41.0008 17.6004 41.0008H20.8004H27.2004H30.4004C30.7324 41.0008 31.0004 40.7328 31.0004 40.4008C31.0004 40.0688 30.7324 39.8008 30.4004 39.8008H27.8004V35.4008H39.1804C39.9644 35.4008 40.6004 34.7648 40.6004 33.9808V30.0008V13.2208C40.6004 12.4368 39.9644 11.8008 39.1804 11.8008ZM26.4244 9.00078H34.6004V24.6008H27.5324C26.7284 24.6008 25.9684 24.8848 25.3644 25.4008H24.6004V10.8248C24.6004 9.82078 25.4204 9.00078 26.4244 9.00078ZM13.4004 9.00078H21.5764C22.5804 9.00078 23.4004 9.82078 23.4004 10.8248V25.4008H22.6364C22.0324 24.8848 21.2724 24.6008 20.4684 24.6008H13.4004V9.00078ZM8.82039 13.0008H12.2004V25.2008C12.2004 25.5328 12.4684 25.8008 12.8004 25.8008H20.4684C21.0364 25.8008 21.5724 26.0208 21.9764 26.4248C22.0884 26.5368 22.2404 26.6008 22.4004 26.6008H24.0004H25.6004C25.7604 26.6008 25.9124 26.5368 26.0244 26.4248C26.4284 26.0208 26.9604 25.8008 27.5324 25.8008H35.2004C35.5324 25.8008 35.8004 25.5328 35.8004 25.2008V13.0008H39.1804C39.3004 13.0008 39.4004 13.1008 39.4004 13.2208V29.4008H8.60039V13.2208C8.60039 13.1008 8.70039 13.0008 8.82039 13.0008ZM15.4004 12.4008C15.4004 12.0688 15.6684 11.8008 16.0004 11.8008H20.8004C21.1324 11.8008 21.4004 12.0688 21.4004 12.4008C21.4004 12.7328 21.1324 13.0008 20.8004 13.0008H16.0004C15.6684 13.0008 15.4004 12.7328 15.4004 12.4008ZM15.4004 16.4008C15.4004 16.0688 15.6684 15.8008 16.0004 15.8008H20.8004C21.1324 15.8008 21.4004 16.0688 21.4004 16.4008C21.4004 16.7328 21.1324 17.0008 20.8004 17.0008H16.0004C15.6684 17.0008 15.4004 16.7328 15.4004 16.4008ZM15.4004 20.4008C15.4004 20.0688 15.6684 19.8008 16.0004 19.8008H20.8004C21.1324 19.8008 21.4004 20.0688 21.4004 20.4008C21.4004 20.7328 21.1324 21.0008 20.8004 21.0008H16.0004C15.6684 21.0008 15.4004 20.7328 15.4004 20.4008ZM26.6004 12.4008C26.6004 12.0688 26.8684 11.8008 27.2004 11.8008H32.0004C32.3324 11.8008 32.6004 12.0688 32.6004 12.4008C32.6004 12.7328 32.3324 13.0008 32.0004 13.0008H27.2004C26.8684 13.0008 26.6004 12.7328 26.6004 12.4008ZM26.6004 16.4008C26.6004 16.0688 26.8684 15.8008 27.2004 15.8008H32.0004C32.3324 15.8008 32.6004 16.0688 32.6004 16.4008C32.6004 16.7328 32.3324 17.0008 32.0004 17.0008H27.2004C26.8684 17.0008 26.6004 16.7328 26.6004 16.4008ZM26.6004 20.4008C26.6004 20.0688 26.8684 19.8008 27.2004 19.8008H32.0004C32.3324 19.8008 32.6004 20.0688 32.6004 20.4008C32.6004 20.7328 32.3324 21.0008 32.0004 21.0008H27.2004C26.8684 21.0008 26.6004 20.7328 26.6004 20.4008Z" fill="#5D013B"/>
</svg>
