<svg width="61" height="61" viewBox="0 0 61 61" fill="none" xmlns="http://www.w3.org/2000/svg">
<path d="M15.1846 21.6314C16.2648 15.9554 20.2248 12.4395 25.8527 12.4395C31.3605 12.4395 35.2488 15.7874 36.4365 21.2354C34.2648 21.0675 31.6846 18.7515 31.6605 18.7274C31.2047 18.3074 30.4966 18.2955 30.0407 18.7034C29.9566 18.7754 22.9605 24.8834 15.1846 21.6314Z" fill="#CF035B"/>
<path d="M36.8321 24.9667C36.8321 33.2466 31.912 39.9787 25.8523 39.9787C19.8042 39.9787 14.8721 33.2466 14.8721 24.9667C14.8721 24.6667 14.8841 24.3787 14.8961 24.0906C16.6122 24.7387 18.2922 24.9906 19.8763 24.9906C24.9402 24.9906 29.1162 22.3866 30.8081 21.1387C32.0201 22.0746 34.4081 23.6586 36.7841 23.6466C36.8201 24.0787 36.8321 24.5107 36.8321 24.9667Z" fill="#CF035B"/>
<path d="M37.2287 45.8349C37.1326 46.4349 36.7725 46.975 36.2566 47.311L31.2407 51.283C30.6999 51.7038 29.9078 51.5976 29.4887 50.995L25.8527 45.451L22.2887 50.983C21.908 51.5915 21.0795 51.705 20.5365 51.283L15.4246 47.251C14.4757 46.6273 14.1913 45.1458 14.9686 44.143L18.1725 39.9909C18.5686 39.475 19.3124 39.367 19.8407 39.7629C21.8686 41.275 23.8845 42.055 25.8407 42.055H26.0446C27.9166 42.0069 29.8605 41.2629 31.8046 39.811C32.0215 39.6483 32.4307 39.4813 32.8248 39.5469C33.1248 39.571 33.4125 39.739 33.6046 39.9909L36.8085 44.155C37.1806 44.623 37.3365 45.2349 37.2287 45.8349ZM21.2806 53.9349C21.6046 53.9349 21.9287 53.887 22.2407 53.815L20.7767 58.999H2.80059C2.14067 58.999 1.60059 58.471 1.60059 57.799V53.419C1.60059 50.995 3.02866 48.811 5.24863 47.863L12.1606 44.875C12.1006 45.319 12.1126 45.787 12.1845 46.243C12.3887 47.443 13.0486 48.511 13.9965 49.183L19.0605 53.179C19.6965 53.671 20.4767 53.9349 21.2806 53.9349Z" fill="#CF035B"/>
<path d="M24.952 53.0584C25.0481 52.7225 24.988 52.3384 24.7718 52.0505L24.6039 51.8104L25.876 49.8544L27.1117 51.7385L26.8838 52.0505C26.6559 52.3505 26.5838 52.7464 26.6919 53.1184L28.5159 58.9984H23.2598L24.952 53.0584ZM50.176 53.4184V57.7984C50.176 58.4704 49.6357 58.9984 48.976 58.9984H31.024L29.4039 53.7544C29.752 53.8744 30.124 53.9344 30.5078 53.9344C31.3 53.9344 32.0799 53.6704 32.7279 53.1664L37.6718 49.2424C38.7039 48.5344 39.4 47.4424 39.5919 46.2544C39.676 45.7984 39.688 45.3304 39.6279 44.8864L46.5279 47.8624C48.7481 48.8104 50.176 50.9945 50.176 53.4184ZM56.3919 1.39844H39.9159C38.3679 1.39844 37.1078 2.65843 37.1078 4.2064V15.7024C37.1078 17.2505 38.3799 18.5105 39.9279 18.5105H40.0598V23.5744C40.0598 24.0304 40.3357 24.4624 40.7559 24.6544C40.9117 24.7385 41.0919 24.7744 41.2598 24.7744C41.5357 24.7744 41.8117 24.6785 42.0279 24.4864L49.1919 18.5105H56.3919C57.9399 18.5105 59.2 17.2505 59.2 15.7024V4.21841C59.2 2.67044 57.9399 1.39844 56.3919 1.39844ZM44.415 10.854H42.9092C42.2459 10.854 41.7092 10.3167 41.7092 9.65401C41.7092 8.99131 42.2459 8.45401 42.9092 8.45401H44.415C45.0783 8.45401 45.615 8.99131 45.615 9.65401C45.615 10.3167 45.0783 10.854 44.415 10.854ZM48.9104 10.854H47.4045C46.7412 10.854 46.2045 10.3167 46.2045 9.65401C46.2045 8.99131 46.7412 8.45401 47.4045 8.45401H48.9104C49.5736 8.45401 50.1104 8.99131 50.1104 9.65401C50.1104 10.3167 49.5736 10.854 48.9104 10.854ZM53.4057 10.854H51.8986C51.2354 10.854 50.6986 10.3167 50.6986 9.65401C50.6986 8.99131 51.2354 8.45401 51.8986 8.45401H53.4057C54.069 8.45401 54.6057 8.99131 54.6057 9.65401C54.6057 10.3167 54.069 10.854 53.4057 10.854Z" fill="#CF035B"/>
</svg>
