<svg width="60" height="61" viewBox="0 0 60 61" fill="none" xmlns="http://www.w3.org/2000/svg">
<path d="M58.8002 31.0628V34.3867C58.8002 35.7068 57.7322 36.7867 56.4002 36.7867H3.6002C2.28022 36.7867 1.2002 35.7068 1.2002 34.3867V31.0628C1.2002 29.7427 2.28022 28.6628 3.6002 28.6628H56.4002C57.7322 28.6628 58.8002 29.7427 58.8002 31.0628ZM53.0521 39.1867V56.5628C53.0521 57.2228 52.5122 57.7628 51.8521 57.7628H8.16025C7.48818 57.7628 6.96025 57.2228 6.96025 56.5628V39.1867H53.0521ZM36.9723 9.1027C36.9723 5.23874 39.5642 2.63477 43.4281 2.63477C47.2922 2.63477 49.8843 5.23874 49.8843 9.1027C49.8843 13.3147 46.9922 16.7348 43.4281 16.7348C39.8642 16.7348 36.9723 13.3147 36.9723 9.1027ZM28.5723 24.6188V26.2628H4.57227V24.6188C4.57227 21.4867 7.11611 18.9427 10.2482 18.9427H22.8843C26.0161 18.9427 28.5723 21.4867 28.5723 24.6188ZM55.4401 24.6188V26.2628H31.4401V24.6188C31.4401 21.4867 33.9963 18.9427 37.1281 18.9427H49.7642C52.8963 18.9427 55.4401 21.4867 55.4401 24.6188ZM10.0922 9.1027C10.0922 5.23874 12.6843 2.63477 16.5482 2.63477C20.4122 2.63477 23.0161 5.23874 23.0161 9.1027C23.0161 13.3147 20.1122 16.7348 16.5482 16.7348C12.9963 16.7348 10.0922 13.3147 10.0922 9.1027Z" fill="#CF035B"/>
</svg>
