<svg width="61" height="61" viewBox="0 0 61 61" fill="none" xmlns="http://www.w3.org/2000/svg">
<path d="M23.1006 15.3207C24.1482 15.3207 25.0342 13.9977 25.0342 12.4309C25.0342 10.6473 23.983 10.2734 23.1006 10.2734C22.2182 10.2734 21.167 10.6473 21.167 12.4309C21.167 13.9977 22.0529 15.3207 23.1006 15.3207Z" fill="#CF035B"/>
<path d="M47.1722 1.39844H14.0283C10.7163 1.39844 8.02832 4.09844 8.02832 7.39844V52.9984C8.02832 56.3104 10.7163 58.9984 14.0283 58.9984H47.1722C50.4722 58.9984 53.1722 56.3104 53.1722 52.9984V7.39844C53.1722 4.09844 50.4722 1.39844 47.1722 1.39844ZM23.0998 7.87246C25.692 7.87246 27.4334 9.70411 27.4334 12.4299C27.4334 15.3467 25.4893 17.7197 23.0998 17.7197C20.7104 17.7197 18.7662 15.3467 18.7662 12.4299C18.7662 9.70411 20.5076 7.87246 23.0998 7.87246ZM14.2838 24.2564C14.2838 23.1736 14.906 22.1928 15.8787 21.7287C20.6904 18.6807 25.6229 18.6842 30.3268 21.7322C31.2959 22.1975 31.9158 23.176 31.9158 24.2564V26.3752C31.9158 27.4252 31.0615 28.2795 30.0115 28.2795H16.1893C15.1381 28.2795 14.2838 27.4252 14.2838 26.3752V24.2564ZM30.4662 52.5326H15.7275C15.0643 52.5326 14.5275 51.9959 14.5275 51.3326C14.5275 50.6693 15.0643 50.1326 15.7275 50.1326H30.4662C31.1295 50.1326 31.6662 50.6693 31.6662 51.3326C31.6662 51.9959 31.1295 52.5326 30.4662 52.5326ZM45.2049 46.433H15.7275C15.0643 46.433 14.5275 45.8963 14.5275 45.233C14.5275 44.5697 15.0643 44.033 15.7275 44.033H45.2049C45.8682 44.033 46.4049 44.5697 46.4049 45.233C46.4049 45.8963 45.8682 46.433 45.2049 46.433ZM45.2049 40.3322H15.7275C15.0643 40.3322 14.5275 39.7955 14.5275 39.1322C14.5275 38.4689 15.0643 37.9322 15.7275 37.9322H45.2049C45.8682 37.9322 46.4049 38.4689 46.4049 39.1322C46.4049 39.7955 45.8682 40.3322 45.2049 40.3322ZM45.2049 34.2326H15.7275C15.0643 34.2326 14.5275 33.6959 14.5275 33.0326C14.5275 32.3693 15.0643 31.8326 15.7275 31.8326H45.2049C45.8682 31.8326 46.4049 32.3693 46.4049 33.0326C46.4049 33.6959 45.8682 34.2326 45.2049 34.2326ZM45.7088 28.0322H37.2326C36.5693 28.0322 36.0326 27.4955 36.0326 26.8322C36.0326 26.1689 36.5693 25.6322 37.2326 25.6322H45.7088C46.3721 25.6322 46.9088 26.1689 46.9088 26.8322C46.9088 27.4955 46.3721 28.0322 45.7088 28.0322ZM46.2174 21.833H37.74C37.0768 21.833 36.54 21.2963 36.54 20.633C36.54 19.9697 37.0768 19.433 37.74 19.433H46.2174C46.8807 19.433 47.4174 19.9697 47.4174 20.633C47.4174 21.2963 46.8807 21.833 46.2174 21.833Z" fill="#CF035B"/>
<path d="M29.5166 24.2575C29.5166 24.097 29.4205 23.9528 29.2728 23.8896C29.2096 23.8614 29.1475 23.8286 29.09 23.7911C25.1221 21.1919 21.1647 21.1954 17.1006 23.797C17.0455 23.8321 16.9881 23.8638 16.9283 23.8896C16.7807 23.9528 16.6846 24.097 16.6846 24.2575V25.8806H29.5166V24.2575Z" fill="#CF035B"/>
</svg>
