<svg width="51" height="51" viewBox="0 0 51 51" fill="none" xmlns="http://www.w3.org/2000/svg">
<path d="M32.0002 12.0292C32.0002 19.1792 27.7803 24.9992 22.6003 24.9992C17.4203 24.9992 13.2002 19.1792 13.2002 12.0292C13.2002 5.44922 16.8903 1.19922 22.6003 1.19922C28.3103 1.19922 32.0002 5.44922 32.0002 12.0292ZM27.7502 49.1992H4.10035C2.50025 49.1992 1.2002 47.8292 1.2002 46.1392V39.9392C1.2002 37.6692 2.4502 35.6292 4.38025 34.7192C12.1902 31.0792 13.5102 30.3092 15.7502 29.6392C19.5803 28.5292 23.4402 28.4292 26.7302 28.9792V46.1992C26.7302 47.3292 27.1003 48.3692 27.7502 49.1992Z" fill="#CF035B"/>
<path d="M46.2004 21.1895H31.7305C30.0806 21.1895 28.7305 22.5394 28.7305 24.1895V46.1995C28.7305 47.8495 30.0806 49.1995 31.7305 49.1995H46.2004C47.8606 49.1995 49.2004 47.8495 49.2004 46.1995V24.1895C49.2004 22.5394 47.8606 21.1895 46.2004 21.1895ZM43.5781 41.1196H34.3574C33.8047 41.1196 33.3574 40.6724 33.3574 40.1196C33.3574 39.5669 33.8047 39.1196 34.3574 39.1196H43.5781C44.1309 39.1196 44.5781 39.5669 44.5781 40.1196C44.5781 40.6724 44.1309 41.1196 43.5781 41.1196ZM43.5781 36.1938H34.3574C33.8047 36.1938 33.3574 35.7466 33.3574 35.1938C33.3574 34.6411 33.8047 34.1938 34.3574 34.1938H43.5781C44.1309 34.1938 44.5781 34.6411 44.5781 35.1938C44.5781 35.7466 44.1309 36.1938 43.5781 36.1938ZM43.8086 31.2681H34.3574C33.8047 31.2681 33.3574 30.8208 33.3574 30.2681C33.3574 29.7153 33.8047 29.2681 34.3574 29.2681H43.8086C44.3613 29.2681 44.8086 29.7153 44.8086 30.2681C44.8086 30.8208 44.3613 31.2681 43.8086 31.2681Z" fill="#CF035B"/>
</svg>
