<svg width="61" height="61" viewBox="0 0 61 61" fill="none" xmlns="http://www.w3.org/2000/svg">
<path d="M43.0397 45.9852C34.7836 41.7613 26.7076 41.7972 18.6316 45.9493C17.8755 46.2852 17.4316 46.9572 17.4316 47.7012V56.0893H44.1797V47.7012C44.1797 46.9572 43.7355 46.2852 43.0397 45.9852ZM30.7819 24.1953C27.7784 24.1953 25.9854 26.1523 25.9854 29.4307C25.9854 33.0916 28.137 36.0699 30.7819 36.0699C33.4257 36.0699 35.5772 33.0916 35.5772 29.4307C35.5772 26.1523 33.7843 24.1953 30.7819 24.1953Z" fill="white"/>
<path d="M56 12.8406H35.324C35.924 11.9646 36.2721 10.9086 36.2721 9.76858C36.2721 6.75657 33.8123 4.30859 30.8 4.30859C27.7883 4.30859 25.3402 6.75657 25.3402 9.76858C25.3402 10.9086 25.6883 11.9646 26.276 12.8406H5.6C3.62012 12.8406 2 14.4606 2 16.4406V52.4886C2 54.4686 3.62012 56.0886 5.6 56.0886H15.0321V47.7006C15.0321 45.9966 16.0402 44.4606 17.6123 43.7766C26.2162 39.3366 35.2643 39.3006 44.0721 43.8126C45.5601 44.4606 46.5802 45.9966 46.5802 47.7006V56.0886H56C57.9922 56.0886 59.6 54.4686 59.6 52.4886V16.4406C59.6 14.4606 57.9922 12.8406 56 12.8406ZM30.8 6.70861C32.4922 6.70861 33.8721 8.07662 33.8721 9.76859C33.8721 11.4606 32.4922 12.8406 30.8 12.8406C29.948 12.8406 29.1922 12.4926 28.6402 11.9406C28.076 11.3766 27.7402 10.6086 27.7402 9.76859C27.7402 8.07662 29.1081 6.70861 30.8 6.70861ZM30.7824 38.4693C26.8145 38.4693 23.5859 34.414 23.5859 29.43C23.5859 24.7917 26.4102 21.7947 30.7824 21.7947C35.1535 21.7947 37.9777 24.7917 37.9777 29.43C37.9777 34.414 34.7504 38.4693 30.7824 38.4693Z" fill="white"/>
</svg>
