<svg width="40" height="40" viewBox="0 0 40 40" fill="none" xmlns="http://www.w3.org/2000/svg">
<rect width="40" height="40" rx="20" fill="#F2F2F2"/>
<path d="M19.4656 14.6928L21.3219 12.8366C22.1078 12.1203 23.1395 11.7343 24.2026 11.7589C25.2657 11.7835 26.2784 12.2168 27.0303 12.9687C27.7822 13.7207 28.2155 14.7334 28.2401 15.7965C28.2648 16.8596 27.8788 17.8913 27.1625 18.6772L24.5094 21.321C24.127 21.7048 23.6726 22.0093 23.1723 22.2171C22.6719 22.4249 22.1355 22.5318 21.5937 22.5318C21.052 22.5318 20.5155 22.4249 20.0152 22.2171C19.5149 22.0093 19.0605 21.7048 18.6781 21.321" stroke="#888888" stroke-width="1.5" stroke-linecap="round" stroke-linejoin="round"/>
<path d="M20.5343 25.3078L18.6781 27.164C17.8922 27.8803 16.8604 28.2663 15.7974 28.2417C14.7343 28.2171 13.7215 27.7838 12.9696 27.0319C12.2177 26.2799 11.7844 25.2672 11.7598 24.2041C11.7352 23.141 12.1211 22.1093 12.8374 21.3234L15.4906 18.6796C15.8729 18.2958 16.3273 17.9913 16.8277 17.7835C17.328 17.5757 17.8644 17.4688 18.4062 17.4688C18.948 17.4688 19.4844 17.5757 19.9847 17.7835C20.4851 17.9913 20.9394 18.2958 21.3218 18.6796" stroke="#888888" stroke-width="1.5" stroke-linecap="round" stroke-linejoin="round"/>
</svg>
