<svg width="80" height="40" viewBox="0 0 80 40" fill="none" xmlns="http://www.w3.org/2000/svg">
<rect x="0.5" y="0.5" width="79" height="39" rx="7.5" fill="white"/>
<rect x="0.5" y="0.5" width="79" height="39" rx="7.5" stroke="#EBEBEB"/>
<path d="M29.8889 23.8889H31.4444C32.3036 23.8889 33 23.1924 33 22.3333V19.2222C33 18.3631 32.3036 17.6667 31.4444 17.6667H20.5556C19.6964 17.6667 19 18.3631 19 19.2222V22.3333C19 23.1924 19.6964 23.8889 20.5556 23.8889H22.1111M23.6667 27H28.3333C29.1924 27 29.8889 26.3036 29.8889 25.4444V22.3333C29.8889 21.4742 29.1924 20.7778 28.3333 20.7778H23.6667C22.8076 20.7778 22.1111 21.4742 22.1111 22.3333V25.4444C22.1111 26.3036 22.8076 27 23.6667 27ZM29.8889 17.6667V14.5556C29.8889 13.6964 29.1924 13 28.3333 13H23.6667C22.8076 13 22.1111 13.6964 22.1111 14.5556V17.6667H29.8889Z" stroke="black" stroke-width="1.6" stroke-linecap="round" stroke-linejoin="round"/>
<path d="M54.7051 13.8711V22.7988H53.1738V13.8711H54.7051ZM55.0469 24.7402V25.9707H46.5293V21.8965H48.0605V24.7402H55.0469ZM47.9648 14.6777C49.8379 14.6777 51.2871 15.9766 51.2871 17.7676C51.2871 19.5996 49.8379 20.8711 47.9648 20.8711C46.0781 20.8711 44.6289 19.5996 44.6289 17.7676C44.6289 15.9766 46.0781 14.6777 47.9648 14.6777ZM47.9648 16.0039C46.9121 16.0039 46.1055 16.7012 46.1191 17.7676C46.1055 18.8613 46.9121 19.5449 47.9648 19.5449C48.9902 19.5449 49.7969 18.8613 49.7969 17.7676C49.7969 16.7012 48.9902 16.0039 47.9648 16.0039ZM60.3926 19.9961V22.252C61.1924 22.2041 61.9785 22.1357 62.6758 22.0332L62.7578 23.1543C60.7344 23.5645 58.1504 23.6055 56.5645 23.6055L56.3457 22.3477C57.0635 22.3477 57.9658 22.3408 58.9297 22.3066V19.9961H60.3926ZM67.1465 13.8574V26.2168H65.7109V20.0645H64.5488V25.6152H63.127V14.0898H64.5488V18.8066H65.7109V13.8574H67.1465ZM60.4199 15.8535C60.4062 17.1797 61.1992 18.4648 62.8125 19.0254L62.0469 20.1738C60.9053 19.75 60.1191 18.9639 59.6816 17.9727C59.2305 19.0801 58.4033 19.9619 57.1523 20.4336L56.3867 19.2852C58.0684 18.6699 58.9023 17.3164 58.9023 15.8535V14.8281H60.4199V15.8535Z" fill="black"/>
</svg>
