<svg width="160" height="160" viewBox="0 0 160 160" fill="none" xmlns="http://www.w3.org/2000/svg">
<path d="M81.1719 88.3398H124.054C125.136 88.3398 126.003 89.2061 126.003 90.289L124.92 98.0855C124.92 99.1683 124.054 100.035 122.971 100.035H102.396" stroke="white" stroke-width="3" stroke-linecap="round" stroke-linejoin="round"/>
<path d="M97.4136 107.398H122.536C123.836 107.398 124.918 108.481 124.918 109.781L123.836 127.973C123.836 129.272 122.753 130.355 121.453 130.355H80.7373C79.4379 130.355 78.355 129.272 78.355 127.973L77.9219 118.877" stroke="white" stroke-width="3" stroke-linecap="round" stroke-linejoin="round"/>
<path d="M102.828 100.035H122.32V107.399" stroke="white" stroke-width="3" stroke-linecap="round" stroke-linejoin="round"/>
<path d="M86.1504 97.2177C67.7416 93.3194 55.83 75.1276 59.7283 56.7191C60.5946 52.8209 62.1106 49.1392 64.0598 45.8906C49.5493 47.19 36.7714 57.802 33.7394 72.9619C29.8411 91.3703 41.7527 109.562 60.1615 113.46C74.6719 116.492 88.9658 109.779 96.3294 97.8674C93.0808 98.084 89.6156 97.8674 86.1504 97.2177Z" stroke="white" stroke-width="3" stroke-linecap="round" stroke-linejoin="round"/>
<path d="M100.227 51.5234C100.227 58.8868 94.3791 64.7342 87.0156 64.7342C94.3791 64.7342 100.227 70.5816 100.227 77.945C100.227 70.5816 106.074 64.7342 113.438 64.7342C106.074 64.7342 100.227 58.8868 100.227 51.5234Z" stroke="white" stroke-width="3" stroke-linecap="round" stroke-linejoin="round"/>
<path d="M85.9324 29C85.9324 34.8474 81.1678 39.6119 75.3203 39.6119C81.1678 39.6119 85.9324 44.3765 85.9324 50.2238C85.9324 44.3765 90.6971 39.6119 96.5446 39.6119C90.6971 39.6119 85.9324 34.8474 85.9324 29Z" stroke="white" stroke-width="3" stroke-linecap="round" stroke-linejoin="round"/>
<path d="M121.016 48.707V58.8858" stroke="white" stroke-width="3" stroke-linecap="round" stroke-linejoin="round"/>
<path d="M115.82 53.6914H125.999" stroke="white" stroke-width="3" stroke-linecap="round" stroke-linejoin="round"/>
</svg>
