<svg width="160" height="160" viewBox="0 0 160 160" fill="none" xmlns="http://www.w3.org/2000/svg">
<g clip-path="url(#clip0_2574_14692)">
<path d="M9.625 75.5917C9.625 75.5917 21.0908 78.5295 24.7002 75.5917C28.3002 72.654 43.7036 54.7289 45.6723 54.0761C47.6411 53.4232 86.9605 36.4775 87.9449 38.7531C88.9293 41.038 79.7509 50.1591 51.8974 54.7289" stroke="white" stroke-width="2.2" stroke-miterlimit="10"/>
<path d="M7 95.1463C7 95.1463 37.4692 95.1463 44.6786 88.9538C51.8881 82.7612 63.4849 72.6422 76.1324 65.8061C83.9793 61.572 81.0446 59.399 81.0446 57.7109" stroke="white" stroke-width="2.2" stroke-miterlimit="10"/>
<path d="M58.7696 65.1628C58.7696 65.1628 82.5076 58.3174 88.0011 55.0625C93.4952 51.8077 89.1451 49.0098 82.3572 51.1548C74.4727 53.6356 61.7135 59.9588 54.5039 60.2852" stroke="white" stroke-width="2.2" stroke-miterlimit="10"/>
<path d="M85.2539 42.8632C85.2539 42.8632 95.4162 38.5917 92.5196 44.2994C89.6225 50.0071 87.0348 50.3988 87.0348 50.3988" stroke="white" stroke-width="2.2" stroke-miterlimit="10"/>
<path d="M51.0469 51.8845C51.0469 51.8845 54.5157 47.0722 57.8814 40.7956C58.6783 39.3128 61.0595 43.9292 60.7408 47.9022" stroke="white" stroke-width="2.2" stroke-miterlimit="10"/>
<path d="M105.955 50.3923C105.955 50.3923 97.2736 70.8634 95.4736 72.654C93.6737 74.4447 62.8671 93.8433 62.8671 93.8433C62.8671 93.8433 55.2263 95.2329 45.6637 93.8433C36.1011 92.4538 48.6169 118.129 64.0106 120.572C79.4049 123.016 88.7516 119.267 98.4176 114.212C108.084 109.157 118.893 115.191 123.646 107.525C128.399 99.868 128.23 98.2547 129.384 85.86C130.536 73.4654 147.074 65.1557 147.074 65.1557C147.074 65.1557 156.412 58.646 134.296 51.8752C112.18 45.1043 104.971 44.265 105.955 50.3923Z" stroke="white" stroke-width="2.2" stroke-miterlimit="10"/>
<path d="M147.31 64.9886C147.31 64.9886 120.543 73.121 105.965 50.4023" stroke="white" stroke-width="2.2" stroke-miterlimit="10"/>
<path d="M128.129 39.6289C128.129 39.6289 108.685 66.3579 102.788 71.7951C96.8907 77.2323 68.9246 97.6567 66.3091 98.0859C63.6838 98.5238 45.5525 96.5658 46.2088 98.0859C46.8651 99.6061 46.1713 102.646 48.8151 103.523C48.8151 103.523 48.2057 105.91 50.5026 107.132C52.7995 108.354 51.8995 111.04 54.5151 110.471C57.1402 109.902 54.3558 114.547 58.7715 115.358C63.187 116.169 66.1402 116.421 68.9246 117.643C71.7089 118.865 78.7594 118.865 80.5594 117.643C82.3593 116.421 96.4499 108.839 99.0752 109.09C101.7 109.342 118.979 110.882 121.032 104.036C123.085 97.1907 119.888 91.3988 128.897 79.0976C137.907 66.7962 152.326 54.5695 152.326 54.5695" stroke="white" stroke-width="2.2" stroke-miterlimit="10"/>
<path d="M120.788 84.3125C120.788 84.3125 112.594 94.9913 109.482 95.1495C106.369 95.3083 105.469 95.4758 105.469 95.4758" stroke="white" stroke-width="2.2" stroke-miterlimit="10"/>
<path d="M53.5384 97.6016C53.5384 97.6016 53.454 101.91 52.0572 101.752C50.6602 101.593 47.6321 101.938 48.3727 97.6016" stroke="white" stroke-width="2.2" stroke-miterlimit="10"/>
<path d="M58.8532 102.73C58.8532 102.73 49.5062 103.328 48.8125 103.514" stroke="white" stroke-width="2.2" stroke-miterlimit="10"/>
<path d="M60.8228 105.172L50.8945 107.373" stroke="white" stroke-width="2.2" stroke-miterlimit="10"/>
<path d="M63.4401 108.27C63.4401 108.27 55.893 110.461 55.1992 110.461" stroke="white" stroke-width="2.2" stroke-miterlimit="10"/>
<path d="M64.9962 111.535C64.9962 111.535 57.5149 114.603 56.418 113.885" stroke="white" stroke-width="2.2" stroke-miterlimit="10"/>
</g>
<defs>
<clipPath id="clip0_2574_14692">
<rect width="146" height="84" fill="white" transform="translate(7 38)"/>
</clipPath>
</defs>
</svg>
