<svg width="160" height="160" viewBox="0 0 160 160" fill="none" xmlns="http://www.w3.org/2000/svg">
<g clip-path="url(#clip0_2574_14737)">
<path d="M88.459 124.446H41.3328C38.951 124.446 37.0234 122.502 37.0234 120.1V81.1133H92.7794V120.1C92.7794 122.502 90.8408 124.446 88.459 124.446Z" stroke="white" stroke-width="2.2" stroke-miterlimit="10"/>
<path d="M37.3893 72.1211H92.4033C93.9096 72.1211 95.1281 73.3499 95.1281 74.8692V81.1026H34.6641V74.8692C34.6641 73.3611 35.8827 72.1211 37.3893 72.1211Z" stroke="white" stroke-width="2.2" stroke-miterlimit="10"/>
<path d="M39.7486 67.6328H90.0543C91.5609 67.6328 92.7794 68.8616 92.7794 70.3808V72.1235H37.0234V70.3921C37.0234 68.8728 38.242 67.6328 39.7486 67.6328Z" stroke="white" stroke-width="2.2" stroke-miterlimit="10"/>
<path d="M41.5236 67.6296C41.5236 67.6296 41.2244 64.6693 41.9335 61.2286C42.7422 57.2741 44.858 52.694 50.242 51.2305C60.312 48.4937 65.9286 51.6216 64.566 43.031C64.566 43.031 68.6317 38.5403 75.0127 43.031C81.3936 47.5218 91.4636 56.3134 87.398 67.6296H41.5236Z" stroke="white" stroke-width="2.2" stroke-miterlimit="10"/>
<path d="M50.894 51.109C50.894 51.109 44.801 32.9226 40.6024 33.9057C36.4038 34.8887 31.5516 35.4249 34.4873 43.8143C37.423 52.2038 42.0869 61.2299 42.0869 61.2299" stroke="white" stroke-width="2.2" stroke-miterlimit="10"/>
<path d="M113.396 120.303C112.521 124.359 103.813 124.447 103.813 124.447C86.7864 118.985 82.8204 100.698 82.8204 100.698C82.8204 100.698 75.952 81.1152 79.2976 74.3456C82.2443 68.4138 88.3373 67.4531 88.3373 67.4531" fill="#BD9377"/>
<path d="M113.396 120.303C112.521 124.359 103.813 124.447 103.813 124.447C86.7864 118.985 82.8204 100.698 82.8204 100.698C82.8204 100.698 75.952 81.1152 79.2976 74.3456C82.2443 68.4138 88.3373 67.4531 88.3373 67.4531" stroke="white" stroke-width="2.2" stroke-miterlimit="10"/>
<path d="M113.401 120.308C120.678 117.163 121.421 102.483 115.061 87.5184C108.701 72.554 97.6465 62.9723 90.3699 66.117C83.0933 69.2617 82.3503 83.9419 88.7102 98.9062C95.0701 113.871 106.125 123.452 113.401 120.308Z" fill="#BD9377" stroke="white" stroke-width="2.2" stroke-miterlimit="10"/>
<path d="M108.886 109.688C113.086 107.873 113.356 99.0234 109.488 89.9221C105.62 80.8211 99.0792 74.9148 94.8787 76.7302C90.678 78.5456 90.4084 87.395 94.2763 96.4963C98.1445 105.597 104.685 111.503 108.886 109.688Z" fill="#BD9377" stroke="white" stroke-width="2.2" stroke-miterlimit="10"/>
</g>
<defs>
<clipPath id="clip0_2574_14737">
<rect width="94" height="93" fill="white" transform="translate(33 33)"/>
</clipPath>
</defs>
</svg>
