<svg width="160" height="160" viewBox="0 0 160 160" fill="none" xmlns="http://www.w3.org/2000/svg">
<path d="M91.0781 103.762C92.4385 102.791 93.6045 101.625 94.5762 100.264C96.9082 97.3493 97.4911 94.0456 97.1025 90.5477C96.9081 88.7987 96.3252 86.8554 95.5478 84.912C94.9648 83.5517 94.3818 82.1914 93.6045 80.6367" stroke="white" stroke-width="2.4" stroke-linecap="round" stroke-linejoin="round"/>
<path d="M48.3243 83.5537C45.7979 92.493 45.9922 102.015 52.9883 110.954C59.4013 119.311 69.701 124.363 80.0007 124.363C90.3004 124.363 100.794 119.116 107.013 110.954C114.009 102.015 114.203 92.493 111.677 83.3594" stroke="white" stroke-width="2.4" stroke-linecap="round" stroke-linejoin="round"/>
<path d="M80.0029 36.332C81.7519 43.5223 85.2499 49.9352 88.7479 56.3482C96.7156 70.5344 113.04 89.579 100.602 105.708C95.7439 111.927 87.9706 116.008 80.0029 116.008C72.0352 116.008 64.0675 111.927 59.4035 105.708C46.9662 89.579 63.2902 70.5344 71.2579 56.3482C74.7559 49.9352 78.2539 43.5223 80.0029 36.332Z" stroke="white" stroke-width="2.4" stroke-linecap="round" stroke-linejoin="round"/>
<path d="M48.324 83.5547H32" stroke="white" stroke-width="2.4" stroke-linecap="round" stroke-linejoin="round"/>
<path d="M128.004 83.3594H111.68" stroke="white" stroke-width="2.4" stroke-linecap="round" stroke-linejoin="round"/>
</svg>
