<svg width="160" height="160" viewBox="0 0 160 160" fill="none" xmlns="http://www.w3.org/2000/svg">
<path d="M90.6726 98.768C96.127 97.4589 108.781 86.1138 112.927 83.4957C115.108 82.1867 117.727 81.0958 120.345 81.7503C124.926 83.0594 124.926 87.8592 121.872 90.6955C119.908 92.4409 96.127 113.604 83.6909 119.276C76.7093 122.549 68.8549 122.549 61.2187 122.549C57.5097 122.549 53.5825 122.549 49.8735 123.204C44.8554 124.294 40.2737 126.258 35.9102 128.44" stroke="white" stroke-width="2" stroke-linecap="round" stroke-linejoin="round"/>
<path d="M55.9812 104.001C59.0356 103.783 61.6537 102.474 64.49 101.383C70.8172 98.9832 77.3625 99.4196 84.126 99.4196C88.0532 99.4196 95.253 98.9832 96.1257 93.747C96.3439 92.2198 95.9076 90.2562 94.5985 89.1653C93.2894 87.8563 91.3258 88.0745 89.5804 88.0745C85.2169 88.2926 81.0715 88.0745 76.708 87.6381C68.4172 86.3291 59.6902 83.711 51.3994 85.8927C45.2905 87.4199 39.3997 91.5653 34.1634 96.147L25 104.001" stroke="white" stroke-width="2" stroke-linecap="round" stroke-linejoin="round"/>
<path d="M92.8555 70.4042C93.51 69.9679 94.1645 69.3134 94.6009 68.6588C95.6918 67.1316 96.1281 65.6044 95.91 64.0772C95.91 63.2045 95.4736 62.3318 95.2554 61.2409C95.0373 60.5864 94.6009 59.9319 94.3827 59.2773" stroke="white" stroke-width="2" stroke-linecap="round" stroke-linejoin="round"/>
<path d="M86.5267 26.332C87.8357 31.3501 90.0175 35.7135 92.6356 40.077C98.0901 49.8949 109.435 62.9854 100.926 74.1124C97.6537 78.4759 92.1993 81.3121 86.7449 81.3121C81.2904 81.3121 75.836 78.4759 72.5633 74.1124C64.0544 62.9854 75.3996 49.8949 80.8541 40.077C83.254 35.7135 85.654 31.1319 86.963 26.332H86.5267Z" stroke="white" stroke-width="2" stroke-linecap="round" stroke-linejoin="round"/>
</svg>
