<svg width="160" height="160" viewBox="0 0 160 160" fill="none" xmlns="http://www.w3.org/2000/svg">
<path d="M104.384 65.8183C100.999 47.3118 87.2316 36.253 71.8846 36.0273C53.8293 36.0273 38.9336 52.277 38.9336 72.1377" stroke="white" stroke-width="2" stroke-linecap="round" stroke-linejoin="round"/>
<path d="M77.3016 36.707C85.2008 38.9639 84.298 47.7658 81.1383 51.6026C80.2356 52.731 78.8814 53.8594 77.5273 54.5365C73.6905 56.7934 68.7253 57.9218 64.4371 58.8246C59.6976 59.7273 54.9581 60.6301 50.4443 62.2099C44.5763 64.2411 40.2881 67.4008 38.934 72.1403C38.934 72.1403 38.934 75.3 38.934 77.7826C37.1284 79.5881 36 82.7477 36 87.0358C36 93.5808 38.7083 102.834 44.802 104.414C48.8644 115.021 57.8921 132.399 71.885 132.399" stroke="white" stroke-width="2" stroke-linecap="round" stroke-linejoin="round"/>
<path d="M61.957 32.4165C61.957 29.4826 64.4396 27 67.3736 27H76.627C79.561 27 82.0436 29.4826 82.0436 32.4165" stroke="white" stroke-width="2" stroke-linecap="round" stroke-linejoin="round"/>
<path d="M76.8516 54.9844C76.8516 54.9844 83.3966 66.4945 104.16 65.8175" stroke="white" stroke-width="2" stroke-linecap="round" stroke-linejoin="round"/>
<path d="M66.9219 103.055C68.0503 103.055 68.7274 103.732 69.4045 104.409C70.5329 105.086 71.6614 105.537 73.0155 105.537" stroke="white" stroke-width="2" stroke-linecap="round" stroke-linejoin="round"/>
<path d="M48.1875 80.7163C48.1875 80.7163 58.5693 76.8796 66.4685 83.1989" stroke="white" stroke-width="2" stroke-linecap="round" stroke-linejoin="round"/>
<path d="M51.5742 86.582C51.5742 86.582 56.088 91.9986 63.3102 88.8389" stroke="white" stroke-width="2" stroke-linecap="round" stroke-linejoin="round"/>
<path d="M86.1033 89.7426C84.9748 89.7426 83.8463 89.2912 82.4922 88.8398" stroke="white" stroke-width="2" stroke-linecap="round" stroke-linejoin="round"/>
<path d="M89.2625 79.5859C89.2625 79.5859 88.8111 79.5859 88.5854 79.5859C85.6514 79.8116 82.266 80.7144 79.332 83.197" stroke="white" stroke-width="2" stroke-linecap="round" stroke-linejoin="round"/>
<path d="M121.989 75.2984C125.825 71.4617 123.117 68.7534 122.44 68.302C121.989 67.8506 119.055 64.9167 115.443 68.7534C111.381 73.0415 109.801 73.4929 106.867 76.4268L110.478 80.0379L114.089 83.8746C117.023 80.9406 117.475 79.3608 121.763 75.2984H121.989Z" stroke="white" stroke-width="2" stroke-linecap="round" stroke-linejoin="round"/>
<path d="M108.901 94.4822L96.4883 82.0693L103.485 75.0729C103.936 74.6215 104.839 74.6215 105.29 75.0729L115.898 85.6803C116.349 86.1317 116.349 87.0345 115.898 87.4858L108.901 94.4822Z" stroke="white" stroke-width="2" stroke-linecap="round" stroke-linejoin="round"/>
<path d="M101.453 94.9352L90.8454 105.317C89.9426 106.22 89.0399 106.671 87.9114 106.897L84.9774 107.574L84.0746 106.671L83.1719 105.768L83.849 102.834C84.0746 101.706 86.7829 98.5463 87.6857 97.6435L96.0363 89.293" stroke="white" stroke-width="2" stroke-linecap="round" stroke-linejoin="round"/>
<path d="M83.6221 114.117C84.0735 115.697 84.7506 117.277 85.6534 118.631C87.4589 121.791 91.2957 126.304 88.3617 129.915C87.2332 131.27 85.4277 132.172 83.6221 132.172C81.8166 132.172 80.0111 131.27 78.8826 129.915C75.9486 126.304 79.7854 121.791 81.5909 118.631C82.4937 117.051 83.1707 115.697 83.6221 114.117Z" fill="white" stroke="white" stroke-width="2" stroke-linecap="round" stroke-linejoin="round"/>
<path d="M99.8704 106.895C100.096 108.249 100.773 109.377 101.45 110.506C102.804 113.214 105.964 116.599 103.707 119.533C102.804 120.662 101.45 121.339 99.8704 121.339C98.2906 121.339 96.9364 120.662 96.0337 119.533C93.7767 116.599 96.7107 112.988 98.2906 110.506C98.9676 109.377 99.6447 108.249 99.8704 106.895Z" fill="white" stroke="white" stroke-width="2" stroke-linecap="round" stroke-linejoin="round"/>
</svg>
