<svg width="160" height="160" viewBox="0 0 160 160" fill="none" xmlns="http://www.w3.org/2000/svg">
<path d="M67.3843 23C67.3843 22.3373 66.847 21.8 66.1843 21.8C65.5216 21.8 64.9843 22.3373 64.9843 23H66.1843H67.3843ZM66.1843 46.0264V47.2264H67.3843V46.0264H66.1843ZM45 137.986H43.8V139.186H45V137.986ZM115 137.986V139.186H116.2V137.986H115ZM115 65.8291H116.2V65.7873L116.197 65.7457L115 65.8291ZM93.816 46.0264H92.616V47.2264H93.816V46.0264ZM66.1843 23H64.9843V46.0264H66.1843H67.3843V23H66.1843ZM66.1843 46.0264V44.8264C62.4772 44.8264 56.9316 45.8568 52.2741 48.9914C47.5524 52.1693 43.8 57.4817 43.8 65.8291H45H46.2C46.2 58.3343 49.5091 53.7454 53.6141 50.9825C57.7835 48.1763 62.83 47.2264 66.1843 47.2264V46.0264ZM45 65.8291H43.8C43.8 65.86 43.8 65.8911 43.8 65.9222C43.8 65.9534 43.8 65.9846 43.8 66.016C43.8 66.0473 43.8 66.0788 43.8 66.1104C43.8 66.1419 43.8 66.1736 43.8 66.2054C43.8 66.2371 43.8 66.269 43.8 66.301C43.8 66.3329 43.8 66.365 43.8 66.3972C43.8 66.4294 43.8 66.4616 43.8 66.494C43.8 66.5264 43.8 66.5589 43.8 66.5915C43.8 66.624 43.8 66.6567 43.8 66.6895C43.8 66.7223 43.8 66.7551 43.8 66.7881C43.8 66.8211 43.8 66.8542 43.8 66.8874C43.8 66.9205 43.8 66.9538 43.8 66.9872C43.8 67.0206 43.8 67.0541 43.8 67.0876C43.8 67.1212 43.8 67.1549 43.8 67.1886C43.8 67.2224 43.8 67.2563 43.8 67.2903C43.8 67.3242 43.8 67.3583 43.8 67.3924C43.8 67.4266 43.8 67.4609 43.8 67.4952C43.8 67.5296 43.8 67.564 43.8 67.5986C43.8 67.6331 43.8 67.6678 43.8 67.7025C43.8 67.7373 43.8 67.7721 43.8 67.807C43.8 67.842 43.8 67.877 43.8 67.9121C43.8 67.9472 43.8 67.9825 43.8 68.0178C43.8 68.0531 43.8 68.0885 43.8 68.124C43.8 68.1595 43.8 68.1951 43.8 68.2308C43.8 68.2665 43.8 68.3022 43.8 68.3381C43.8 68.374 43.8 68.41 43.8 68.446C43.8 68.4821 43.8 68.5183 43.8 68.5545C43.8 68.5908 43.8 68.6271 43.8 68.6635C43.8 68.7 43.8 68.7365 43.8 68.7731C43.8 68.8097 43.8 68.8464 43.8 68.8832C43.8 68.92 43.8 68.9569 43.8 68.9939C43.8 69.0309 43.8 69.068 43.8 69.1051C43.8 69.1423 43.8 69.1795 43.8 69.2169C43.8 69.2542 43.8 69.2917 43.8 69.3292C43.8 69.3667 43.8 69.4043 43.8 69.442C43.8 69.4797 43.8 69.5175 43.8 69.5554C43.8 69.5933 43.8 69.6312 43.8 69.6693C43.8 69.7074 43.8 69.7455 43.8 69.7837C43.8 69.822 43.8 69.8603 43.8 69.8987C43.8 69.9371 43.8 69.9756 43.8 70.0142C43.8 70.0528 43.8 70.0914 43.8 70.1302C43.8 70.1689 43.8 70.2078 43.8 70.2467C43.8 70.2856 43.8 70.3247 43.8 70.3638C43.8 70.4029 43.8 70.4421 43.8 70.4813C43.8 70.5206 43.8 70.56 43.8 70.5994C43.8 70.6388 43.8 70.6784 43.8 70.718C43.8 70.7576 43.8 70.7973 43.8 70.8371C43.8 70.8768 43.8 70.9167 43.8 70.9566C43.8 70.9966 43.8 71.0366 43.8 71.0767C43.8 71.1169 43.8 71.1571 43.8 71.1973C43.8 71.2376 43.8 71.278 43.8 71.3184C43.8 71.3589 43.8 71.3994 43.8 71.44C43.8 71.4806 43.8 71.5213 43.8 71.5621C43.8 71.6028 43.8 71.6437 43.8 71.6846C43.8 71.7256 43.8 71.7666 43.8 71.8077C43.8 71.8488 43.8 71.8899 43.8 71.9312C43.8 71.9725 43.8 72.0138 43.8 72.0552C43.8 72.0966 43.8 72.1381 43.8 72.1797C43.8 72.2213 43.8 72.2629 43.8 72.3047C43.8 72.3464 43.8 72.3882 43.8 72.4301C43.8 72.472 43.8 72.514 43.8 72.556C43.8 72.5981 43.8 72.6402 43.8 72.6824C43.8 72.7246 43.8 72.7669 43.8 72.8092C43.8 72.8516 43.8 72.894 43.8 72.9366C43.8 72.9791 43.8 73.0216 43.8 73.0643C43.8 73.107 43.8 73.1497 43.8 73.1925C43.8 73.2354 43.8 73.2783 43.8 73.3212C43.8 73.3642 43.8 73.4072 43.8 73.4504C43.8 73.4935 43.8 73.5367 43.8 73.5799C43.8 73.6232 43.8 73.6666 43.8 73.71C43.8 73.7534 43.8 73.7969 43.8 73.8404C43.8 73.884 43.8 73.9277 43.8 73.9714C43.8 74.0151 43.8 74.0589 43.8 74.1027C43.8 74.1466 43.8 74.1905 43.8 74.2345C43.8 74.2785 43.8 74.3226 43.8 74.3668C43.8 74.4109 43.8 74.4551 43.8 74.4994C43.8 74.5437 43.8 74.5881 43.8 74.6325C43.8 74.677 43.8 74.7215 43.8 74.766C43.8 74.8106 43.8 74.8553 43.8 74.9C43.8 74.9447 43.8 74.9895 43.8 75.0344C43.8 75.0792 43.8 75.1241 43.8 75.1691C43.8 75.2141 43.8 75.2592 43.8 75.3043C43.8 75.3495 43.8 75.3947 43.8 75.44C43.8 75.4852 43.8 75.5306 43.8 75.576C43.8 75.6214 43.8 75.6669 43.8 75.7124C43.8 75.758 43.8 75.8036 43.8 75.8493C43.8 75.895 43.8 75.9407 43.8 75.9865C43.8 76.0324 43.8 76.0783 43.8 76.1242C43.8 76.1702 43.8 76.2162 43.8 76.2623C43.8 76.3083 43.8 76.3545 43.8 76.4007C43.8 76.4469 43.8 76.4932 43.8 76.5396C43.8 76.5859 43.8 76.6323 43.8 76.6788C43.8 76.7253 43.8 76.7718 43.8 76.8184C43.8 76.865 43.8 76.9117 43.8 76.9584C43.8 77.0052 43.8 77.052 43.8 77.0988C43.8 77.1457 43.8 77.1926 43.8 77.2396C43.8 77.2866 43.8 77.3336 43.8 77.3808C43.8 77.4279 43.8 77.475 43.8 77.5223C43.8 77.5695 43.8 77.6168 43.8 77.6642C43.8 77.7116 43.8 77.759 43.8 77.8065C43.8 77.854 43.8 77.9015 43.8 77.9491C43.8 77.9967 43.8 78.0444 43.8 78.0921C43.8 78.1399 43.8 78.1876 43.8 78.2355C43.8 78.2834 43.8 78.3313 43.8 78.3792C43.8 78.4272 43.8 78.4752 43.8 78.5233C43.8 78.5714 43.8 78.6196 43.8 78.6678C43.8 78.716 43.8 78.7643 43.8 78.8126C43.8 78.8609 43.8 78.9093 43.8 78.9577C43.8 79.0062 43.8 79.0547 43.8 79.1032C43.8 79.1518 43.8 79.2004 43.8 79.2491C43.8 79.2978 43.8 79.3465 43.8 79.3953C43.8 79.4441 43.8 79.4929 43.8 79.5418C43.8 79.5907 43.8 79.6397 43.8 79.6887C43.8 79.7377 43.8 79.7868 43.8 79.8359C43.8 79.885 43.8 79.9342 43.8 79.9834C43.8 80.0327 43.8 80.0819 43.8 80.1313C43.8 80.1806 43.8 80.23 43.8 80.2795C43.8 80.3289 43.8 80.3784 43.8 80.428C43.8 80.4776 43.8 80.5272 43.8 80.5768C43.8 80.6265 43.8 80.6762 43.8 80.726C43.8 80.7758 43.8 80.8256 43.8 80.8755C43.8 80.9254 43.8 80.9753 43.8 81.0253C43.8 81.0753 43.8 81.1253 43.8 81.1754C43.8 81.2255 43.8 81.2756 43.8 81.3258C43.8 81.376 43.8 81.4262 43.8 81.4765C43.8 81.5268 43.8 81.5772 43.8 81.6276C43.8 81.6779 43.8 81.7284 43.8 81.7789C43.8 81.8294 43.8 81.8799 43.8 81.9305C43.8 81.9811 43.8 82.0317 43.8 82.0824C43.8 82.1331 43.8 82.1839 43.8 82.2347C43.8 82.2855 43.8 82.3363 43.8 82.3872C43.8 82.4381 43.8 82.489 43.8 82.54C43.8 82.591 43.8 82.642 43.8 82.6931C43.8 82.7441 43.8 82.7953 43.8 82.8464C43.8 82.8976 43.8 82.9488 43.8 83.0001C43.8 83.0514 43.8 83.1027 43.8 83.154C43.8 83.2054 43.8 83.2568 43.8 83.3082C43.8 83.3597 43.8 83.4112 43.8 83.4627C43.8 83.5143 43.8 83.5659 43.8 83.6175C43.8 83.6691 43.8 83.7208 43.8 83.7725C43.8 83.8242 43.8 83.876 43.8 83.9278C43.8 83.9796 43.8 84.0315 43.8 84.0834C43.8 84.1353 43.8 84.1872 43.8 84.2392C43.8 84.2912 43.8 84.3432 43.8 84.3952C43.8 84.4473 43.8 84.4994 43.8 84.5516C43.8 84.6037 43.8 84.6559 43.8 84.7082C43.8 84.7604 43.8 84.8127 43.8 84.865C43.8 84.9173 43.8 84.9697 43.8 85.0221C43.8 85.0745 43.8 85.1269 43.8 85.1794C43.8 85.2319 43.8 85.2844 43.8 85.337C43.8 85.3896 43.8 85.4422 43.8 85.4948C43.8 85.5474 43.8 85.6001 43.8 85.6529C43.8 85.7056 43.8 85.7583 43.8 85.8111C43.8 85.8639 43.8 85.9168 43.8 85.9697C43.8 86.0225 43.8 86.0755 43.8 86.1284C43.8 86.1814 43.8 86.2344 43.8 86.2874C43.8 86.3404 43.8 86.3935 43.8 86.4466C43.8 86.4997 43.8 86.5528 43.8 86.606C43.8 86.6592 43.8 86.7124 43.8 86.7657C43.8 86.8189 43.8 86.8722 43.8 86.9255C43.8 86.9789 43.8 87.0322 43.8 87.0856C43.8 87.139 43.8 87.1924 43.8 87.2459C43.8 87.2994 43.8 87.3529 43.8 87.4064C43.8 87.46 43.8 87.5135 43.8 87.5671C43.8 87.6207 43.8 87.6744 43.8 87.728C43.8 87.7817 43.8 87.8354 43.8 87.8892C43.8 87.9429 43.8 87.9967 43.8 88.0505C43.8 88.1043 43.8 88.1581 43.8 88.212C43.8 88.2659 43.8 88.3198 43.8 88.3737C43.8 88.4276 43.8 88.4816 43.8 88.5356C43.8 88.5896 43.8 88.6436 43.8 88.6977C43.8 88.7518 43.8 88.8059 43.8 88.86C43.8 88.9141 43.8 88.9683 43.8 89.0224C43.8 89.0766 43.8 89.1308 43.8 89.1851C43.8 89.2393 43.8 89.2936 43.8 89.3479C43.8 89.4022 43.8 89.4566 43.8 89.5109C43.8 89.5653 43.8 89.6197 43.8 89.6741C43.8 89.7285 43.8 89.783 43.8 89.8374C43.8 89.8919 43.8 89.9464 43.8 90.001C43.8 90.0555 43.8 90.11 43.8 90.1646C43.8 90.2192 43.8 90.2738 43.8 90.3285C43.8 90.3831 43.8 90.4378 43.8 90.4925C43.8 90.5472 43.8 90.6019 43.8 90.6567C43.8 90.7114 43.8 90.7662 43.8 90.821C43.8 90.8758 43.8 90.9306 43.8 90.9855C43.8 91.0403 43.8 91.0952 43.8 91.1501C43.8 91.205 43.8 91.2599 43.8 91.3149C43.8 91.3698 43.8 91.4248 43.8 91.4798C43.8 91.5348 43.8 91.5898 43.8 91.6449C43.8 91.6999 43.8 91.755 43.8 91.8101C43.8 91.8652 43.8 91.9203 43.8 91.9754C43.8 92.0306 43.8 92.0857 43.8 92.1409C43.8 92.1961 43.8 92.2513 43.8 92.3065C43.8 92.3617 43.8 92.417 43.8 92.4723C43.8 92.5275 43.8 92.5828 43.8 92.6381C43.8 92.6935 43.8 92.7488 43.8 92.8041C43.8 92.8595 43.8 92.9149 43.8 92.9703C43.8 93.0257 43.8 93.0811 43.8 93.1365C43.8 93.1919 43.8 93.2474 43.8 93.3029C43.8 93.3584 43.8 93.4138 43.8 93.4694C43.8 93.5249 43.8 93.5804 43.8 93.6359C43.8 93.6915 43.8 93.7471 43.8 93.8027C43.8 93.8582 43.8 93.9138 43.8 93.9695C43.8 94.0251 43.8 94.0807 43.8 94.1364C43.8 94.192 43.8 94.2477 43.8 94.3034C43.8 94.3591 43.8 94.4148 43.8 94.4705C43.8 94.5262 43.8 94.582 43.8 94.6377C43.8 94.6935 43.8 94.7493 43.8 94.805C43.8 94.8608 43.8 94.9166 43.8 94.9724C43.8 95.0283 43.8 95.0841 43.8 95.1399C43.8 95.1958 43.8 95.2516 43.8 95.3075C43.8 95.3634 43.8 95.4193 43.8 95.4752C43.8 95.5311 43.8 95.587 43.8 95.6429C43.8 95.6989 43.8 95.7548 43.8 95.8108C43.8 95.8667 43.8 95.9227 43.8 95.9787C43.8 96.0346 43.8 96.0906 43.8 96.1466C43.8 96.2026 43.8 96.2587 43.8 96.3147C43.8 96.3707 43.8 96.4268 43.8 96.4828C43.8 96.5389 43.8 96.5949 43.8 96.651C43.8 96.7071 43.8 96.7632 43.8 96.8193C43.8 96.8753 43.8 96.9314 43.8 96.9876C43.8 97.0437 43.8 97.0998 43.8 97.1559C43.8 97.2121 43.8 97.2682 43.8 97.3244C43.8 97.3805 43.8 97.4367 43.8 97.4929C43.8 97.549 43.8 97.6052 43.8 97.6614C43.8 97.7176 43.8 97.7738 43.8 97.83C43.8 97.8862 43.8 97.9424 43.8 97.9986C43.8 98.0548 43.8 98.111 43.8 98.1673C43.8 98.2235 43.8 98.2797 43.8 98.336C43.8 98.3922 43.8 98.4485 43.8 98.5047C43.8 98.561 43.8 98.6173 43.8 98.6735C43.8 98.7298 43.8 98.7861 43.8 98.8424C43.8 98.8986 43.8 98.9549 43.8 99.0112C43.8 99.0675 43.8 99.1238 43.8 99.1801C43.8 99.2364 43.8 99.2927 43.8 99.349C43.8 99.4053 43.8 99.4616 43.8 99.518C43.8 99.5743 43.8 99.6306 43.8 99.6869C43.8 99.7432 43.8 99.7996 43.8 99.8559C43.8 99.9122 43.8 99.9685 43.8 100.025C43.8 100.081 43.8 100.138 43.8 100.194C43.8 100.25 43.8 100.307 43.8 100.363C43.8 100.419 43.8 100.476 43.8 100.532C43.8 100.588 43.8 100.645 43.8 100.701C43.8 100.757 43.8 100.814 43.8 100.87C43.8 100.926 43.8 100.983 43.8 101.039C43.8 101.095 43.8 101.152 43.8 101.208C43.8 101.264 43.8 101.321 43.8 101.377C43.8 101.433 43.8 101.49 43.8 101.546C43.8 101.602 43.8 101.659 43.8 101.715C43.8 101.771 43.8 101.828 43.8 101.884C43.8 101.94 43.8 101.997 43.8 102.053C43.8 102.109 43.8 102.166 43.8 102.222C43.8 102.278 43.8 102.335 43.8 102.391C43.8 102.447 43.8 102.504 43.8 102.56C43.8 102.616 43.8 102.672 43.8 102.729C43.8 102.785 43.8 102.841 43.8 102.898C43.8 102.954 43.8 103.01 43.8 103.066C43.8 103.123 43.8 103.179 43.8 103.235C43.8 103.292 43.8 103.348 43.8 103.404C43.8 103.46 43.8 103.517 43.8 103.573C43.8 103.629 43.8 103.685 43.8 103.741C43.8 103.798 43.8 103.854 43.8 103.91C43.8 103.966 43.8 104.023 43.8 104.079C43.8 104.135 43.8 104.191 43.8 104.247C43.8 104.303 43.8 104.36 43.8 104.416C43.8 104.472 43.8 104.528 43.8 104.584C43.8 104.64 43.8 104.696 43.8 104.753C43.8 104.809 43.8 104.865 43.8 104.921C43.8 104.977 43.8 105.033 43.8 105.089C43.8 105.145 43.8 105.201 43.8 105.257C43.8 105.313 43.8 105.37 43.8 105.426C43.8 105.482 43.8 105.538 43.8 105.594C43.8 105.65 43.8 105.706 43.8 105.762C43.8 105.818 43.8 105.874 43.8 105.93C43.8 105.986 43.8 106.041 43.8 106.097C43.8 106.153 43.8 106.209 43.8 106.265C43.8 106.321 43.8 106.377 43.8 106.433C43.8 106.489 43.8 106.545 43.8 106.601C43.8 106.656 43.8 106.712 43.8 106.768C43.8 106.824 43.8 106.88 43.8 106.935C43.8 106.991 43.8 107.047 43.8 107.103C43.8 107.159 43.8 107.214 43.8 107.27C43.8 107.326 43.8 107.382 43.8 107.437C43.8 107.493 43.8 107.549 43.8 107.604C43.8 107.66 43.8 107.716 43.8 107.771C43.8 107.827 43.8 107.882 43.8 107.938C43.8 107.994 43.8 108.049 43.8 108.105C43.8 108.16 43.8 108.216 43.8 108.271C43.8 108.327 43.8 108.382 43.8 108.438C43.8 108.493 43.8 108.549 43.8 108.604C43.8 108.66 43.8 108.715 43.8 108.771C43.8 108.826 43.8 108.881 43.8 108.937C43.8 108.992 43.8 109.048 43.8 109.103C43.8 109.158 43.8 109.214 43.8 109.269C43.8 109.324 43.8 109.379 43.8 109.435C43.8 109.49 43.8 109.545 43.8 109.6C43.8 109.655 43.8 109.711 43.8 109.766C43.8 109.821 43.8 109.876 43.8 109.931C43.8 109.986 43.8 110.041 43.8 110.096C43.8 110.152 43.8 110.207 43.8 110.262C43.8 110.317 43.8 110.372 43.8 110.427C43.8 110.482 43.8 110.536 43.8 110.591C43.8 110.646 43.8 110.701 43.8 110.756C43.8 110.811 43.8 110.866 43.8 110.921C43.8 110.975 43.8 111.03 43.8 111.085C43.8 111.14 43.8 111.194 43.8 111.249C43.8 111.304 43.8 111.359 43.8 111.413C43.8 111.468 43.8 111.523 43.8 111.577C43.8 111.632 43.8 111.686 43.8 111.741C43.8 111.795 43.8 111.85 43.8 111.904C43.8 111.959 43.8 112.013 43.8 112.068C43.8 112.122 43.8 112.177 43.8 112.231C43.8 112.286 43.8 112.34 43.8 112.394C43.8 112.449 43.8 112.503 43.8 112.557C43.8 112.611 43.8 112.666 43.8 112.72C43.8 112.774 43.8 112.828 43.8 112.882C43.8 112.936 43.8 112.991 43.8 113.045C43.8 113.099 43.8 113.153 43.8 113.207C43.8 113.261 43.8 113.315 43.8 113.369C43.8 113.423 43.8 113.477 43.8 113.531C43.8 113.584 43.8 113.638 43.8 113.692C43.8 113.746 43.8 113.8 43.8 113.854C43.8 113.907 43.8 113.961 43.8 114.015C43.8 114.068 43.8 114.122 43.8 114.176C43.8 114.229 43.8 114.283 43.8 114.337C43.8 114.39 43.8 114.444 43.8 114.497C43.8 114.551 43.8 114.604 43.8 114.657C43.8 114.711 43.8 114.764 43.8 114.818C43.8 114.871 43.8 114.924 43.8 114.978C43.8 115.031 43.8 115.084 43.8 115.137C43.8 115.19 43.8 115.244 43.8 115.297C43.8 115.35 43.8 115.403 43.8 115.456C43.8 115.509 43.8 115.562 43.8 115.615C43.8 115.668 43.8 115.721 43.8 115.774C43.8 115.827 43.8 115.88 43.8 115.933C43.8 115.985 43.8 116.038 43.8 116.091C43.8 116.144 43.8 116.196 43.8 116.249C43.8 116.302 43.8 116.354 43.8 116.407C43.8 116.46 43.8 116.512 43.8 116.565C43.8 116.617 43.8 116.67 43.8 116.722C43.8 116.774 43.8 116.827 43.8 116.879C43.8 116.932 43.8 116.984 43.8 117.036C43.8 117.088 43.8 117.141 43.8 117.193C43.8 117.245 43.8 117.297 43.8 117.349C43.8 117.401 43.8 117.453 43.8 117.505C43.8 117.557 43.8 117.609 43.8 117.661C43.8 117.713 43.8 117.765 43.8 117.817C43.8 117.869 43.8 117.921 43.8 117.972C43.8 118.024 43.8 118.076 43.8 118.127C43.8 118.179 43.8 118.231 43.8 118.282C43.8 118.334 43.8 118.385 43.8 118.437C43.8 118.488 43.8 118.54 43.8 118.591C43.8 118.643 43.8 118.694 43.8 118.745C43.8 118.797 43.8 118.848 43.8 118.899C43.8 118.95 43.8 119.001 43.8 119.053C43.8 119.104 43.8 119.155 43.8 119.206C43.8 119.257 43.8 119.308 43.8 119.359C43.8 119.41 43.8 119.46 43.8 119.511C43.8 119.562 43.8 119.613 43.8 119.664C43.8 119.714 43.8 119.765 43.8 119.816C43.8 119.866 43.8 119.917 43.8 119.967C43.8 120.018 43.8 120.068 43.8 120.119C43.8 120.169 43.8 120.22 43.8 120.27C43.8 120.32 43.8 120.37 43.8 120.421C43.8 120.471 43.8 120.521 43.8 120.571C43.8 120.621 43.8 120.671 43.8 120.721C43.8 120.771 43.8 120.821 43.8 120.871C43.8 120.921 43.8 120.971 43.8 121.021C43.8 121.071 43.8 121.121 43.8 121.17C43.8 121.22 43.8 121.27 43.8 121.319C43.8 121.369 43.8 121.418 43.8 121.468C43.8 121.517 43.8 121.567 43.8 121.616C43.8 121.666 43.8 121.715 43.8 121.764C43.8 121.813 43.8 121.863 43.8 121.912C43.8 121.961 43.8 122.01 43.8 122.059C43.8 122.108 43.8 122.157 43.8 122.206C43.8 122.255 43.8 122.304 43.8 122.353C43.8 122.402 43.8 122.45 43.8 122.499C43.8 122.548 43.8 122.596 43.8 122.645C43.8 122.694 43.8 122.742 43.8 122.791C43.8 122.839 43.8 122.888 43.8 122.936C43.8 122.984 43.8 123.033 43.8 123.081C43.8 123.129 43.8 123.177 43.8 123.225C43.8 123.274 43.8 123.322 43.8 123.37C43.8 123.418 43.8 123.466 43.8 123.514C43.8 123.561 43.8 123.609 43.8 123.657C43.8 123.705 43.8 123.753 43.8 123.8C43.8 123.848 43.8 123.895 43.8 123.943C43.8 123.991 43.8 124.038 43.8 124.085C43.8 124.133 43.8 124.18 43.8 124.227C43.8 124.275 43.8 124.322 43.8 124.369C43.8 124.416 43.8 124.463 43.8 124.51C43.8 124.557 43.8 124.604 43.8 124.651C43.8 124.698 43.8 124.745 43.8 124.792C43.8 124.839 43.8 124.885 43.8 124.932C43.8 124.979 43.8 125.025 43.8 125.072C43.8 125.118 43.8 125.165 43.8 125.211C43.8 125.258 43.8 125.304 43.8 125.35C43.8 125.396 43.8 125.443 43.8 125.489C43.8 125.535 43.8 125.581 43.8 125.627C43.8 125.673 43.8 125.719 43.8 125.765C43.8 125.811 43.8 125.856 43.8 125.902C43.8 125.948 43.8 125.993 43.8 126.039C43.8 126.085 43.8 126.13 43.8 126.176C43.8 126.221 43.8 126.267 43.8 126.312C43.8 126.357 43.8 126.402 43.8 126.448C43.8 126.493 43.8 126.538 43.8 126.583C43.8 126.628 43.8 126.673 43.8 126.718C43.8 126.763 43.8 126.808 43.8 126.852C43.8 126.897 43.8 126.942 43.8 126.987C43.8 127.031 43.8 127.076 43.8 127.12C43.8 127.165 43.8 127.209 43.8 127.253C43.8 127.298 43.8 127.342 43.8 127.386C43.8 127.43 43.8 127.475 43.8 127.519C43.8 127.563 43.8 127.607 43.8 127.651C43.8 127.695 43.8 127.738 43.8 127.782C43.8 127.826 43.8 127.87 43.8 127.913C43.8 127.957 43.8 128 43.8 128.044C43.8 128.087 43.8 128.131 43.8 128.174C43.8 128.217 43.8 128.261 43.8 128.304C43.8 128.347 43.8 128.39 43.8 128.433C43.8 128.476 43.8 128.519 43.8 128.562C43.8 128.605 43.8 128.648 43.8 128.69C43.8 128.733 43.8 128.776 43.8 128.818C43.8 128.861 43.8 128.903 43.8 128.946C43.8 128.988 43.8 129.03 43.8 129.073C43.8 129.115 43.8 129.157 43.8 129.199C43.8 129.241 43.8 129.283 43.8 129.325C43.8 129.367 43.8 129.409 43.8 129.451C43.8 129.493 43.8 129.534 43.8 129.576C43.8 129.618 43.8 129.659 43.8 129.701C43.8 129.742 43.8 129.784 43.8 129.825C43.8 129.866 43.8 129.907 43.8 129.949C43.8 129.99 43.8 130.031 43.8 130.072C43.8 130.113 43.8 130.154 43.8 130.195C43.8 130.235 43.8 130.276 43.8 130.317C43.8 130.358 43.8 130.398 43.8 130.439C43.8 130.479 43.8 130.52 43.8 130.56C43.8 130.6 43.8 130.64 43.8 130.681C43.8 130.721 43.8 130.761 43.8 130.801C43.8 130.841 43.8 130.881 43.8 130.921C43.8 130.961 43.8 131 43.8 131.04C43.8 131.08 43.8 131.119 43.8 131.159C43.8 131.198 43.8 131.238 43.8 131.277C43.8 131.316 43.8 131.356 43.8 131.395C43.8 131.434 43.8 131.473 43.8 131.512C43.8 131.551 43.8 131.59 43.8 131.629C43.8 131.667 43.8 131.706 43.8 131.745C43.8 131.783 43.8 131.822 43.8 131.861C43.8 131.899 43.8 131.937 43.8 131.976C43.8 132.014 43.8 132.052 43.8 132.09C43.8 132.128 43.8 132.166 43.8 132.204C43.8 132.242 43.8 132.28 43.8 132.318C43.8 132.356 43.8 132.393 43.8 132.431C43.8 132.469 43.8 132.506 43.8 132.543C43.8 132.581 43.8 132.618 43.8 132.655C43.8 132.693 43.8 132.73 43.8 132.767C43.8 132.804 43.8 132.841 43.8 132.878C43.8 132.915 43.8 132.951 43.8 132.988C43.8 133.025 43.8 133.061 43.8 133.098C43.8 133.134 43.8 133.171 43.8 133.207C43.8 133.243 43.8 133.28 43.8 133.316C43.8 133.352 43.8 133.388 43.8 133.424C43.8 133.46 43.8 133.496 43.8 133.531C43.8 133.567 43.8 133.603 43.8 133.638C43.8 133.674 43.8 133.709 43.8 133.745C43.8 133.78 43.8 133.815 43.8 133.851C43.8 133.886 43.8 133.921 43.8 133.956C43.8 133.991 43.8 134.026 43.8 134.061C43.8 134.095 43.8 134.13 43.8 134.165C43.8 134.199 43.8 134.234 43.8 134.268C43.8 134.303 43.8 134.337 43.8 134.371C43.8 134.406 43.8 134.44 43.8 134.474C43.8 134.508 43.8 134.542 43.8 134.576C43.8 134.609 43.8 134.643 43.8 134.677C43.8 134.71 43.8 134.744 43.8 134.777C43.8 134.811 43.8 134.844 43.8 134.877C43.8 134.911 43.8 134.944 43.8 134.977C43.8 135.01 43.8 135.043 43.8 135.076C43.8 135.109 43.8 135.141 43.8 135.174C43.8 135.207 43.8 135.239 43.8 135.272C43.8 135.304 43.8 135.336 43.8 135.369C43.8 135.401 43.8 135.433 43.8 135.465C43.8 135.497 43.8 135.529 43.8 135.561C43.8 135.593 43.8 135.625 43.8 135.656C43.8 135.688 43.8 135.719 43.8 135.751C43.8 135.782 43.8 135.814 43.8 135.845C43.8 135.876 43.8 135.907 43.8 135.938C43.8 135.969 43.8 136 43.8 136.031C43.8 136.062 43.8 136.092 43.8 136.123C43.8 136.154 43.8 136.184 43.8 136.214C43.8 136.245 43.8 136.275 43.8 136.305C43.8 136.336 43.8 136.366 43.8 136.396C43.8 136.426 43.8 136.455 43.8 136.485C43.8 136.515 43.8 136.545 43.8 136.574C43.8 136.604 43.8 136.633 43.8 136.662C43.8 136.692 43.8 136.721 43.8 136.75C43.8 136.779 43.8 136.808 43.8 136.837C43.8 136.866 43.8 136.895 43.8 136.923C43.8 136.952 43.8 136.981 43.8 137.009C43.8 137.038 43.8 137.066 43.8 137.094C43.8 137.122 43.8 137.151 43.8 137.179C43.8 137.207 43.8 137.235 43.8 137.262C43.8 137.29 43.8 137.318 43.8 137.345C43.8 137.373 43.8 137.4 43.8 137.428C43.8 137.455 43.8 137.482 43.8 137.51C43.8 137.537 43.8 137.564 43.8 137.591C43.8 137.618 43.8 137.644 43.8 137.671C43.8 137.698 43.8 137.724 43.8 137.751C43.8 137.777 43.8 137.804 43.8 137.83C43.8 137.856 43.8 137.882 43.8 137.908C43.8 137.934 43.8 137.96 43.8 137.986H45H46.2C46.2 137.96 46.2 137.934 46.2 137.908C46.2 137.882 46.2 137.856 46.2 137.83C46.2 137.804 46.2 137.777 46.2 137.751C46.2 137.724 46.2 137.698 46.2 137.671C46.2 137.644 46.2 137.618 46.2 137.591C46.2 137.564 46.2 137.537 46.2 137.51C46.2 137.482 46.2 137.455 46.2 137.428C46.2 137.4 46.2 137.373 46.2 137.345C46.2 137.318 46.2 137.29 46.2 137.262C46.2 137.235 46.2 137.207 46.2 137.179C46.2 137.151 46.2 137.122 46.2 137.094C46.2 137.066 46.2 137.038 46.2 137.009C46.2 136.981 46.2 136.952 46.2 136.923C46.2 136.895 46.2 136.866 46.2 136.837C46.2 136.808 46.2 136.779 46.2 136.75C46.2 136.721 46.2 136.692 46.2 136.662C46.2 136.633 46.2 136.604 46.2 136.574C46.2 136.545 46.2 136.515 46.2 136.485C46.2 136.455 46.2 136.426 46.2 136.396C46.2 136.366 46.2 136.336 46.2 136.305C46.2 136.275 46.2 136.245 46.2 136.214C46.2 136.184 46.2 136.154 46.2 136.123C46.2 136.092 46.2 136.062 46.2 136.031C46.2 136 46.2 135.969 46.2 135.938C46.2 135.907 46.2 135.876 46.2 135.845C46.2 135.814 46.2 135.782 46.2 135.751C46.2 135.719 46.2 135.688 46.2 135.656C46.2 135.625 46.2 135.593 46.2 135.561C46.2 135.529 46.2 135.497 46.2 135.465C46.2 135.433 46.2 135.401 46.2 135.369C46.2 135.336 46.2 135.304 46.2 135.272C46.2 135.239 46.2 135.207 46.2 135.174C46.2 135.141 46.2 135.109 46.2 135.076C46.2 135.043 46.2 135.01 46.2 134.977C46.2 134.944 46.2 134.911 46.2 134.877C46.2 134.844 46.2 134.811 46.2 134.777C46.2 134.744 46.2 134.71 46.2 134.677C46.2 134.643 46.2 134.609 46.2 134.576C46.2 134.542 46.2 134.508 46.2 134.474C46.2 134.44 46.2 134.406 46.2 134.371C46.2 134.337 46.2 134.303 46.2 134.268C46.2 134.234 46.2 134.199 46.2 134.165C46.2 134.13 46.2 134.095 46.2 134.061C46.2 134.026 46.2 133.991 46.2 133.956C46.2 133.921 46.2 133.886 46.2 133.851C46.2 133.815 46.2 133.78 46.2 133.745C46.2 133.709 46.2 133.674 46.2 133.638C46.2 133.603 46.2 133.567 46.2 133.531C46.2 133.496 46.2 133.46 46.2 133.424C46.2 133.388 46.2 133.352 46.2 133.316C46.2 133.28 46.2 133.243 46.2 133.207C46.2 133.171 46.2 133.134 46.2 133.098C46.2 133.061 46.2 133.025 46.2 132.988C46.2 132.951 46.2 132.915 46.2 132.878C46.2 132.841 46.2 132.804 46.2 132.767C46.2 132.73 46.2 132.693 46.2 132.655C46.2 132.618 46.2 132.581 46.2 132.543C46.2 132.506 46.2 132.469 46.2 132.431C46.2 132.393 46.2 132.356 46.2 132.318C46.2 132.28 46.2 132.242 46.2 132.204C46.2 132.166 46.2 132.128 46.2 132.09C46.2 132.052 46.2 132.014 46.2 131.976C46.2 131.937 46.2 131.899 46.2 131.861C46.2 131.822 46.2 131.783 46.2 131.745C46.2 131.706 46.2 131.667 46.2 131.629C46.2 131.59 46.2 131.551 46.2 131.512C46.2 131.473 46.2 131.434 46.2 131.395C46.2 131.356 46.2 131.316 46.2 131.277C46.2 131.238 46.2 131.198 46.2 131.159C46.2 131.119 46.2 131.08 46.2 131.04C46.2 131 46.2 130.961 46.2 130.921C46.2 130.881 46.2 130.841 46.2 130.801C46.2 130.761 46.2 130.721 46.2 130.681C46.2 130.64 46.2 130.6 46.2 130.56C46.2 130.52 46.2 130.479 46.2 130.439C46.2 130.398 46.2 130.358 46.2 130.317C46.2 130.276 46.2 130.235 46.2 130.195C46.2 130.154 46.2 130.113 46.2 130.072C46.2 130.031 46.2 129.99 46.2 129.949C46.2 129.907 46.2 129.866 46.2 129.825C46.2 129.784 46.2 129.742 46.2 129.701C46.2 129.659 46.2 129.618 46.2 129.576C46.2 129.534 46.2 129.493 46.2 129.451C46.2 129.409 46.2 129.367 46.2 129.325C46.2 129.283 46.2 129.241 46.2 129.199C46.2 129.157 46.2 129.115 46.2 129.073C46.2 129.03 46.2 128.988 46.2 128.946C46.2 128.903 46.2 128.861 46.2 128.818C46.2 128.776 46.2 128.733 46.2 128.69C46.2 128.648 46.2 128.605 46.2 128.562C46.2 128.519 46.2 128.476 46.2 128.433C46.2 128.39 46.2 128.347 46.2 128.304C46.2 128.261 46.2 128.217 46.2 128.174C46.2 128.131 46.2 128.087 46.2 128.044C46.2 128 46.2 127.957 46.2 127.913C46.2 127.87 46.2 127.826 46.2 127.782C46.2 127.738 46.2 127.695 46.2 127.651C46.2 127.607 46.2 127.563 46.2 127.519C46.2 127.475 46.2 127.43 46.2 127.386C46.2 127.342 46.2 127.298 46.2 127.253C46.2 127.209 46.2 127.165 46.2 127.12C46.2 127.076 46.2 127.031 46.2 126.987C46.2 126.942 46.2 126.897 46.2 126.852C46.2 126.808 46.2 126.763 46.2 126.718C46.2 126.673 46.2 126.628 46.2 126.583C46.2 126.538 46.2 126.493 46.2 126.448C46.2 126.402 46.2 126.357 46.2 126.312C46.2 126.267 46.2 126.221 46.2 126.176C46.2 126.13 46.2 126.085 46.2 126.039C46.2 125.993 46.2 125.948 46.2 125.902C46.2 125.856 46.2 125.811 46.2 125.765C46.2 125.719 46.2 125.673 46.2 125.627C46.2 125.581 46.2 125.535 46.2 125.489C46.2 125.443 46.2 125.396 46.2 125.35C46.2 125.304 46.2 125.258 46.2 125.211C46.2 125.165 46.2 125.118 46.2 125.072C46.2 125.025 46.2 124.979 46.2 124.932C46.2 124.885 46.2 124.839 46.2 124.792C46.2 124.745 46.2 124.698 46.2 124.651C46.2 124.604 46.2 124.557 46.2 124.51C46.2 124.463 46.2 124.416 46.2 124.369C46.2 124.322 46.2 124.275 46.2 124.227C46.2 124.18 46.2 124.133 46.2 124.085C46.2 124.038 46.2 123.991 46.2 123.943C46.2 123.895 46.2 123.848 46.2 123.8C46.2 123.753 46.2 123.705 46.2 123.657C46.2 123.609 46.2 123.561 46.2 123.514C46.2 123.466 46.2 123.418 46.2 123.37C46.2 123.322 46.2 123.274 46.2 123.225C46.2 123.177 46.2 123.129 46.2 123.081C46.2 123.033 46.2 122.984 46.2 122.936C46.2 122.888 46.2 122.839 46.2 122.791C46.2 122.742 46.2 122.694 46.2 122.645C46.2 122.596 46.2 122.548 46.2 122.499C46.2 122.45 46.2 122.402 46.2 122.353C46.2 122.304 46.2 122.255 46.2 122.206C46.2 122.157 46.2 122.108 46.2 122.059C46.2 122.01 46.2 121.961 46.2 121.912C46.2 121.863 46.2 121.813 46.2 121.764C46.2 121.715 46.2 121.666 46.2 121.616C46.2 121.567 46.2 121.517 46.2 121.468C46.2 121.418 46.2 121.369 46.2 121.319C46.2 121.27 46.2 121.22 46.2 121.17C46.2 121.121 46.2 121.071 46.2 121.021C46.2 120.971 46.2 120.921 46.2 120.871C46.2 120.821 46.2 120.771 46.2 120.721C46.2 120.671 46.2 120.621 46.2 120.571C46.2 120.521 46.2 120.471 46.2 120.421C46.2 120.37 46.2 120.32 46.2 120.27C46.2 120.22 46.2 120.169 46.2 120.119C46.2 120.068 46.2 120.018 46.2 119.967C46.2 119.917 46.2 119.866 46.2 119.816C46.2 119.765 46.2 119.714 46.2 119.664C46.2 119.613 46.2 119.562 46.2 119.511C46.2 119.46 46.2 119.41 46.2 119.359C46.2 119.308 46.2 119.257 46.2 119.206C46.2 119.155 46.2 119.104 46.2 119.053C46.2 119.001 46.2 118.95 46.2 118.899C46.2 118.848 46.2 118.797 46.2 118.745C46.2 118.694 46.2 118.643 46.2 118.591C46.2 118.54 46.2 118.488 46.2 118.437C46.2 118.385 46.2 118.334 46.2 118.282C46.2 118.231 46.2 118.179 46.2 118.127C46.2 118.076 46.2 118.024 46.2 117.972C46.2 117.921 46.2 117.869 46.2 117.817C46.2 117.765 46.2 117.713 46.2 117.661C46.2 117.609 46.2 117.557 46.2 117.505C46.2 117.453 46.2 117.401 46.2 117.349C46.2 117.297 46.2 117.245 46.2 117.193C46.2 117.141 46.2 117.088 46.2 117.036C46.2 116.984 46.2 116.932 46.2 116.879C46.2 116.827 46.2 116.774 46.2 116.722C46.2 116.67 46.2 116.617 46.2 116.565C46.2 116.512 46.2 116.46 46.2 116.407C46.2 116.354 46.2 116.302 46.2 116.249C46.2 116.196 46.2 116.144 46.2 116.091C46.2 116.038 46.2 115.985 46.2 115.933C46.2 115.88 46.2 115.827 46.2 115.774C46.2 115.721 46.2 115.668 46.2 115.615C46.2 115.562 46.2 115.509 46.2 115.456C46.2 115.403 46.2 115.35 46.2 115.297C46.2 115.244 46.2 115.19 46.2 115.137C46.2 115.084 46.2 115.031 46.2 114.978C46.2 114.924 46.2 114.871 46.2 114.818C46.2 114.764 46.2 114.711 46.2 114.657C46.2 114.604 46.2 114.551 46.2 114.497C46.2 114.444 46.2 114.39 46.2 114.337C46.2 114.283 46.2 114.229 46.2 114.176C46.2 114.122 46.2 114.068 46.2 114.015C46.2 113.961 46.2 113.907 46.2 113.854C46.2 113.8 46.2 113.746 46.2 113.692C46.2 113.638 46.2 113.584 46.2 113.531C46.2 113.477 46.2 113.423 46.2 113.369C46.2 113.315 46.2 113.261 46.2 113.207C46.2 113.153 46.2 113.099 46.2 113.045C46.2 112.991 46.2 112.936 46.2 112.882C46.2 112.828 46.2 112.774 46.2 112.72C46.2 112.666 46.2 112.611 46.2 112.557C46.2 112.503 46.2 112.449 46.2 112.394C46.2 112.34 46.2 112.286 46.2 112.231C46.2 112.177 46.2 112.122 46.2 112.068C46.2 112.013 46.2 111.959 46.2 111.904C46.2 111.85 46.2 111.795 46.2 111.741C46.2 111.686 46.2 111.632 46.2 111.577C46.2 111.523 46.2 111.468 46.2 111.413C46.2 111.359 46.2 111.304 46.2 111.249C46.2 111.194 46.2 111.14 46.2 111.085C46.2 111.03 46.2 110.975 46.2 110.921C46.2 110.866 46.2 110.811 46.2 110.756C46.2 110.701 46.2 110.646 46.2 110.591C46.2 110.536 46.2 110.482 46.2 110.427C46.2 110.372 46.2 110.317 46.2 110.262C46.2 110.207 46.2 110.152 46.2 110.096C46.2 110.041 46.2 109.986 46.2 109.931C46.2 109.876 46.2 109.821 46.2 109.766C46.2 109.711 46.2 109.655 46.2 109.6C46.2 109.545 46.2 109.49 46.2 109.435C46.2 109.379 46.2 109.324 46.2 109.269C46.2 109.214 46.2 109.158 46.2 109.103C46.2 109.048 46.2 108.992 46.2 108.937C46.2 108.881 46.2 108.826 46.2 108.771C46.2 108.715 46.2 108.66 46.2 108.604C46.2 108.549 46.2 108.493 46.2 108.438C46.2 108.382 46.2 108.327 46.2 108.271C46.2 108.216 46.2 108.16 46.2 108.105C46.2 108.049 46.2 107.994 46.2 107.938C46.2 107.882 46.2 107.827 46.2 107.771C46.2 107.716 46.2 107.66 46.2 107.604C46.2 107.549 46.2 107.493 46.2 107.437C46.2 107.382 46.2 107.326 46.2 107.27C46.2 107.214 46.2 107.159 46.2 107.103C46.2 107.047 46.2 106.991 46.2 106.935C46.2 106.88 46.2 106.824 46.2 106.768C46.2 106.712 46.2 106.656 46.2 106.601C46.2 106.545 46.2 106.489 46.2 106.433C46.2 106.377 46.2 106.321 46.2 106.265C46.2 106.209 46.2 106.153 46.2 106.097C46.2 106.041 46.2 105.986 46.2 105.93C46.2 105.874 46.2 105.818 46.2 105.762C46.2 105.706 46.2 105.65 46.2 105.594C46.2 105.538 46.2 105.482 46.2 105.426C46.2 105.37 46.2 105.313 46.2 105.257C46.2 105.201 46.2 105.145 46.2 105.089C46.2 105.033 46.2 104.977 46.2 104.921C46.2 104.865 46.2 104.809 46.2 104.753C46.2 104.696 46.2 104.64 46.2 104.584C46.2 104.528 46.2 104.472 46.2 104.416C46.2 104.36 46.2 104.303 46.2 104.247C46.2 104.191 46.2 104.135 46.2 104.079C46.2 104.023 46.2 103.966 46.2 103.91C46.2 103.854 46.2 103.798 46.2 103.741C46.2 103.685 46.2 103.629 46.2 103.573C46.2 103.517 46.2 103.46 46.2 103.404C46.2 103.348 46.2 103.292 46.2 103.235C46.2 103.179 46.2 103.123 46.2 103.066C46.2 103.01 46.2 102.954 46.2 102.898C46.2 102.841 46.2 102.785 46.2 102.729C46.2 102.672 46.2 102.616 46.2 102.56C46.2 102.504 46.2 102.447 46.2 102.391C46.2 102.335 46.2 102.278 46.2 102.222C46.2 102.166 46.2 102.109 46.2 102.053C46.2 101.997 46.2 101.94 46.2 101.884C46.2 101.828 46.2 101.771 46.2 101.715C46.2 101.659 46.2 101.602 46.2 101.546C46.2 101.49 46.2 101.433 46.2 101.377C46.2 101.321 46.2 101.264 46.2 101.208C46.2 101.152 46.2 101.095 46.2 101.039C46.2 100.983 46.2 100.926 46.2 100.87C46.2 100.814 46.2 100.757 46.2 100.701C46.2 100.645 46.2 100.588 46.2 100.532C46.2 100.476 46.2 100.419 46.2 100.363C46.2 100.307 46.2 100.25 46.2 100.194C46.2 100.138 46.2 100.081 46.2 100.025C46.2 99.9685 46.2 99.9122 46.2 99.8559C46.2 99.7996 46.2 99.7432 46.2 99.6869C46.2 99.6306 46.2 99.5743 46.2 99.518C46.2 99.4616 46.2 99.4053 46.2 99.349C46.2 99.2927 46.2 99.2364 46.2 99.1801C46.2 99.1238 46.2 99.0675 46.2 99.0112C46.2 98.9549 46.2 98.8986 46.2 98.8424C46.2 98.7861 46.2 98.7298 46.2 98.6735C46.2 98.6173 46.2 98.561 46.2 98.5047C46.2 98.4485 46.2 98.3922 46.2 98.336C46.2 98.2797 46.2 98.2235 46.2 98.1673C46.2 98.111 46.2 98.0548 46.2 97.9986C46.2 97.9424 46.2 97.8862 46.2 97.83C46.2 97.7738 46.2 97.7176 46.2 97.6614C46.2 97.6052 46.2 97.549 46.2 97.4929C46.2 97.4367 46.2 97.3805 46.2 97.3244C46.2 97.2682 46.2 97.2121 46.2 97.1559C46.2 97.0998 46.2 97.0437 46.2 96.9876C46.2 96.9314 46.2 96.8753 46.2 96.8193C46.2 96.7632 46.2 96.7071 46.2 96.651C46.2 96.5949 46.2 96.5389 46.2 96.4828C46.2 96.4268 46.2 96.3707 46.2 96.3147C46.2 96.2587 46.2 96.2026 46.2 96.1466C46.2 96.0906 46.2 96.0346 46.2 95.9787C46.2 95.9227 46.2 95.8667 46.2 95.8108C46.2 95.7548 46.2 95.6989 46.2 95.6429C46.2 95.587 46.2 95.5311 46.2 95.4752C46.2 95.4193 46.2 95.3634 46.2 95.3075C46.2 95.2516 46.2 95.1958 46.2 95.1399C46.2 95.0841 46.2 95.0283 46.2 94.9724C46.2 94.9166 46.2 94.8608 46.2 94.805C46.2 94.7493 46.2 94.6935 46.2 94.6377C46.2 94.582 46.2 94.5262 46.2 94.4705C46.2 94.4148 46.2 94.3591 46.2 94.3034C46.2 94.2477 46.2 94.192 46.2 94.1364C46.2 94.0807 46.2 94.0251 46.2 93.9695C46.2 93.9138 46.2 93.8582 46.2 93.8027C46.2 93.7471 46.2 93.6915 46.2 93.6359C46.2 93.5804 46.2 93.5249 46.2 93.4694C46.2 93.4138 46.2 93.3584 46.2 93.3029C46.2 93.2474 46.2 93.1919 46.2 93.1365C46.2 93.0811 46.2 93.0257 46.2 92.9703C46.2 92.9149 46.2 92.8595 46.2 92.8041C46.2 92.7488 46.2 92.6935 46.2 92.6381C46.2 92.5828 46.2 92.5275 46.2 92.4723C46.2 92.417 46.2 92.3617 46.2 92.3065C46.2 92.2513 46.2 92.1961 46.2 92.1409C46.2 92.0857 46.2 92.0306 46.2 91.9754C46.2 91.9203 46.2 91.8652 46.2 91.8101C46.2 91.755 46.2 91.6999 46.2 91.6449C46.2 91.5898 46.2 91.5348 46.2 91.4798C46.2 91.4248 46.2 91.3698 46.2 91.3149C46.2 91.2599 46.2 91.205 46.2 91.1501C46.2 91.0952 46.2 91.0403 46.2 90.9855C46.2 90.9306 46.2 90.8758 46.2 90.821C46.2 90.7662 46.2 90.7114 46.2 90.6567C46.2 90.6019 46.2 90.5472 46.2 90.4925C46.2 90.4378 46.2 90.3831 46.2 90.3285C46.2 90.2738 46.2 90.2192 46.2 90.1646C46.2 90.11 46.2 90.0555 46.2 90.001C46.2 89.9464 46.2 89.8919 46.2 89.8374C46.2 89.783 46.2 89.7285 46.2 89.6741C46.2 89.6197 46.2 89.5653 46.2 89.5109C46.2 89.4566 46.2 89.4022 46.2 89.3479C46.2 89.2936 46.2 89.2393 46.2 89.1851C46.2 89.1308 46.2 89.0766 46.2 89.0224C46.2 88.9683 46.2 88.9141 46.2 88.86C46.2 88.8059 46.2 88.7518 46.2 88.6977C46.2 88.6436 46.2 88.5896 46.2 88.5356C46.2 88.4816 46.2 88.4276 46.2 88.3737C46.2 88.3198 46.2 88.2659 46.2 88.212C46.2 88.1581 46.2 88.1043 46.2 88.0505C46.2 87.9967 46.2 87.9429 46.2 87.8892C46.2 87.8354 46.2 87.7817 46.2 87.728C46.2 87.6744 46.2 87.6207 46.2 87.5671C46.2 87.5135 46.2 87.46 46.2 87.4064C46.2 87.3529 46.2 87.2994 46.2 87.2459C46.2 87.1924 46.2 87.139 46.2 87.0856C46.2 87.0322 46.2 86.9789 46.2 86.9255C46.2 86.8722 46.2 86.8189 46.2 86.7657C46.2 86.7124 46.2 86.6592 46.2 86.606C46.2 86.5528 46.2 86.4997 46.2 86.4466C46.2 86.3935 46.2 86.3404 46.2 86.2874C46.2 86.2344 46.2 86.1814 46.2 86.1284C46.2 86.0755 46.2 86.0225 46.2 85.9697C46.2 85.9168 46.2 85.8639 46.2 85.8111C46.2 85.7583 46.2 85.7056 46.2 85.6529C46.2 85.6001 46.2 85.5474 46.2 85.4948C46.2 85.4422 46.2 85.3896 46.2 85.337C46.2 85.2844 46.2 85.2319 46.2 85.1794C46.2 85.1269 46.2 85.0745 46.2 85.0221C46.2 84.9697 46.2 84.9173 46.2 84.865C46.2 84.8127 46.2 84.7604 46.2 84.7082C46.2 84.6559 46.2 84.6037 46.2 84.5516C46.2 84.4994 46.2 84.4473 46.2 84.3952C46.2 84.3432 46.2 84.2912 46.2 84.2392C46.2 84.1872 46.2 84.1353 46.2 84.0834C46.2 84.0315 46.2 83.9796 46.2 83.9278C46.2 83.876 46.2 83.8242 46.2 83.7725C46.2 83.7208 46.2 83.6691 46.2 83.6175C46.2 83.5659 46.2 83.5143 46.2 83.4627C46.2 83.4112 46.2 83.3597 46.2 83.3082C46.2 83.2568 46.2 83.2054 46.2 83.154C46.2 83.1027 46.2 83.0514 46.2 83.0001C46.2 82.9488 46.2 82.8976 46.2 82.8464C46.2 82.7953 46.2 82.7441 46.2 82.6931C46.2 82.642 46.2 82.591 46.2 82.54C46.2 82.489 46.2 82.4381 46.2 82.3872C46.2 82.3363 46.2 82.2855 46.2 82.2347C46.2 82.1839 46.2 82.1331 46.2 82.0824C46.2 82.0317 46.2 81.9811 46.2 81.9305C46.2 81.8799 46.2 81.8294 46.2 81.7789C46.2 81.7284 46.2 81.6779 46.2 81.6276C46.2 81.5772 46.2 81.5268 46.2 81.4765C46.2 81.4262 46.2 81.376 46.2 81.3258C46.2 81.2756 46.2 81.2255 46.2 81.1754C46.2 81.1253 46.2 81.0753 46.2 81.0253C46.2 80.9753 46.2 80.9254 46.2 80.8755C46.2 80.8256 46.2 80.7758 46.2 80.726C46.2 80.6762 46.2 80.6265 46.2 80.5768C46.2 80.5272 46.2 80.4776 46.2 80.428C46.2 80.3784 46.2 80.3289 46.2 80.2795C46.2 80.23 46.2 80.1806 46.2 80.1313C46.2 80.0819 46.2 80.0327 46.2 79.9834C46.2 79.9342 46.2 79.885 46.2 79.8359C46.2 79.7868 46.2 79.7377 46.2 79.6887C46.2 79.6397 46.2 79.5907 46.2 79.5418C46.2 79.4929 46.2 79.4441 46.2 79.3953C46.2 79.3465 46.2 79.2978 46.2 79.2491C46.2 79.2004 46.2 79.1518 46.2 79.1032C46.2 79.0547 46.2 79.0062 46.2 78.9577C46.2 78.9093 46.2 78.8609 46.2 78.8126C46.2 78.7643 46.2 78.716 46.2 78.6678C46.2 78.6196 46.2 78.5714 46.2 78.5233C46.2 78.4752 46.2 78.4272 46.2 78.3792C46.2 78.3313 46.2 78.2834 46.2 78.2355C46.2 78.1876 46.2 78.1399 46.2 78.0921C46.2 78.0444 46.2 77.9967 46.2 77.9491C46.2 77.9015 46.2 77.854 46.2 77.8065C46.2 77.759 46.2 77.7116 46.2 77.6642C46.2 77.6168 46.2 77.5695 46.2 77.5223C46.2 77.475 46.2 77.4279 46.2 77.3808C46.2 77.3336 46.2 77.2866 46.2 77.2396C46.2 77.1926 46.2 77.1457 46.2 77.0988C46.2 77.052 46.2 77.0052 46.2 76.9584C46.2 76.9117 46.2 76.865 46.2 76.8184C46.2 76.7718 46.2 76.7253 46.2 76.6788C46.2 76.6323 46.2 76.5859 46.2 76.5396C46.2 76.4932 46.2 76.4469 46.2 76.4007C46.2 76.3545 46.2 76.3083 46.2 76.2623C46.2 76.2162 46.2 76.1702 46.2 76.1242C46.2 76.0783 46.2 76.0324 46.2 75.9865C46.2 75.9407 46.2 75.895 46.2 75.8493C46.2 75.8036 46.2 75.758 46.2 75.7124C46.2 75.6669 46.2 75.6214 46.2 75.576C46.2 75.5306 46.2 75.4852 46.2 75.44C46.2 75.3947 46.2 75.3495 46.2 75.3043C46.2 75.2592 46.2 75.2141 46.2 75.1691C46.2 75.1241 46.2 75.0792 46.2 75.0344C46.2 74.9895 46.2 74.9447 46.2 74.9C46.2 74.8553 46.2 74.8106 46.2 74.766C46.2 74.7215 46.2 74.677 46.2 74.6325C46.2 74.5881 46.2 74.5437 46.2 74.4994C46.2 74.4551 46.2 74.4109 46.2 74.3668C46.2 74.3226 46.2 74.2785 46.2 74.2345C46.2 74.1905 46.2 74.1466 46.2 74.1027C46.2 74.0589 46.2 74.0151 46.2 73.9714C46.2 73.9277 46.2 73.884 46.2 73.8404C46.2 73.7969 46.2 73.7534 46.2 73.71C46.2 73.6666 46.2 73.6232 46.2 73.5799C46.2 73.5367 46.2 73.4935 46.2 73.4504C46.2 73.4072 46.2 73.3642 46.2 73.3212C46.2 73.2783 46.2 73.2354 46.2 73.1925C46.2 73.1497 46.2 73.107 46.2 73.0643C46.2 73.0216 46.2 72.9791 46.2 72.9366C46.2 72.894 46.2 72.8516 46.2 72.8092C46.2 72.7669 46.2 72.7246 46.2 72.6824C46.2 72.6402 46.2 72.5981 46.2 72.556C46.2 72.514 46.2 72.472 46.2 72.4301C46.2 72.3882 46.2 72.3464 46.2 72.3047C46.2 72.2629 46.2 72.2213 46.2 72.1797C46.2 72.1381 46.2 72.0966 46.2 72.0552C46.2 72.0138 46.2 71.9725 46.2 71.9312C46.2 71.8899 46.2 71.8488 46.2 71.8077C46.2 71.7666 46.2 71.7256 46.2 71.6846C46.2 71.6437 46.2 71.6028 46.2 71.5621C46.2 71.5213 46.2 71.4806 46.2 71.44C46.2 71.3994 46.2 71.3589 46.2 71.3184C46.2 71.278 46.2 71.2376 46.2 71.1973C46.2 71.1571 46.2 71.1169 46.2 71.0767C46.2 71.0366 46.2 70.9966 46.2 70.9566C46.2 70.9167 46.2 70.8768 46.2 70.8371C46.2 70.7973 46.2 70.7576 46.2 70.718C46.2 70.6784 46.2 70.6388 46.2 70.5994C46.2 70.56 46.2 70.5206 46.2 70.4813C46.2 70.4421 46.2 70.4029 46.2 70.3638C46.2 70.3247 46.2 70.2856 46.2 70.2467C46.2 70.2078 46.2 70.1689 46.2 70.1302C46.2 70.0914 46.2 70.0528 46.2 70.0142C46.2 69.9756 46.2 69.9371 46.2 69.8987C46.2 69.8603 46.2 69.822 46.2 69.7837C46.2 69.7455 46.2 69.7074 46.2 69.6693C46.2 69.6312 46.2 69.5933 46.2 69.5554C46.2 69.5175 46.2 69.4797 46.2 69.442C46.2 69.4043 46.2 69.3667 46.2 69.3292C46.2 69.2917 46.2 69.2542 46.2 69.2169C46.2 69.1795 46.2 69.1423 46.2 69.1051C46.2 69.068 46.2 69.0309 46.2 68.9939C46.2 68.9569 46.2 68.92 46.2 68.8832C46.2 68.8464 46.2 68.8097 46.2 68.7731C46.2 68.7365 46.2 68.7 46.2 68.6635C46.2 68.6271 46.2 68.5908 46.2 68.5545C46.2 68.5183 46.2 68.4821 46.2 68.446C46.2 68.41 46.2 68.374 46.2 68.3381C46.2 68.3022 46.2 68.2665 46.2 68.2308C46.2 68.1951 46.2 68.1595 46.2 68.124C46.2 68.0885 46.2 68.0531 46.2 68.0178C46.2 67.9825 46.2 67.9472 46.2 67.9121C46.2 67.877 46.2 67.842 46.2 67.807C46.2 67.7721 46.2 67.7373 46.2 67.7025C46.2 67.6678 46.2 67.6331 46.2 67.5986C46.2 67.564 46.2 67.5296 46.2 67.4952C46.2 67.4609 46.2 67.4266 46.2 67.3924C46.2 67.3583 46.2 67.3242 46.2 67.2903C46.2 67.2563 46.2 67.2224 46.2 67.1886C46.2 67.1549 46.2 67.1212 46.2 67.0876C46.2 67.0541 46.2 67.0206 46.2 66.9872C46.2 66.9538 46.2 66.9205 46.2 66.8874C46.2 66.8542 46.2 66.8211 46.2 66.7881C46.2 66.7551 46.2 66.7223 46.2 66.6895C46.2 66.6567 46.2 66.624 46.2 66.5915C46.2 66.5589 46.2 66.5264 46.2 66.494C46.2 66.4616 46.2 66.4294 46.2 66.3972C46.2 66.365 46.2 66.3329 46.2 66.301C46.2 66.269 46.2 66.2371 46.2 66.2054C46.2 66.1736 46.2 66.1419 46.2 66.1104C46.2 66.0788 46.2 66.0473 46.2 66.016C46.2 65.9846 46.2 65.9534 46.2 65.9222C46.2 65.8911 46.2 65.86 46.2 65.8291H45ZM45 137.986V139.186H115V137.986V136.786H45V137.986ZM115 137.986H116.2V65.8291H115H113.8V137.986H115ZM115 65.8291L116.197 65.7457C115.954 62.2524 114.553 57.0582 111.118 52.7087C107.644 48.3103 102.123 44.8264 93.816 44.8264V46.0264V47.2264C101.351 47.2264 106.192 50.3435 109.235 54.1962C112.316 58.0978 113.586 62.8049 113.803 65.9125L115 65.8291ZM93.816 46.0264H95.016V23H93.816H92.616V46.0264H93.816Z" fill="white"/>
<path d="M76.3177 120.702L75.4692 121.551L77.5177 123.599V120.702H76.3177ZM69.7977 112.486C69.3291 112.017 68.5693 112.017 68.1007 112.486C67.6321 112.954 67.6321 113.714 68.1007 114.183L68.9492 113.334L69.7977 112.486ZM76.3177 62.6758H75.1177V120.702H76.3177H77.5177V62.6758H76.3177ZM76.3177 120.702L77.1663 119.854L69.7977 112.486L68.9492 113.334L68.1007 114.183L75.4692 121.551L76.3177 120.702Z" fill="white"/>
<path d="M84.8875 67.2812C84.8875 66.6185 84.3502 66.0812 83.6875 66.0812C83.0248 66.0812 82.4875 66.6185 82.4875 67.2812H83.6875H84.8875ZM83.6875 67.2812H82.4875V69.222H83.6875H84.8875V67.2812H83.6875ZM83.6875 73.1036H82.4875V76.9852H83.6875H84.8875V73.1036H83.6875ZM83.6875 80.8667H82.4875V84.7483H83.6875H84.8875V80.8667H83.6875ZM83.6875 88.6299H82.4875V92.5115H83.6875H84.8875V88.6299H83.6875ZM83.6875 96.393H82.4875V100.275H83.6875H84.8875V96.393H83.6875ZM83.6875 104.156H82.4875V108.038H83.6875H84.8875V104.156H83.6875ZM83.6875 111.919H82.4875V115.801H83.6875H84.8875V111.919H83.6875ZM83.6875 119.682H82.4875V121.623H83.6875H84.8875V119.682H83.6875Z" fill="white"/>
<path d="M83.6875 62.6758L84.536 61.8273L82.4875 59.7787V62.6758H83.6875ZM82.4875 69.1232C82.4875 69.7859 83.0248 70.3232 83.6875 70.3232C84.3502 70.3232 84.8875 69.7859 84.8875 69.1232H83.6875H82.4875ZM91.977 70.9653L92.8255 70.1167L84.536 61.8273L83.6875 62.6758L82.839 63.5243L91.1285 71.8138L91.977 70.9653ZM83.6875 62.6758H82.4875V69.1232H83.6875H84.8875V62.6758H83.6875Z" fill="white"/>
<path d="M110.256 78.7617C105.115 78.7617 94.832 81.716 94.832 93.5334C99.9739 95.2313 110.256 94.654 110.256 78.7617Z" fill="white" fill-opacity="0.48"/>
<path d="M95.7754 90.7998C95.2828 91.2432 95.2428 92.0019 95.6861 92.4945C96.1295 92.9872 96.8882 93.0271 97.3809 92.5838L96.5781 91.6918L95.7754 90.7998ZM105.789 83.4023L104.987 82.5104L95.7754 90.7998L96.5781 91.6918L97.3809 92.5838L106.592 84.2943L105.789 83.4023Z" fill="white"/>
<path d="M53.3047 93.9968C54.5564 98.6618 59.8627 107.243 71.0741 104.242C71.4333 99.1463 68.3822 89.9621 53.3047 93.9968Z" fill="white" fill-opacity="0.48"/>
<path d="M59.5522 95.2476C58.9964 94.8866 58.2532 95.0444 57.8922 95.6002C57.5311 96.1559 57.6889 96.8991 58.2447 97.2602L58.8984 96.2539L59.5522 95.2476ZM58.8984 96.2539L58.2447 97.2602L68.6356 104.011L69.2894 103.005L69.9431 101.998L59.5522 95.2476L58.8984 96.2539Z" fill="white"/>
</svg>
