<svg width="160" height="160" viewBox="0 0 160 160" fill="none" xmlns="http://www.w3.org/2000/svg">
<path d="M67.1138 78.6424L46.1935 131.074C44.4919 135.353 47.6501 139.998 52.2774 139.998H105.723C110.35 139.998 113.508 135.353 111.806 131.074L90.874 78.6424V54.6025C90.874 52.5788 89.2336 50.9453 87.2016 50.9453H70.7861C68.7541 50.9453 67.1138 52.5788 67.1138 54.6025V78.6424Z" stroke="white" stroke-width="2.4" stroke-miterlimit="10"/>
<path d="M98.1584 110.291C95.8323 109.926 93.5799 110.011 91.6825 110.877C83.7013 114.57 79.9922 112.01 70.2849 109.45C67.4204 108.694 63.4298 109.804 59.2311 111.742L52.682 128.139C51.311 131.564 53.8449 135.294 57.5541 135.294H100.399C104.107 135.294 106.642 131.576 105.271 128.139L98.1584 110.291Z" fill="white" fill-opacity="0.41" stroke="white" stroke-width="2.4" stroke-miterlimit="10"/>
<path d="M84.8379 104.136C87.2379 104.136 89.1835 102.198 89.1835 99.8084C89.1835 97.418 87.2379 95.4805 84.8379 95.4805C82.4378 95.4805 80.4922 97.418 80.4922 99.8084C80.4922 102.198 82.4378 104.136 84.8379 104.136Z" fill="#E9D0CC" stroke="white" stroke-width="2.4" stroke-miterlimit="10"/>
<path d="M76.1491 89.6301C77.7244 89.6301 79.0014 88.3584 79.0014 86.7897C79.0014 85.2209 77.7244 83.9492 76.1491 83.9492C74.5739 83.9492 73.2969 85.2209 73.2969 86.7897C73.2969 88.3584 74.5739 89.6301 76.1491 89.6301Z" stroke="white" stroke-width="2.4" stroke-miterlimit="10"/>
<path d="M91.5332 29.7525C94.2374 29.7525 96.4294 27.5693 96.4294 24.8763C96.4294 22.1832 94.2374 20 91.5332 20C88.8289 20 86.6367 22.1832 86.6367 24.8763C86.6367 27.5693 88.8289 29.7525 91.5332 29.7525Z" fill="#E9D0CC"/>
<path d="M41.8965 80.6079C44.6008 80.6079 46.793 78.4248 46.793 75.7317C46.793 73.0386 44.6008 70.8555 41.8965 70.8555C39.1922 70.8555 37 73.0386 37 75.7317C37 78.4248 39.1922 80.6079 41.8965 80.6079Z" fill="#E9D0CC"/>
<path d="M50.9199 68.9049C53.6241 68.9049 55.8164 66.7217 55.8164 64.0287C55.8164 61.3355 53.6241 59.1523 50.9199 59.1523C48.2157 59.1523 46.0234 61.3355 46.0234 64.0287C46.0234 66.7217 48.2157 68.9049 50.9199 68.9049Z" fill="#E9D0CC"/>
<path d="M49.3655 48.0093C53.4895 48.0093 56.8327 44.68 56.8327 40.573C56.8327 36.466 53.4895 33.1367 49.3655 33.1367C45.2416 33.1367 41.8984 36.466 41.8984 40.573C41.8984 44.68 45.2416 48.0093 49.3655 48.0093Z" fill="white"/>
<path d="M79.7099 40.0471C80.8592 40.0471 81.791 39.1193 81.791 37.9747C81.791 36.8302 80.8592 35.9023 79.7099 35.9023C78.5606 35.9023 77.6289 36.8302 77.6289 37.9747C77.6289 39.1193 78.5606 40.0471 79.7099 40.0471Z" fill="#E9D0CC"/>
<path d="M48.1903 67.4531L44.5547 72.0124" stroke="#DEE2E6" stroke-width="2.4" stroke-miterlimit="10"/>
<path d="M105.733 72.3775C108.437 72.3775 110.629 70.1943 110.629 67.5013C110.629 64.8082 108.437 62.625 105.733 62.625C103.028 62.625 100.836 64.8082 100.836 67.5013C100.836 70.1943 103.028 72.3775 105.733 72.3775Z" fill="#E9D0CC"/>
<path d="M111.551 54.5681C113.41 54.5681 114.917 53.0672 114.917 51.2157C114.917 49.3642 113.41 47.8633 111.551 47.8633C109.691 47.8633 108.184 49.3642 108.184 51.2157C108.184 53.0672 109.691 54.5681 111.551 54.5681Z" fill="#E9D0CC"/>
<path d="M118.806 65.4322C121.511 65.4322 123.703 63.249 123.703 60.5559C123.703 57.8628 121.511 55.6797 118.806 55.6797C116.102 55.6797 113.91 57.8628 113.91 60.5559C113.91 63.249 116.102 65.4322 118.806 65.4322Z" fill="#E9D0CC"/>
<path d="M114.903 62.5508L109.688 65.2083" stroke="#DEE2E6" stroke-width="2.4" stroke-miterlimit="10"/>
<path d="M116.043 56.7165L113.203 53.6445" stroke="#DEE2E6" stroke-width="2.4" stroke-miterlimit="10"/>
</svg>
