<svg width="160" height="160" viewBox="0 0 160 160" fill="none" xmlns="http://www.w3.org/2000/svg">
<path d="M77.1406 132.332C87.3579 132.332 95.6406 109.051 95.6406 80.3321C95.6406 51.6133 87.3579 28.332 77.1406 28.332C66.9233 28.332 58.6406 51.6133 58.6406 80.3321C58.6406 109.051 66.9233 132.332 77.1406 132.332Z" stroke="white" stroke-width="2" stroke-miterlimit="10"/>
<path d="M123.97 102.442C128.338 92.9541 110.914 75.3643 85.0516 63.1536C59.1888 50.9429 34.6808 48.7352 30.3117 58.2225C25.9425 67.7099 43.3666 85.2997 69.2295 97.5102C95.0925 109.721 119.6 111.929 123.97 102.442Z" stroke="white" stroke-width="2" stroke-miterlimit="10"/>
<path d="M89.2088 94.296C111.131 75.7935 123.501 54.3184 116.836 46.3302C110.17 38.3421 86.9952 46.8658 65.0723 65.3683C43.1494 83.8709 30.7805 105.346 37.4456 113.334C44.1106 121.322 67.2858 112.798 89.2088 94.296Z" stroke="white" stroke-width="2" stroke-miterlimit="10"/>
<path d="M44.6406 34.5149C44.6406 31.3061 50.6406 24.332 50.6406 24.332C50.6406 24.332 56.6406 31.3061 56.6406 34.5149C56.6406 37.7236 53.9502 40.332 50.6406 40.332C47.331 40.332 44.6406 37.7236 44.6406 34.5149Z" fill="#E9D0CC"/>
<path d="M42.6406 117.786C42.6406 114.177 49.1406 106.332 49.1406 106.332C49.1406 106.332 55.6406 114.177 55.6406 117.786C55.6406 121.395 52.7348 124.332 49.1406 124.332C45.5465 124.332 42.6406 121.395 42.6406 117.786Z" fill="#E9D0CC"/>
<path d="M117 91.9641C117 88.1945 123.838 80 123.838 80C123.838 80 130.677 88.1945 130.677 91.9641C130.677 95.7338 127.619 98.8024 123.838 98.8024C120.057 98.8024 117 95.7338 117 91.9641Z" fill="#E9D0CC"/>
<path d="M77.1406 86.332C80.7305 86.332 83.6406 83.6457 83.6406 80.332C83.6406 77.0183 80.7305 74.332 77.1406 74.332C73.5507 74.332 70.6406 77.0183 70.6406 80.332C70.6406 83.6457 73.5507 86.332 77.1406 86.332Z" fill="white"/>
</svg>
