<svg width="160" height="160" viewBox="0 0 160 160" fill="none" xmlns="http://www.w3.org/2000/svg">
<path d="M82.7717 89.6914C82.7717 90.1529 83.234 90.6145 83.4652 91.076C83.4652 91.5376 83.9275 91.9991 84.1586 92.4607L84.8521 93.6145C84.8521 94.076 85.3144 94.5376 85.5456 94.9991L86.0079 96.3837C86.239 97.076 86.4702 97.5376 86.7013 97.9991C86.7013 98.4606 86.7013 98.6914 86.7013 98.9222C88.3194 104.23 83.4652 107.461 79.9978 107.461C76.5305 107.461 71.6762 104.23 73.0632 98.9222C73.0632 98.6914 73.0631 98.2299 73.2943 97.9991C73.2943 97.5376 73.7566 96.8453 73.9878 96.3837L74.4501 94.9991C74.4501 94.5376 74.9124 94.076 75.1436 93.6145L75.837 92.4607C75.837 91.9991 76.2994 91.5376 76.5305 91.3068C76.7617 90.8453 76.9928 90.3837 77.2239 89.9222" stroke="white" stroke-width="3" stroke-linecap="round" stroke-linejoin="round"/>
<path d="M102.195 68C103.351 70.3077 104.507 72.6154 105.432 74.9231" stroke="white" stroke-width="3" stroke-linecap="round" stroke-linejoin="round"/>
<path d="M96.4141 56.4609C97.3387 58.5379 98.4945 60.384 99.4191 62.4609" stroke="white" stroke-width="3" stroke-linecap="round" stroke-linejoin="round"/>
<path d="M108.203 81.1562C109.359 83.9255 110.515 86.6947 111.439 89.2332" stroke="white" stroke-width="3" stroke-linecap="round" stroke-linejoin="round"/>
<path d="M96.6438 89.6914C97.5684 92.2299 98.493 94.5375 99.1865 96.6145C103.578 111.614 89.9403 120.153 80.2317 120.153C70.5232 120.153 56.885 111.384 61.2769 96.6145C61.7393 94.5375 62.6639 92.2299 63.8197 89.6914" stroke="white" stroke-width="3" stroke-linecap="round" stroke-linejoin="round"/>
<path d="M57.8065 68C56.6507 70.3077 55.4949 72.6154 54.5703 74.9231" stroke="white" stroke-width="3" stroke-linecap="round" stroke-linejoin="round"/>
<path d="M96.1761 55.7691C88.0857 39.8461 79.9952 26 79.9952 26C79.9952 26 71.9048 40.0769 63.5832 56.2307C62.6585 58.3076 61.5027 60.1538 60.5781 62.2307" stroke="white" stroke-width="3" stroke-linecap="round" stroke-linejoin="round"/>
<path d="M52.0263 81.1523C50.8705 83.9216 49.7147 86.6908 48.7901 89.2292C48.3278 90.8446 47.8655 92.2293 47.4032 93.6139C40.0062 118.998 63.1218 133.998 79.9961 133.998C96.6394 133.998 119.755 118.998 112.589 93.6139C112.358 92.46 111.896 91.3062 111.433 89.9216" stroke="white" stroke-width="3" stroke-linecap="round" stroke-linejoin="round"/>
<path d="M34 51.8477H126" stroke="white" stroke-width="3" stroke-linecap="round" stroke-linejoin="round"/>
<path d="M34 89.6914H126" stroke="white" stroke-width="3" stroke-linecap="round" stroke-linejoin="round"/>
<ellipse cx="71.9117" cy="66.3852" rx="1.84925" ry="1.84615" fill="white"/>
<ellipse cx="85.5446" cy="65.6899" rx="1.84925" ry="1.84615" fill="white"/>
<ellipse cx="80.693" cy="75.8462" rx="1.84925" ry="1.84615" fill="white"/>
<ellipse cx="92.2555" cy="80.2329" rx="1.84925" ry="1.84615" fill="white"/>
<ellipse cx="65.2086" cy="80.2329" rx="1.84925" ry="1.84615" fill="white"/>
</svg>
