<svg width="24" height="24" viewBox="0 0 24 24" fill="none" xmlns="http://www.w3.org/2000/svg">
<g clip-path="url(#clip0_2541_2425)">
<path d="M12.0005 13.6452L13.4264 14.3944C13.7043 14.5406 14.0285 14.3042 13.9757 13.9954L13.7035 12.4078L14.8572 11.2841C15.0823 11.0655 14.958 10.6837 14.6476 10.639L13.0535 10.4074L12.3409 8.9628C12.202 8.68167 11.8006 8.68167 11.6625 8.9628L10.9499 10.4082L9.3558 10.6398C9.04542 10.6853 8.92111 11.0664 9.14617 11.2849L10.2999 12.4086L10.0269 13.9962C9.97411 14.305 10.2983 14.5406 10.5762 14.3952L12.0021 13.646" fill="#5D013B"/>
<path d="M12.0005 13.6452L13.4264 14.3944C13.7043 14.5406 14.0285 14.3042 13.9757 13.9954L13.7035 12.4078L14.8572 11.2841C15.0823 11.0655 14.958 10.6837 14.6476 10.639L13.0535 10.4074L12.3409 8.9628C12.202 8.68167 11.8006 8.68167 11.6625 8.9628L10.9499 10.4082L9.3558 10.6398C9.04542 10.6853 8.92111 11.0664 9.14617 11.2849L10.2999 12.4086L10.0269 13.9962C9.97411 14.305 10.2983 14.5406 10.5762 14.3952L12.0021 13.646" stroke="#5D013B" stroke-width="1.21875" stroke-linecap="round" stroke-linejoin="round"/>
<path d="M9.60195 16.6543C9.57676 16.6543 9.55158 16.6551 9.52639 16.6567C7.99483 16.7518 6.89307 17.8446 6.7842 19.3754C6.75982 19.7255 6.88739 20.07 7.13439 20.3195C7.36351 20.551 7.67551 20.6802 7.9997 20.6802C8.02489 20.6802 8.05008 20.6794 8.07526 20.6778C9.60683 20.5827 10.7086 19.4899 10.8175 17.9592C10.8418 17.609 10.7143 17.2645 10.4673 17.015C10.2381 16.7835 9.92614 16.6543 9.60195 16.6543Z" fill="#5D013B"/>
<path d="M5.26545 13.459C4.56101 13.459 3.88989 13.7222 3.32601 14.2203C3.06276 14.4527 2.91245 14.7874 2.91408 15.1392C2.9157 15.4902 3.06845 15.8242 3.33414 16.0549C3.89558 16.5424 4.5602 16.8 5.25651 16.8C5.96095 16.8 6.63126 16.5367 7.19514 16.0387C7.45839 15.8063 7.6087 15.4715 7.60708 15.1197C7.60545 14.7687 7.4527 14.4348 7.18701 14.204C6.62639 13.7165 5.96176 13.459 5.26545 13.459Z" fill="#5D013B"/>
<path d="M3.88278 7.92773C3.56672 7.92773 3.26122 8.05123 3.0329 8.27305C2.78103 8.51842 2.64778 8.85967 2.66565 9.21067C2.74772 10.756 3.83891 11.8765 5.38103 12C5.41353 12.0024 5.44603 12.004 5.47853 12.004C5.79459 12.004 6.10009 11.8805 6.3284 11.6587C6.58028 11.4134 6.71353 11.0721 6.69565 10.7211C6.61359 9.17573 5.52241 8.05448 3.98028 7.9318C3.94778 7.92855 3.91528 7.92773 3.88278 7.92773Z" fill="#5D013B"/>
<path d="M7.37434 3.31836C7.02496 3.31836 6.69184 3.46867 6.46027 3.7303C5.42027 4.90923 5.41377 6.49848 6.44402 7.68474C6.67477 7.95042 7.0079 8.10317 7.35971 8.1048C7.36134 8.1048 7.36296 8.1048 7.36459 8.1048C7.71396 8.1048 8.04709 7.95448 8.27865 7.69286C9.31865 6.51473 9.32515 4.92548 8.2949 3.73923C8.06415 3.47273 7.73021 3.31998 7.37921 3.31836C7.37759 3.31836 7.37596 3.31836 7.37434 3.31836Z" fill="#5D013B"/>
<path d="M14.3983 16.6543C14.0741 16.6543 13.7629 16.7835 13.533 17.015C13.2852 17.2645 13.1576 17.609 13.1828 17.9592C13.2909 19.4899 14.3926 20.5827 15.925 20.6778C15.9502 20.6794 15.9754 20.6802 16.0006 20.6802C16.3248 20.6802 16.6359 20.551 16.8659 20.3195C17.1137 20.07 17.2413 19.7255 17.2161 19.3754C17.108 17.8446 16.0063 16.7518 14.4739 16.6567C14.4487 16.6551 14.4235 16.6543 14.3983 16.6543Z" fill="#5D013B"/>
<path d="M18.7331 13.459C18.0368 13.459 17.3721 13.7165 16.8107 14.204C16.545 14.434 16.3923 14.7679 16.3906 15.1197C16.389 15.4707 16.5393 15.8063 16.8026 16.0387C17.3665 16.5367 18.0368 16.8 18.7412 16.8C19.4375 16.8 20.1021 16.5424 20.6636 16.0549C20.9293 15.825 21.082 15.491 21.0836 15.1392C21.0853 14.7882 20.935 14.4527 20.6717 14.2203C20.1078 13.7222 19.4375 13.459 18.7331 13.459Z" fill="#5D013B"/>
<path d="M20.1173 7.92773C20.0848 7.92773 20.0523 7.92936 20.0198 7.9318C18.4777 8.0553 17.3865 9.17573 17.3045 10.7211C17.2858 11.0721 17.4198 11.4142 17.6717 11.6587C17.9 11.8814 18.2055 12.004 18.5216 12.004C18.5541 12.004 18.5866 12.0024 18.6191 12C20.1612 11.8765 21.2524 10.756 21.3345 9.21067C21.3531 8.85967 21.2191 8.51761 20.9672 8.27305C20.7389 8.05042 20.4334 7.92773 20.1173 7.92773Z" fill="#5D013B"/>
<path d="M16.6283 3.31836C16.6266 3.31836 16.625 3.31836 16.6234 3.31836C16.2724 3.31998 15.9384 3.47273 15.7077 3.73842C14.6774 4.92548 14.6839 6.51392 15.7239 7.69205C15.9555 7.95448 16.2878 8.10398 16.638 8.10398C16.6396 8.10398 16.6413 8.10398 16.6429 8.10398C16.9939 8.10236 17.3278 7.94961 17.5586 7.68392C18.5888 6.49686 18.5823 4.90842 17.5423 3.7303C17.3108 3.46867 16.9776 3.31836 16.6283 3.31836Z" fill="#5D013B"/>
</g>
<defs>
<clipPath id="clip0_2541_2425">
<rect width="19.5" height="19.5" fill="white" transform="translate(2.25 2.25)"/>
</clipPath>
</defs>
</svg>
