<svg width="64" height="64" viewBox="0 0 64 64" fill="none" xmlns="http://www.w3.org/2000/svg">
<g clip-path="url(#clip0_2541_2032)">
<path d="M51.74 48.1H48.23V11.68C48.23 9.92 46.8 8.5 45.05 8.5C43.3 8.5 41.87 9.93 41.87 11.68V16.67H28.01V13.94C29.51 13.86 30.7 12.58 30.59 11.04C30.49 9.59 29.18 8.51 27.72 8.51H17.23C15.77 8.51 14.46 9.59 14.36 11.04C14.3345 11.4008 14.3815 11.763 14.4981 12.1054C14.6147 12.4477 14.7987 12.7633 15.0391 13.0335C15.2795 13.3037 15.5715 13.5231 15.898 13.6788C16.2244 13.8345 16.5787 13.9233 16.94 13.94V16.67H13.35V18.67H16.94V24.65L13.94 30.15L13.45 31.04L12.84 32.15L8.94 39.3C8.45 40.19 8.36 41.28 8.8 42.2C9.04677 42.7169 9.43535 43.153 9.92046 43.4575C10.4056 43.762 10.9672 43.9224 11.54 43.92H33.26C34.22 43.92 35.18 43.54 35.78 42.78C36.56 41.79 36.66 40.5 36.07 39.43L31.01 30.15L28.01 24.65V18.67H41.86V48.1H12.26C10.18 48.1 8.5 49.78 8.5 51.86V55.5H55.5V51.86C55.5 49.78 53.82 48.1 51.74 48.1ZM28.73 30.15H16.22L18.95 25.16V20.15H20.18V15.02H18.95V13.95H26.02V15.02H24.84V20.15H26.02V25.16L28.73 30.15Z" fill="#5D013B"/>
</g>
<defs>
<clipPath id="clip0_2541_2032">
<rect width="48" height="48" fill="white" transform="translate(8 8)"/>
</clipPath>
</defs>
</svg>
