<svg width="64" height="64" viewBox="0 0 64 64" fill="none" xmlns="http://www.w3.org/2000/svg">
<path d="M23.2225 45.3017C22.9237 45.9174 22.4248 46.4136 21.8075 46.7092C21.1902 47.0048 20.4909 47.0823 19.8239 46.9291C19.1568 46.7759 18.5614 46.4009 18.135 45.8656C17.7085 45.3302 17.4763 44.6661 17.4761 43.9816C17.4747 43.5237 17.5801 43.0717 17.7841 42.6617C18.0313 42.1513 18.4173 41.7209 18.8978 41.4197C19.3784 41.1186 19.934 40.9589 20.5011 40.9589C21.0682 40.9589 21.6238 41.1186 22.1043 41.4197C22.5849 41.7209 22.9709 42.1513 23.2181 42.6617C23.422 43.0717 23.5275 43.5237 23.5261 43.9816C23.5263 44.439 23.4225 44.8904 23.2225 45.3017ZM48.3552 45.3017C48.0563 45.9174 47.5575 46.4136 46.9402 46.7091C46.3229 47.0047 45.6236 47.0822 44.9566 46.929C44.2896 46.7758 43.6942 46.4009 43.2678 45.8655C42.8414 45.3302 42.6091 44.6661 42.6089 43.9816C42.6075 43.5237 42.713 43.0717 42.9168 42.6617C43.1641 42.1513 43.55 41.7209 44.0306 41.4197C44.5111 41.1186 45.0667 40.9589 45.6338 40.9589C46.2009 40.9589 46.7566 41.1186 47.2371 41.4197C47.7176 41.7209 48.1036 42.1513 48.3508 42.6617C48.5549 43.0717 48.6604 43.5237 48.6589 43.9816C48.6592 44.439 48.5553 44.8904 48.3552 45.3017Z" fill="#F6F3EE"/>
<path d="M48.3998 25.9725L41.3905 24.6613L39.6305 24.208V42.6617H40.1276C40.4242 41.4244 41.1287 40.3231 42.1277 39.5352C43.1267 38.7473 44.3619 38.3189 45.6342 38.3189C46.9065 38.3189 48.1417 38.7473 49.1407 39.5352C50.1397 40.3231 50.8442 41.4244 51.1407 42.6617H51.3607V29.5365C51.3605 28.6903 51.0644 27.8708 50.5237 27.2199C49.9829 26.569 49.2316 26.1277 48.3998 25.9725Z" fill="#F6F3EE"/>
<path d="M48.887 23.3725L41.3896 21.9689V24.6617L48.3989 25.9729C49.2307 26.1282 49.9821 26.5695 50.5228 27.2204C51.0636 27.8713 51.3597 28.6907 51.3599 29.5369V42.6621H51.1399C50.8434 41.4249 50.1388 40.3235 49.1398 39.5357C48.1408 38.7478 46.9056 38.3193 45.6333 38.3193C44.3611 38.3193 43.1258 38.7478 42.1268 39.5357C41.1279 40.3235 40.4233 41.4249 40.1268 42.6621H39.6296V19.4917C39.6275 18.1301 39.086 16.8248 38.1236 15.8616C37.1611 14.8984 35.8563 14.3558 34.4947 14.3525H10V22.3244H24.3351V24.9644H10V29.4392H18.2147V32.0792H10V45.3021H14.9939C15.2894 46.5403 15.9936 47.6428 16.9927 48.4315C17.9918 49.2203 19.2276 49.6493 20.5005 49.6493C21.7735 49.6493 23.0093 49.2203 24.0084 48.4315C25.0075 47.6428 25.7117 46.5403 26.0071 45.3021H40.1268C40.4222 46.5403 41.1264 47.6428 42.1255 48.4316C43.1246 49.2203 44.3604 49.6493 45.6333 49.6493C46.9063 49.6493 48.1421 49.2203 49.1412 48.4316C50.1403 47.6428 50.8444 46.5403 51.1399 45.3021H53.9999V29.5369C53.9993 28.0747 53.4881 26.6586 52.5546 25.5331C51.6211 24.4077 50.3239 23.6435 48.887 23.3725ZM23.222 45.3021C22.9232 45.9179 22.4244 46.4141 21.807 46.7097C21.1897 47.0053 20.4904 47.0828 19.8234 46.9296C19.1563 46.7763 18.5609 46.4014 18.1345 45.8661C17.7081 45.3307 17.4758 44.6666 17.4756 43.9821C17.4742 43.5242 17.5796 43.0722 17.7836 42.6621C18.0308 42.1518 18.4168 41.7214 18.8973 41.4202C19.3779 41.1191 19.9335 40.9593 20.5006 40.9593C21.0677 40.9593 21.6233 41.1191 22.1039 41.4202C22.5844 41.7214 22.9704 42.1518 23.2176 42.6621C23.4216 43.0722 23.527 43.5242 23.5256 43.9821C23.5259 44.4395 23.422 44.8909 23.222 45.3021ZM48.3547 45.3021C48.0558 45.9179 47.557 46.414 46.9397 46.7096C46.3224 47.0052 45.6231 47.0827 44.9561 46.9295C44.2891 46.7763 43.6937 46.4013 43.2673 45.866C42.8409 45.3307 42.6086 44.6665 42.6084 43.9821C42.6071 43.5242 42.7125 43.0722 42.9163 42.6621C43.1636 42.1518 43.5496 41.7214 44.0301 41.4202C44.5106 41.1191 45.0662 40.9593 45.6333 40.9593C46.2004 40.9593 46.7561 41.1191 47.2366 41.4202C47.7171 41.7214 48.1031 42.1518 48.3504 42.6621C48.5544 43.0722 48.6599 43.5242 48.6584 43.9821C48.6587 44.4395 48.5548 44.8909 48.3547 45.3021Z" fill="#5D013B"/>
</svg>
