<svg width="64" height="64" viewBox="0 0 64 64" fill="none" xmlns="http://www.w3.org/2000/svg">
<path d="M16.145 50.0002H14.78L17.75 43.0402C18.3257 43.5054 18.932 43.9314 19.565 44.3152L16.145 50.0002ZM17 29.0002C17.0008 25.9476 18.1646 23.0101 20.2548 20.7853C22.3449 18.5605 25.2042 17.2158 28.2507 17.0246C31.2973 16.8335 34.3022 17.8104 36.654 19.7565C39.0058 21.7026 40.5277 24.4716 40.91 27.5002H37.865C37.4888 25.2751 36.2906 23.2725 34.5076 21.8892C32.7246 20.5059 30.487 19.843 28.2382 20.0317C25.9894 20.2204 23.8936 21.247 22.3661 22.9081C20.8386 24.5692 19.9908 26.7435 19.9908 29.0002C19.9908 31.2568 20.8386 33.4311 22.3661 35.0922C23.8936 36.7533 25.9894 37.7799 28.2382 37.9686C30.487 38.1574 32.7246 37.4944 34.5076 36.1111C36.2906 34.7279 37.4888 32.7253 37.865 30.5002H40.91C40.5277 33.5287 39.0058 36.2978 36.654 38.2439C34.3022 40.19 31.2973 41.1668 28.2507 40.9757C25.2042 40.7846 22.3449 39.4398 20.2548 37.2151C18.1646 34.9903 17.0008 32.0527 17 29.0002ZM33.23 30.5002C32.8761 31.501 32.1799 32.3445 31.2642 32.8816C30.3486 33.4187 29.2726 33.6149 28.2264 33.4354C27.1801 33.2559 26.231 32.7123 25.5468 31.9007C24.8626 31.0891 24.4873 30.0617 24.4873 29.0002C24.4873 27.9386 24.8626 26.9113 25.5468 26.0997C26.231 25.2881 27.1801 24.7445 28.2264 24.565C29.2726 24.3855 30.3486 24.5816 31.2642 25.1187C32.1799 25.6558 32.8761 26.4994 33.23 27.5002H29V30.5002H33.23ZM43.22 50.0002H41.855L38.435 44.3152C39.0679 43.9314 39.6743 43.5054 40.25 43.0402L43.22 50.0002Z" fill="#F6F3EE"/>
<path d="M53.0001 30.5002V27.5002H46.9401C46.5528 22.8723 44.3919 18.5731 40.9091 15.5011C37.4262 12.4291 32.8908 10.822 28.2508 11.0157C23.6107 11.2093 19.225 13.1888 16.0103 16.5403C12.7955 19.8918 11.0004 24.3561 11.0001 29.0002C10.9868 33.3502 12.5662 37.5547 15.4401 40.8202L11.1201 50.9152C11.0253 51.1433 10.988 51.3912 11.0115 51.637C11.0351 51.8829 11.1187 52.1192 11.255 52.3251C11.3913 52.5311 11.5761 52.7004 11.7933 52.8181C12.0104 52.9358 12.2531 52.9984 12.5001 53.0002H17.0001C17.2607 53.0017 17.5171 52.9345 17.7435 52.8055C17.97 52.6765 18.1585 52.4902 18.2901 52.2652L22.2351 45.6802C26.5734 47.4402 31.4268 47.4402 35.7651 45.6802L39.7101 52.2652C39.8417 52.4902 40.0302 52.6765 40.2566 52.8055C40.4831 52.9345 40.7395 53.0017 41.0001 53.0002H45.5001C45.7471 52.9984 45.9898 52.9358 46.2069 52.8181C46.424 52.7004 46.6089 52.5311 46.7452 52.3251C46.8815 52.1192 46.9651 51.8829 46.9886 51.637C47.0121 51.3912 46.9749 51.1433 46.8801 50.9152L42.5601 40.8202C45.0873 37.9379 46.6227 34.3204 46.9401 30.5002H53.0001ZM16.1451 50.0002H14.7801L17.7501 43.0402C18.3258 43.5055 18.9322 43.9314 19.5651 44.3152L16.1451 50.0002ZM17.0001 29.0002C17.0009 25.9477 18.1648 23.0101 20.2549 20.7853C22.345 18.5606 25.2043 17.2158 28.2508 17.0247C31.2974 16.8335 34.3023 17.8104 36.6541 19.7565C39.0059 21.7026 40.5278 24.4717 40.9101 27.5002H37.8651C37.489 25.2751 36.2907 23.2725 34.5077 21.8893C32.7247 20.506 30.4871 19.843 28.2383 20.0317C25.9896 20.2205 23.8938 21.2471 22.3662 22.9082C20.8387 24.5692 19.991 26.7436 19.991 29.0002C19.991 31.2569 20.8387 33.4312 22.3662 35.0923C23.8938 36.7534 25.9896 37.78 28.2383 37.9687C30.4871 38.1574 32.7247 37.4944 34.5077 36.1112C36.2907 34.7279 37.489 32.7253 37.8651 30.5002H40.9101C40.5278 33.5287 39.0059 36.2978 36.6541 38.2439C34.3023 40.19 31.2974 41.1669 28.2508 40.9758C25.2043 40.7846 22.345 39.4399 20.2549 37.2151C18.1648 34.9903 17.0009 32.0528 17.0001 29.0002ZM33.2301 30.5002C32.8762 31.501 32.18 32.3445 31.2644 32.8817C30.3487 33.4188 29.2727 33.6149 28.2265 33.4354C27.1802 33.2559 26.2311 32.7123 25.5469 31.9007C24.8627 31.0891 24.4874 30.0618 24.4874 29.0002C24.4874 27.9387 24.8627 26.9113 25.5469 26.0997C26.2311 25.2881 27.1802 24.7445 28.2265 24.565C29.2727 24.3855 30.3487 24.5817 31.2644 25.1188C32.18 25.6559 32.8762 26.4994 33.2301 27.5002H29.0001V30.5002H33.2301ZM43.2201 50.0002H41.8551L38.4351 44.3152C39.068 43.9314 39.6744 43.5055 40.2501 43.0402L43.2201 50.0002Z" fill="#5D013B"/>
</svg>
