<svg width="64" height="64" viewBox="0 0 64 64" fill="none" xmlns="http://www.w3.org/2000/svg">
<path d="M25 56.5H13.625C12.6625 56.5 11.875 55.7125 11.875 54.75V52.125H21.5C22.9438 52.125 24.125 50.9437 24.125 49.5V37.25C24.125 35.8062 22.9438 34.625 21.5 34.625H11.875V30.25H29.375V34.625C29.375 35.1063 29.7687 35.5 30.25 35.5C30.7313 35.5 31.125 35.1063 31.125 34.625V25C31.125 24.0375 30.3375 23.25 29.375 23.25H28.5V19.2862C28.5 18.8837 28.4037 18.4725 28.22 18.1137L27.1438 15.9525C26.7325 15.1213 25.9187 14.5788 25 14.5175V11H26.75C27.7125 11 28.5 10.2125 28.5 9.25V7.5C28.5 6.5375 27.7125 5.75 26.75 5.75H22.585C22.3138 5.75 22.0425 5.81125 21.8063 5.93375L17.2212 8.22625C16.6262 8.52375 16.25 9.1275 16.25 9.7925V14.5175C15.3313 14.5788 14.5175 15.1213 14.1063 15.9525L13.03 18.1137C12.8462 18.4725 12.75 18.8837 12.75 19.2862V23.25H11.875C10.9125 23.25 10.125 24.0375 10.125 25V54.75C10.125 56.6838 11.6912 58.25 13.625 58.25H25C25.4812 58.25 25.875 57.8563 25.875 57.375C25.875 56.8937 25.4812 56.5 25 56.5ZM17.125 38.125C19.085 38.125 20.625 40.435 20.625 43.375C20.625 46.315 19.085 48.625 17.125 48.625C15.165 48.625 13.625 46.315 13.625 43.375C13.625 40.435 15.165 38.125 17.125 38.125ZM18 9.7925L22.585 7.5H26.75V9.25H24.125C23.6438 9.25 23.25 9.64375 23.25 10.125V14.5H18V9.7925ZM11.875 25H29.375V28.5H11.875V25Z" fill="#5D013B"/>
<path d="M52.125 40.9071V39.8746C52.125 38.7283 51.3813 37.7571 50.3575 37.3983C50.2175 34.0033 49.0362 32.0871 45.65 29.5496C45.3875 29.3483 45.0375 29.3221 44.74 29.4708C44.4513 29.6108 44.2588 29.9083 44.25 30.2408C44.2412 30.5121 44.0575 32.8746 39.875 32.8746C33.05 32.8746 31.4837 35.6133 31.1862 37.3808C30.1362 37.7221 29.375 38.7108 29.375 39.8746V40.9071C28.36 41.2658 27.625 42.2371 27.625 43.3746V55.6246C27.625 57.0683 28.8062 58.2496 30.25 58.2496H51.25C52.6938 58.2496 53.875 57.0683 53.875 55.6246V43.3746C53.875 42.2371 53.14 41.2658 52.125 40.9071ZM33.75 52.1246V46.8746H47.75V52.1246H33.75ZM31.125 39.8746C31.125 39.3933 31.5187 38.9996 32 38.9996H49.5C49.9813 38.9996 50.375 39.3933 50.375 39.8746V40.7496H31.125V39.8746Z" fill="#5D013B"/>
</svg>
