<svg width="64" height="64" viewBox="0 0 64 64" fill="none" xmlns="http://www.w3.org/2000/svg">
<path d="M26.27 19.5496L30.38 32.4496L29.255 34.5046L27.08 33.3796L22.985 20.5246L26.27 19.5496ZM48.5 49.9996H14V22.9996H20.63L24.41 34.8946C24.5319 35.2695 24.7957 35.5818 25.145 35.7646L29.18 37.8346C29.3949 37.9402 29.6306 37.9966 29.87 37.9996H34.25C34.8467 37.9996 35.419 38.2367 35.841 38.6586C36.2629 39.0806 36.5 39.6529 36.5 40.2496C36.5 40.8463 36.2629 41.4186 35.841 41.8406C35.419 42.2626 34.8467 42.4996 34.25 42.4996H18.5V45.4996H34.25C35.6424 45.4996 36.9777 44.9465 37.9623 43.9619C38.9469 42.9773 39.5 41.642 39.5 40.2496C39.5 38.8572 38.9469 37.5219 37.9623 36.5373C36.9777 35.5527 35.6424 34.9996 34.25 34.9996H32.39L33.32 33.3196C33.4181 33.1427 33.4782 32.9472 33.4962 32.7457C33.5143 32.5442 33.4901 32.3412 33.425 32.1496L30.515 22.9996H44V45.4996C44.0012 45.8971 44.1596 46.2779 44.4407 46.559C44.7217 46.84 45.1025 46.9984 45.5 46.9996H48.5C48.8978 46.9996 49.2794 47.1576 49.5607 47.4389C49.842 47.7202 50 48.1018 50 48.4996C50 48.8974 49.842 49.279 49.5607 49.5603C49.2794 49.8416 48.8978 49.9996 48.5 49.9996Z" fill="#F6F3EE"/>
<path d="M48.5 16.9996H45.5C45.1025 17.0008 44.7217 17.1592 44.4407 17.4403C44.1596 17.7213 44.0012 18.1021 44 18.4996V19.9996H29.57L27.74 14.2546C27.3509 13.0763 26.5166 12.0967 25.4152 11.525C24.3138 10.9533 23.0326 10.8347 21.845 11.1946C21.245 11.3728 20.6865 11.6688 20.2023 12.0655C19.718 12.4621 19.3178 12.9514 19.025 13.5046C18.7412 14.0364 18.5671 14.6198 18.513 15.2202C18.4589 15.8205 18.5259 16.4256 18.71 16.9996L19.67 19.9996H12.5C12.1025 20.0008 11.7217 20.1592 11.4407 20.4403C11.1596 20.7213 11.0012 21.1021 11 21.4996V51.4996C11.0012 51.8971 11.1596 52.2779 11.4407 52.559C11.7217 52.84 12.1025 52.9984 12.5 52.9996H48.5C49.6924 52.9961 50.835 52.5209 51.6781 51.6777C52.5213 50.8346 52.9965 49.692 53 48.4996V21.4996C52.9965 20.3072 52.5213 19.1646 51.6781 18.3215C50.835 17.4783 49.6924 17.0031 48.5 16.9996ZM26.27 19.5496L30.38 32.4496L29.255 34.5046L27.08 33.3796L22.985 20.5246L26.27 19.5496ZM48.5 49.9996H14V22.9996H20.63L24.41 34.8946C24.5319 35.2695 24.7957 35.5818 25.145 35.7646L29.18 37.8346C29.3949 37.9402 29.6306 37.9966 29.87 37.9996H34.25C34.8467 37.9996 35.419 38.2367 35.841 38.6586C36.2629 39.0806 36.5 39.6529 36.5 40.2496C36.5 40.8463 36.2629 41.4186 35.841 41.8406C35.419 42.2626 34.8467 42.4996 34.25 42.4996H18.5V45.4996H34.25C35.6424 45.4996 36.9777 44.9465 37.9623 43.9619C38.9469 42.9774 39.5 41.642 39.5 40.2496C39.5 38.8572 38.9469 37.5219 37.9623 36.5373C36.9777 35.5527 35.6424 34.9996 34.25 34.9996H32.39L33.32 33.3196C33.4181 33.1427 33.4782 32.9472 33.4962 32.7457C33.5143 32.5442 33.4901 32.3412 33.425 32.1496L30.515 22.9996H44V45.4996C44.0012 45.8971 44.1596 46.2779 44.4407 46.559C44.7217 46.84 45.1025 46.9984 45.5 46.9996H48.5C48.8978 46.9996 49.2794 47.1576 49.5607 47.4389C49.842 47.7202 50 48.1018 50 48.4996C50 48.8974 49.842 49.279 49.5607 49.5603C49.2794 49.8416 48.8978 49.9996 48.5 49.9996Z" fill="#5D013B"/>
</svg>
