<svg width="64" height="64" viewBox="0 0 64 64" fill="none" xmlns="http://www.w3.org/2000/svg">
<g clip-path="url(#clip0_2541_2040)">
<path d="M18.25 14.5H43.48C43.34 14.8925 43.25 15.31 43.25 15.75V22.8913H32.5288L30.0575 20.35C29.11 19.0325 27.5863 18.25 25.96 18.25H17V15.75C17 15.0612 17.56 14.5 18.25 14.5ZM49.5 47.25C49.5 48.49 48.49 49.5 47.25 49.5H16.75C15.51 49.5 14.5 48.49 14.5 47.25V23C14.5 21.7587 15.51 20.75 16.75 20.75H25.96C26.8013 20.75 27.5863 21.1637 28.0613 21.8575C28.1013 21.9163 28.1462 21.9712 28.1962 22.0212L31.1038 25.0125C31.3388 25.255 31.6612 25.3913 32 25.3913H47.25C48.49 25.3913 49.5 26.4012 49.5 27.6412V47.25Z" fill="white"/>
<path d="M47.25 22.8913H45.75V17H49.5C50.1912 17 50.75 16.44 50.75 15.75C50.75 13.6825 49.0675 12 47 12H18.25C16.1825 12 14.5 13.6825 14.5 15.75V18.8425C13.0188 19.6475 12 21.1988 12 23V47.25C12 49.8688 14.1312 52 16.75 52H47.25C49.8688 52 52 49.8688 52 47.25V27.6412C52 25.0225 49.8688 22.8913 47.25 22.8913ZM18.25 14.5H43.48C43.34 14.8925 43.25 15.31 43.25 15.75V22.8913H32.5288L30.0575 20.35C29.11 19.0325 27.5863 18.25 25.96 18.25H17V15.75C17 15.0612 17.56 14.5 18.25 14.5ZM49.5 47.25C49.5 48.49 48.49 49.5 47.25 49.5H16.75C15.51 49.5 14.5 48.49 14.5 47.25V23C14.5 21.7587 15.51 20.75 16.75 20.75H25.96C26.8013 20.75 27.5863 21.1638 28.0613 21.8575C28.1012 21.9163 28.1462 21.9713 28.1962 22.0212L31.1038 25.0125C31.3388 25.255 31.6612 25.3913 32 25.3913H47.25C48.49 25.3913 49.5 26.4012 49.5 27.6412V47.25Z" fill="#5D013B"/>
<path d="M49.5 47.2503C49.5 48.4903 48.49 49.5003 47.25 49.5003H16.75C15.51 49.5003 14.5 48.4903 14.5 47.2503V23.0003C14.5 21.759 15.51 20.7503 16.75 20.7503H25.96C26.8013 20.7503 27.5863 21.164 28.0613 21.8578C28.1013 21.9165 28.1462 21.9715 28.1962 22.0215L31.1038 25.0128C31.3388 25.2553 31.6612 25.3915 32 25.3915H47.25C48.49 25.3915 49.5 26.4015 49.5 27.6415V47.2503Z" fill="#5D013B"/>
<path d="M37.3278 34.7134C37.7303 34.3479 37.7607 33.7253 37.3951 33.3229C37.2197 33.1296 36.9747 33.0139 36.714 33.0012C36.4533 32.9885 36.1982 33.0799 36.0048 33.2552L31.2578 38.5631L28.6805 35.9869C28.5891 35.8953 28.4806 35.8227 28.3612 35.7731C28.2417 35.7235 28.1137 35.698 27.9844 35.698C27.8551 35.698 27.727 35.7235 27.6076 35.7731C27.4881 35.8227 27.3796 35.8953 27.2883 35.9869C26.9038 36.3708 26.904 36.9945 27.2883 37.3785L30.5289 40.6191C30.7204 40.811 30.9726 40.907 31.2249 40.907C31.4696 40.9073 31.7055 40.816 31.8863 40.6511L37.3278 34.7134Z" fill="white" stroke="white" stroke-width="1.5"/>
</g>
<defs>
<clipPath id="clip0_2541_2040">
<rect width="40" height="40" fill="white" transform="translate(12 12)"/>
</clipPath>
</defs>
</svg>
