<svg width="64" height="64" viewBox="0 0 64 64" fill="none" xmlns="http://www.w3.org/2000/svg">
<g clip-path="url(#clip0_2541_2010)">
<path d="M17.5312 34.5C17.2287 34.5 16.935 34.61 16.7075 34.81L14.5 36.7437V18.6575C14.5 16.365 16.365 14.5 18.6575 14.5H36.5925C38.885 14.5 40.75 16.365 40.75 18.6575V30.3425C40.75 32.635 38.885 34.5 36.5925 34.5H17.5312Z" fill="white"/>
<g clip-path="url(#clip1_2541_2010)">
<path d="M45.3425 23.25H43.25V18.6575C43.25 14.9863 40.2625 12 36.5925 12H18.6575C14.9875 12 12 14.9875 12 18.6575V39.2675C12 39.7987 12.3125 40.2825 12.7963 40.5012C12.955 40.5737 13.1375 40.6087 13.325 40.6087C13.6625 40.6087 14.0113 40.495 14.2487 40.2862L18.0013 36.9987H20.75V41.5912C20.75 45.2625 23.7375 48.2487 27.4075 48.2487H45.9987L49.9263 51.6887C50.16 51.8925 50.4538 51.9987 50.75 51.9987C50.925 51.9987 51.1 51.9625 51.2663 51.8875C51.7125 51.685 52 51.2388 52 50.7487V29.9075C52 26.2362 49.0125 23.25 45.3425 23.25ZM17.5312 34.5C17.2288 34.5 16.935 34.61 16.7075 34.81L14.5 36.7437V18.6575C14.5 16.365 16.365 14.5 18.6575 14.5H36.5925C38.885 14.5 40.75 16.365 40.75 18.6575V30.3425C40.75 32.635 38.885 34.5 36.5925 34.5H17.5312Z" fill="#5D013B"/>
</g>
<path d="M21 21H34" stroke="#5D013B" stroke-width="2.5" stroke-miterlimit="10" stroke-linecap="round" stroke-linejoin="round"/>
<path d="M21 28H34" stroke="#5D013B" stroke-width="2.5" stroke-miterlimit="10" stroke-linecap="round" stroke-linejoin="round"/>
</g>
<defs>
<clipPath id="clip0_2541_2010">
<rect width="40" height="40" fill="white" transform="translate(12 12)"/>
</clipPath>
<clipPath id="clip1_2541_2010">
<rect width="40" height="40" fill="white" transform="translate(12 12)"/>
</clipPath>
</defs>
</svg>
