<svg width="24" height="24" viewBox="0 0 24 24" fill="none" xmlns="http://www.w3.org/2000/svg">
<path d="M18 18.4167V5.58333C18 5.42862 17.9368 5.28025 17.8243 5.17085C17.7117 5.06146 17.5591 5 17.4 5C17.2409 5 17.0883 5.06146 16.9757 5.17085C16.8632 5.28025 16.8 5.42862 16.8 5.58333V10.9573L7.82252 5.62708C7.63438 5.5176 7.41928 5.45965 7.20002 5.45938C6.99516 5.45668 6.79326 5.50702 6.61502 5.60521C6.42769 5.70602 6.27172 5.854 6.16351 6.03362C6.0553 6.21324 5.99882 6.41788 6.00002 6.62604L6.00002 17.374C5.99974 17.581 6.05615 17.7845 6.16347 17.9633C6.27079 18.1422 6.42514 18.2901 6.61068 18.3918C6.79622 18.4935 7.00626 18.5453 7.21923 18.542C7.4322 18.5387 7.64042 18.4803 7.82252 18.3729L16.8 13.0427V18.4167C16.8 18.5714 16.8632 18.7197 16.9757 18.8291C17.0883 18.9385 17.2409 19 17.4 19C17.5591 19 17.7117 18.9385 17.8243 18.8291C17.9368 18.7197 18 18.5714 18 18.4167Z" fill="white"/>
</svg>
