<svg width="19" height="19" viewBox="0 0 19 19" fill="none" xmlns="http://www.w3.org/2000/svg">
<path d="M9.375 0.25C10.6061 0.25 11.8255 0.492729 12.9629 0.963867C14.1002 1.435 15.1334 2.12562 16.0039 2.99609C16.8744 3.86657 17.565 4.89979 18.0361 6.03711C18.5073 7.17454 18.75 8.39386 18.75 9.625C18.75 10.8561 18.5073 12.0755 18.0361 13.2129C17.565 14.3502 16.8744 15.3834 16.0039 16.2539C15.1334 17.1244 14.1002 17.815 12.9629 18.2861C11.8255 18.7573 10.6061 19 9.375 19H1.5C1.10218 19 0.720759 18.8419 0.439453 18.5605C0.158149 18.2792 0 17.8978 0 17.5V9.625C0 7.1386 0.98794 4.75425 2.74609 2.99609C4.50425 1.23794 6.8886 0.25 9.375 0.25ZM5.25 8.875C4.62868 8.875 4.125 9.37868 4.125 10C4.125 10.6213 4.62868 11.125 5.25 11.125C5.87132 11.125 6.375 10.6213 6.375 10C6.375 9.37868 5.87132 8.875 5.25 8.875ZM9.375 8.875C8.75368 8.875 8.25 9.37868 8.25 10C8.25 10.6213 8.75368 11.125 9.375 11.125C9.99632 11.125 10.5 10.6213 10.5 10C10.5 9.37868 9.99632 8.875 9.375 8.875ZM13.5 8.875C12.8787 8.875 12.375 9.37868 12.375 10C12.375 10.6213 12.8787 11.125 13.5 11.125C14.1213 11.125 14.625 10.6213 14.625 10C14.625 9.37868 14.1213 8.875 13.5 8.875Z" fill="white"/>
</svg>
