<svg width="25" height="25" viewBox="0 0 25 25" fill="none" xmlns="http://www.w3.org/2000/svg">
<path d="M14.2239 2.5H7.16667C5.69391 2.5 4.5 3.61929 4.5 5V20C4.5 21.3807 5.69391 22.5 7.16667 22.5H17.8333C19.3061 22.5 20.5 21.3807 20.5 20V8.38388C20.5 8.05236 20.3595 7.73442 20.1095 7.5L15.1667 2.86612C14.9166 2.6317 14.5775 2.5 14.2239 2.5ZM14.5 6.875V4.375L18.5 8.125H15.8333C15.097 8.125 14.5 7.56536 14.5 6.875ZM10.3047 14.8169C10.0444 15.061 9.62228 15.061 9.36193 14.8169C9.10158 14.5729 9.10158 14.1771 9.36193 13.9331L12.0286 11.4331C12.2889 11.189 12.7111 11.189 12.9714 11.4331L15.6381 13.9331C15.8984 14.1771 15.8984 14.5729 15.6381 14.8169C15.3777 15.061 14.9556 15.061 14.6953 14.8169L13.1667 13.3839V18.125C13.1667 18.4702 12.8682 18.75 12.5 18.75C12.1318 18.75 11.8333 18.4702 11.8333 18.125V13.3839L10.3047 14.8169Z" fill="black"/>
</svg>
